<svg xmlns="http://www.w3.org/2000/svg" xmlns:xlink="http://www.w3.org/1999/xlink" width="500" zoomAndPan="magnify" viewBox="0 0 375 374.999991" height="500" preserveAspectRatio="xMidYMid meet" version="1.2"><defs><clipPath id="ba46165da4"><path d="M 0 81.230469 L 126 81.230469 L 126 207 L 0 207 Z M 0 81.230469 "/></clipPath></defs><g id="505df4198a"><rect x="0" width="375" y="0" height="374.999991" style="fill:#ffffff;fill-opacity:1;stroke:none;"/><rect x="0" width="375" y="0" height="374.999991" style="fill:#ffffff;fill-opacity:1;stroke:none;"/><path style=" stroke:none;fill-rule:nonzero;fill:#ccb5c8;fill-opacity:1;" d="M 97.210938 135.367188 C 98.089844 135.367188 96.589844 135.988281 97.210938 135.367188 Z M 97.210938 135.367188 "/><g clip-rule="nonzero" clip-path="url(#ba46165da4)"><path style=" stroke:none;fill-rule:nonzero;fill:#ccb5c8;fill-opacity:1;" d="M 118.191406 135.15625 C 118.664062 135.105469 119.140625 135.128906 119.507812 135.15625 C 119.613281 135.628906 118.351562 138.417969 116.167969 139.996094 C 116.800781 140.0625 117.125 140.1875 117.453125 140.289062 C 117.503906 140.277344 117.558594 140.269531 117.613281 140.257812 C 117.589844 140.277344 117.570312 140.296875 117.546875 140.316406 C 117.570312 140.324219 117.589844 140.328125 117.613281 140.335938 C 117.273438 141.28125 113.433594 145.359375 112.511719 145.4375 C 113.222656 145.566406 114.566406 145.8125 115.011719 146.121094 C 115.433594 146.410156 111.460938 150.089844 108.703125 150.460938 C 109.539062 150.824219 111.792969 151.148438 111.722656 151.484375 C 111.671875 151.824219 108.410156 154.980469 105.808594 155.007812 C 106.519531 155.71875 107.9375 155.613281 108.226562 156.191406 C 108.515625 156.769531 104.335938 159.109375 101.417969 159.476562 C 101.523438 159.84375 103.183594 160.1875 103.785156 160.449219 C 104.390625 160.714844 101.996094 163.472656 97.34375 163.15625 C 97.683594 163.683594 98.839844 164.234375 98.972656 164.550781 C 99.234375 165.128906 96.871094 166.285156 93.347656 166.945312 C 93.792969 167.523438 95.109375 167.3125 95.003906 168.023438 C 94.898438 168.730469 91.847656 170.363281 88.71875 170.308594 C 88.875 170.757812 89.535156 171.152344 89.507812 171.703125 C 89.484375 172.175781 86.589844 172.789062 84.871094 173.382812 C 84.898438 173.570312 84.6875 173.804688 84.539062 174.058594 C 84.640625 174.125 84.730469 174.183594 84.796875 174.265625 C 86.714844 173.199219 88.199219 172.808594 88.324219 173.203125 C 88.402344 173.4375 88.035156 174.199219 88.113281 174.621094 C 90.289062 172.445312 92.773438 172.714844 92.542969 173.175781 C 92.546875 173.175781 92.554688 173.175781 92.558594 173.175781 C 92.550781 173.175781 92.546875 173.179688 92.539062 173.183594 C 92.335938 173.589844 91.691406 174.445312 91.796875 174.675781 C 93.425781 173.570312 96.578125 172.914062 96.683594 173.332031 C 96.789062 173.753906 96.027344 174.332031 95.976562 175.015625 C 97.316406 173.886719 100.339844 174.042969 100.523438 174.199219 C 100.707031 174.332031 99.710938 175.488281 99.445312 176.042969 C 100.996094 175.015625 104.625 175.121094 104.546875 175.460938 C 104.441406 175.804688 103.941406 176.4375 103.574219 176.910156 C 104.046875 176.539062 107.78125 176.910156 108.386719 177.25 C 108.226562 177.460938 108.148438 177.699219 107.808594 178.066406 C 109.59375 177.90625 111.460938 178.75 111.621094 179.039062 C 111.613281 179.042969 111.609375 179.046875 111.605469 179.054688 C 111.621094 179.058594 111.632812 179.0625 111.644531 179.066406 C 111.625 179.066406 111.605469 179.074219 111.585938 179.074219 C 111.429688 179.25 111.207031 179.445312 110.960938 179.617188 C 112.324219 179.695312 118.628906 181.023438 119.625 181.789062 C 119.636719 181.792969 119.652344 181.796875 119.664062 181.800781 C 119.652344 181.800781 119.640625 181.804688 119.625 181.808594 C 118.613281 182.542969 112.269531 183.640625 110.882812 183.667969 C 111.144531 183.851562 111.382812 184.058594 111.539062 184.246094 C 111.355469 184.507812 109.464844 185.296875 107.675781 185.085938 C 107.984375 185.441406 108.058594 185.648438 108.183594 185.859375 C 108.207031 185.875 108.230469 185.886719 108.253906 185.902344 C 108.238281 185.898438 108.222656 185.898438 108.207031 185.898438 C 108.214844 185.90625 108.222656 185.917969 108.226562 185.925781 C 107.625 186.269531 103.863281 186.507812 103.390625 186.109375 C 103.519531 186.28125 104.375 187.40625 104.308594 187.609375 C 104.199219 187.921875 100.722656 187.871094 99.234375 186.820312 C 99.496094 187.398438 100.5 188.636719 100.246094 188.722656 C 100.253906 188.726562 100.257812 188.734375 100.261719 188.742188 C 100.253906 188.734375 100.246094 188.730469 100.234375 188.726562 C 99.878906 188.875 96.992188 188.890625 95.738281 187.742188 C 95.765625 188.425781 96.527344 189.03125 96.394531 189.449219 C 96.292969 189.871094 93.136719 189.109375 91.558594 187.953125 C 91.425781 188.164062 92.085938 189.082031 92.269531 189.503906 C 92.453125 189.898438 90.007812 190.160156 87.878906 187.871094 C 87.800781 188.265625 88.113281 189.082031 88.035156 189.292969 C 87.902344 189.714844 86.222656 189.1875 84.144531 187.871094 C 84.09375 188.367188 84.832031 188.859375 84.472656 189.148438 C 84.480469 189.152344 84.480469 189.15625 84.484375 189.160156 C 84.480469 189.160156 84.472656 189.15625 84.46875 189.15625 C 84.003906 189.464844 81.777344 188.792969 80.332031 187.398438 C 80.253906 187.628906 80.304688 187.9375 80.234375 188.191406 C 80.242188 188.199219 80.246094 188.207031 80.253906 188.214844 C 80.246094 188.210938 80.238281 188.210938 80.230469 188.207031 C 80.132812 188.570312 79.957031 188.535156 79.488281 188.34375 C 79.359375 188.496094 78.898438 188.710938 78.78125 188.925781 C 80.84375 188.773438 82.066406 190.023438 81.710938 190.175781 C 81.714844 190.179688 81.71875 190.183594 81.726562 190.1875 C 81.714844 190.1875 81.703125 190.1875 81.691406 190.183594 C 81.371094 190.308594 80.699219 190.433594 80.671875 190.605469 C 82.015625 190.765625 83.933594 191.84375 83.800781 192.105469 C 83.671875 192.367188 83.011719 192.316406 82.671875 192.660156 C 83.882812 192.660156 85.378906 194.128906 85.40625 194.289062 C 85.433594 194.445312 84.40625 194.605469 84.011719 194.761719 C 85.246094 194.914062 87.167969 196.628906 86.898438 196.78125 C 86.898438 196.785156 86.902344 196.785156 86.90625 196.785156 C 86.898438 196.785156 86.894531 196.785156 86.890625 196.785156 C 86.671875 196.90625 86.144531 197 85.773438 197.074219 C 86.195312 197.101562 87.957031 198.96875 88.113281 199.414062 C 88.101562 199.417969 88.089844 199.421875 88.078125 199.425781 C 88.082031 199.433594 88.085938 199.4375 88.085938 199.441406 C 87.855469 199.480469 87.8125 199.546875 87.457031 199.574219 C 88.457031 200.308594 89.035156 201.570312 88.980469 201.808594 C 88.824219 201.808594 88.613281 201.835938 88.378906 201.808594 C 89.0625 202.46875 91.742188 206.015625 91.898438 206.855469 C 91.058594 206.804688 87.246094 204.488281 86.511719 203.886719 C 86.5625 204.09375 86.5625 204.304688 86.589844 204.488281 C 86.378906 204.570312 85.039062 204.121094 84.222656 203.203125 C 84.222656 203.542969 84.171875 203.703125 84.144531 203.886719 C 84.136719 203.882812 84.125 203.878906 84.117188 203.878906 L 84.117188 203.886719 C 82.511719 202.949219 81.613281 202.039062 81.566406 201.808594 C 81.542969 202.203125 81.488281 202.78125 81.382812 202.992188 C 81.277344 203.203125 79.386719 201.546875 79.09375 200.308594 C 78.964844 200.703125 78.9375 201.753906 78.78125 201.753906 C 78.625 201.753906 77.019531 200.414062 76.886719 199.207031 C 76.597656 199.574219 76.703125 200.203125 76.46875 200.363281 C 76.230469 200.519531 74.941406 198.707031 74.625 197.390625 C 74.46875 197.441406 74.390625 198.234375 74.3125 198.519531 C 74.230469 198.8125 72.839844 197.835938 72.757812 195.707031 C 72.523438 195.890625 72.339844 196.445312 72.207031 196.523438 C 71.945312 196.679688 71.3125 195.65625 70.839844 194.050781 C 70.625 194.265625 70.726562 195.449219 70 194.507812 C 70 194.53125 70 194.554688 70 194.578125 C 69.824219 194.210938 69.195312 193.378906 69.078125 192.105469 C 68.792969 192.269531 68.558594 192.882812 68.214844 192.21875 C 68.214844 192.242188 68.210938 192.265625 68.210938 192.289062 C 67.945312 191.804688 67.683594 190.789062 67.316406 190.160156 C 67.105469 190.320312 67.183594 190.554688 66.898438 190.554688 C 66.316406 190.527344 66.105469 187.792969 66.027344 187.453125 C 65.785156 187.695312 65.636719 188.105469 65.453125 187.941406 C 65.453125 187.945312 65.453125 187.949219 65.449219 187.953125 C 65.011719 187.328125 65.089844 187.546875 64.875 186.574219 C 64.460938 185.289062 63.953125 183.382812 63.488281 182.015625 C 61.789062 196.023438 64.15625 195.265625 63.636719 204.9375 L 62.402344 204.9375 C 62.75 199.734375 61.53125 193.261719 61.53125 190.898438 C 61.53125 188.625 61.9375 184.75 62.203125 182.46875 C 61.203125 185.078125 60.933594 188.046875 60.480469 187.917969 C 60.472656 187.929688 60.464844 187.941406 60.453125 187.953125 C 60.441406 187.933594 60.433594 187.914062 60.421875 187.894531 C 60.308594 187.820312 60.261719 187.625 60.035156 187.398438 C 59.9375 187.816406 59.746094 190.632812 59.09375 190.496094 C 59.089844 190.507812 59.089844 190.515625 59.085938 190.527344 C 59.082031 190.515625 59.082031 190.503906 59.074219 190.492188 C 58.894531 190.445312 58.929688 190.246094 58.746094 190.109375 C 58.09375 191.183594 57.914062 192.820312 57.363281 192.371094 C 57.351562 192.394531 57.339844 192.421875 57.328125 192.449219 C 57.324219 192.410156 57.324219 192.371094 57.320312 192.335938 C 57.207031 192.230469 57.109375 192.101562 56.984375 192.054688 C 56.855469 193.441406 55.945312 194.914062 55.582031 194.808594 C 55.574219 194.820312 55.570312 194.828125 55.5625 194.839844 C 55.5625 194.828125 55.5625 194.816406 55.5625 194.804688 C 55.355469 194.722656 55.460938 194.210938 55.222656 194 C 54.671875 195.628906 54.039062 196.65625 53.777344 196.523438 C 53.644531 196.445312 53.433594 195.890625 53.222656 195.707031 C 53.144531 197.863281 51.777344 198.8125 51.671875 198.519531 C 51.59375 198.230469 51.515625 197.441406 51.359375 197.390625 C 51.042969 198.707031 49.78125 200.519531 49.515625 200.359375 C 49.253906 200.203125 49.386719 199.546875 49.097656 199.203125 C 48.964844 200.386719 47.359375 201.730469 47.203125 201.753906 C 47.046875 201.753906 46.992188 200.730469 46.886719 200.308594 C 46.605469 201.515625 44.699219 203.257812 44.582031 202.953125 C 44.578125 202.957031 44.578125 202.960938 44.574219 202.964844 C 44.574219 202.957031 44.578125 202.945312 44.578125 202.9375 C 44.488281 202.699219 44.441406 202.195312 44.417969 201.808594 C 44.335938 202.230469 42.285156 203.78125 41.839844 203.886719 C 41.835938 203.871094 41.835938 203.859375 41.835938 203.847656 C 41.828125 203.851562 41.820312 203.855469 41.8125 203.859375 C 41.777344 203.4375 41.761719 203.441406 41.761719 203.203125 C 40.917969 204.121094 39.605469 204.570312 39.394531 204.488281 C 39.394531 204.332031 39.421875 204.121094 39.472656 203.886719 C 38.738281 204.488281 34.925781 206.804688 34.082031 206.855469 C 34.085938 206.839844 34.089844 206.824219 34.097656 206.808594 C 34.066406 206.824219 34.035156 206.839844 34.003906 206.855469 C 34.066406 206.769531 36.074219 203.28125 37.605469 201.808594 C 37.421875 201.832031 37.210938 201.832031 37.058594 201.816406 C 37.023438 201.820312 36.988281 201.828125 36.949219 201.835938 C 37.015625 201.464844 37.574219 200.273438 38.527344 199.574219 C 38.109375 199.539062 38.175781 199.472656 37.816406 199.441406 C 38.242188 198.734375 39.816406 197.101562 40.210938 197.074219 C 39.828125 197 39.296875 196.898438 39.074219 196.769531 C 39.046875 196.777344 39.023438 196.78125 39 196.785156 C 39.015625 196.773438 39.03125 196.761719 39.042969 196.75 C 38.949219 196.554688 40.710938 194.941406 41.972656 194.761719 C 41.59375 194.609375 40.632812 194.460938 40.582031 194.308594 C 40.5625 194.308594 40.542969 194.3125 40.523438 194.316406 C 40.542969 194.300781 40.5625 194.285156 40.585938 194.269531 C 40.695312 194.042969 42.140625 192.683594 43.3125 192.660156 C 43.003906 192.351562 42.371094 192.367188 42.195312 192.125 C 42.171875 192.128906 42.152344 192.128906 42.128906 192.132812 C 42.144531 192.121094 42.164062 192.109375 42.179688 192.09375 C 42.101562 191.816406 43.988281 190.761719 45.308594 190.605469 C 45.257812 190.453125 44.535156 190.300781 44.253906 190.171875 C 44.230469 190.179688 44.210938 190.1875 44.179688 190.1875 C 44.191406 190.175781 44.203125 190.164062 44.222656 190.152344 C 43.972656 189.996094 45.074219 188.769531 47.203125 188.925781 C 47.054688 188.703125 46.574219 188.453125 46.480469 188.316406 C 45.976562 188.527344 45.78125 188.585938 45.671875 188.207031 C 45.664062 188.210938 45.660156 188.210938 45.652344 188.214844 C 45.65625 188.207031 45.664062 188.203125 45.671875 188.195312 C 45.601562 187.941406 45.648438 187.628906 45.574219 187.398438 C 44.03125 188.886719 41.746094 189.460938 41.4375 189.15625 C 41.429688 189.15625 41.425781 189.160156 41.417969 189.160156 C 41.421875 189.15625 41.425781 189.152344 41.429688 189.148438 C 41.070312 188.859375 41.8125 188.367188 41.761719 187.875 C 39.683594 189.1875 38 189.714844 37.871094 189.292969 C 37.789062 189.082031 38.105469 188.265625 38.027344 187.875 C 35.972656 190.078125 33.628906 189.914062 33.628906 189.542969 C 33.628906 189.375 34.492188 188.183594 34.347656 187.953125 C 32.769531 189.109375 29.613281 189.871094 29.507812 189.449219 C 29.378906 189.03125 30.140625 188.425781 30.164062 187.742188 C 28.914062 188.890625 26.023438 188.875 25.667969 188.726562 C 25.660156 188.730469 25.652344 188.738281 25.644531 188.742188 C 25.648438 188.734375 25.652344 188.726562 25.65625 188.722656 C 25.421875 188.601562 26.398438 187.414062 26.667969 186.820312 C 25.183594 187.871094 21.703125 187.921875 21.597656 187.609375 C 21.59375 187.609375 21.59375 187.609375 21.597656 187.609375 C 21.527344 187.40625 22.386719 186.277344 22.515625 186.109375 C 22.054688 186.496094 18.457031 186.28125 17.726562 185.949219 C 17.710938 185.953125 17.695312 185.953125 17.675781 185.953125 C 17.683594 185.949219 17.691406 185.945312 17.699219 185.941406 C 17.691406 185.933594 17.683594 185.933594 17.675781 185.925781 C 17.835938 185.691406 17.886719 185.480469 18.230469 185.085938 C 16.441406 185.296875 14.546875 184.507812 14.363281 184.246094 C 14.519531 184.0625 14.757812 183.851562 15.019531 183.667969 C 13.632812 183.640625 7.292969 182.546875 6.277344 181.808594 C 6.265625 181.804688 6.253906 181.800781 6.238281 181.800781 C 6.253906 181.796875 6.269531 181.792969 6.28125 181.789062 C 7.277344 181.023438 13.582031 179.695312 14.941406 179.617188 C 14.699219 179.445312 14.476562 179.25 14.320312 179.078125 C 14.300781 179.074219 14.28125 179.070312 14.257812 179.066406 C 14.273438 179.0625 14.285156 179.058594 14.300781 179.054688 C 14.292969 179.050781 14.289062 179.042969 14.285156 179.039062 C 14.441406 178.75 16.308594 177.910156 18.097656 178.066406 C 17.753906 177.695312 17.671875 177.457031 17.519531 177.25 C 18.125 176.910156 21.855469 176.539062 22.332031 176.910156 C 21.964844 176.4375 21.464844 175.804688 21.359375 175.460938 C 21.277344 175.121094 24.90625 175.015625 26.457031 176.042969 C 26.195312 175.488281 25.195312 174.332031 25.382812 174.199219 C 25.566406 174.042969 28.585938 173.886719 29.929688 175.015625 C 29.875 174.332031 29.113281 173.753906 29.21875 173.332031 C 29.324219 172.914062 32.480469 173.570312 34.109375 174.675781 C 34.210938 174.445312 33.574219 173.597656 33.367188 173.1875 C 33.359375 173.183594 33.355469 173.179688 33.347656 173.175781 C 33.351562 173.175781 33.355469 173.175781 33.359375 173.175781 C 33.136719 172.726562 35.601562 172.429688 37.789062 174.621094 C 37.863281 174.242188 37.570312 173.582031 37.570312 173.285156 C 37.570312 172.503906 40.238281 173.785156 41.074219 174.25 C 41.140625 174.160156 41.238281 174.097656 41.347656 174.027344 C 41.195312 173.777344 40.996094 173.550781 41.035156 173.367188 C 39.324219 172.769531 36.394531 172.152344 36.371094 171.675781 C 36.34375 171.125 36.976562 170.730469 37.160156 170.285156 C 34.03125 170.308594 30.980469 168.707031 30.875 167.996094 C 30.769531 167.285156 32.085938 167.496094 32.53125 166.917969 C 28.984375 166.261719 26.617188 165.105469 26.878906 164.527344 C 27.011719 164.210938 28.195312 163.65625 28.507812 163.132812 C 23.855469 163.449219 21.464844 160.6875 22.066406 160.425781 C 22.671875 160.160156 24.328125 159.820312 24.433594 159.449219 C 21.542969 159.082031 17.335938 156.742188 17.625 156.164062 C 17.886719 155.613281 19.332031 155.691406 20.042969 154.980469 C 17.441406 154.957031 14.179688 151.800781 14.128906 151.457031 C 14.050781 151.117188 16.308594 150.800781 17.152344 150.433594 C 14.417969 150.0625 10.421875 146.382812 10.839844 146.09375 C 11.261719 145.804688 12.472656 145.570312 13.339844 145.410156 C 12.417969 145.359375 8.554688 141.285156 8.238281 140.308594 C 8.632812 140.230469 8.949219 140.046875 9.683594 139.96875 C 7.5 138.390625 6.238281 135.605469 6.34375 135.132812 C 6.367188 135.128906 6.390625 135.128906 6.410156 135.125 C 6.40625 135.117188 6.402344 135.113281 6.398438 135.105469 C 6.410156 135.113281 6.417969 135.117188 6.429688 135.125 C 6.785156 135.101562 7.222656 135.082031 7.660156 135.132812 C 6.160156 133.683594 0.324219 125.953125 0.0078125 124.167969 C 0.0273438 124.167969 0.046875 124.171875 0.0664062 124.171875 C 0.0625 124.171875 0.0625 124.167969 0.0625 124.167969 C 0.0664062 124.167969 0.0703125 124.171875 0.0742188 124.175781 C 2.03125 124.410156 10.148438 129.308594 11.710938 130.636719 C 11.605469 130.1875 11.578125 129.714844 11.550781 129.347656 C 12.023438 129.1875 14.917969 130.160156 16.730469 132.160156 C 16.730469 131.398438 16.886719 131.082031 16.941406 130.6875 C 16.957031 130.691406 16.976562 130.695312 17 130.703125 C 16.996094 130.695312 16.996094 130.691406 16.992188 130.6875 C 17 130.695312 17.007812 130.699219 17.011719 130.707031 C 18.136719 131.046875 22.414062 134.335938 22.566406 135.210938 C 22.644531 134.339844 22.75 133.105469 22.988281 132.660156 C 23.226562 132.210938 27.300781 135.789062 27.957031 138.496094 C 28.230469 137.574219 28.296875 135.257812 28.691406 135.375 C 28.691406 135.371094 28.695312 135.371094 28.695312 135.367188 C 28.695312 135.371094 28.695312 135.371094 28.695312 135.375 C 29.179688 135.515625 32.511719 138.339844 32.796875 140.890625 C 33.425781 140.101562 33.214844 138.679688 33.742188 138.339844 C 34.269531 137.996094 37.054688 141.914062 37.710938 144.78125 C 38.054688 144.648438 38.210938 142.964844 38.421875 142.335938 C 38.632812 141.703125 41.628906 143.808594 41.789062 148.460938 C 42.285156 148.09375 42.679688 146.882812 42.996094 146.699219 C 43.546875 146.382812 44.941406 148.59375 45.96875 152.0625 C 46.492188 151.566406 46.167969 150.1875 46.886719 150.332031 L 46.886719 150.328125 L 46.890625 150.332031 C 47.621094 150.457031 49.496094 153.285156 49.78125 156.347656 C 50.199219 156.113281 50.515625 155.429688 51.070312 155.402344 C 51.277344 155.390625 51.570312 155.929688 51.902344 156.675781 C 52.078125 156.722656 52.273438 156.765625 52.515625 156.714844 C 51.988281 154.929688 49.570312 150.933594 50.015625 150.460938 C 50.464844 149.984375 51.332031 150.273438 51.855469 150.0625 C 49.359375 147.355469 48.359375 143.414062 48.886719 142.753906 C 49.414062 142.097656 50.253906 143.441406 51.121094 143.359375 C 48.886719 139.730469 48.042969 136.761719 48.753906 136.523438 C 49.148438 136.417969 50.515625 136.996094 51.253906 136.867188 C 47.394531 133.136719 47.730469 128.714844 48.617188 129.144531 C 48.617188 129.125 48.621094 129.105469 48.621094 129.082031 C 48.632812 129.113281 48.648438 129.140625 48.660156 129.164062 C 49.414062 129.542969 50.878906 130.625 51.253906 130.425781 C 49.328125 127.679688 47.949219 122.03125 48.808594 121.867188 C 48.808594 121.863281 48.808594 121.859375 48.808594 121.851562 C 48.808594 121.859375 48.8125 121.859375 48.816406 121.867188 C 49.550781 121.742188 50.574219 122.984375 51.726562 123.0625 C 49.675781 120.75 49.886719 115.4375 50.148438 115.097656 C 50.410156 114.753906 52.4375 116.464844 53.433594 116.9375 C 51.609375 114.273438 51.605469 107.8125 52.304688 108.011719 C 52.304688 108.007812 52.304688 108.003906 52.304688 107.996094 C 52.308594 108.003906 52.3125 108.007812 52.316406 108.015625 C 52.933594 108.191406 54.039062 109.042969 54.828125 109.652344 C 54.171875 108.785156 54.695312 102.210938 55.300781 101.160156 C 55.308594 101.167969 55.320312 101.171875 55.328125 101.179688 C 55.328125 101.171875 55.328125 101.167969 55.328125 101.160156 C 55.332031 101.171875 55.339844 101.179688 55.34375 101.1875 C 55.726562 101.433594 56.113281 101.578125 56.746094 102.160156 C 56.40625 99.003906 57.851562 95.71875 58.351562 95.429688 L 58.367188 95.445312 C 58.371094 95.429688 58.375 95.417969 58.378906 95.402344 C 58.382812 95.425781 58.390625 95.449219 58.398438 95.472656 C 58.679688 95.757812 59.050781 96.136719 59.378906 96.585938 C 59.429688 94.140625 61.613281 82.964844 62.925781 81.257812 C 62.929688 81.265625 62.9375 81.273438 62.941406 81.277344 C 62.945312 81.261719 62.949219 81.246094 62.953125 81.230469 C 62.960938 81.261719 62.96875 81.292969 62.976562 81.324219 C 64.292969 83.238281 66.398438 94.171875 66.476562 96.585938 C 66.816406 96.113281 67.210938 95.71875 67.5 95.429688 C 67.976562 95.71875 69.449219 99.003906 69.105469 102.160156 C 69.75 101.570312 70.140625 101.429688 70.527344 101.175781 C 70.535156 101.164062 70.542969 101.148438 70.550781 101.132812 C 70.550781 101.144531 70.550781 101.152344 70.550781 101.160156 C 71.15625 102.210938 71.683594 108.785156 71.023438 109.652344 C 71.855469 109.03125 72.964844 108.152344 73.578125 108.003906 C 73.585938 107.992188 73.59375 107.980469 73.601562 107.96875 C 73.601562 107.980469 73.597656 107.988281 73.597656 108 C 74.183594 107.707031 74.296875 114.171875 72.417969 116.9375 C 73.375 116.496094 75.371094 114.816406 75.6875 115.082031 C 75.695312 115.078125 75.699219 115.074219 75.703125 115.070312 C 75.703125 115.074219 75.699219 115.082031 75.695312 115.085938 C 75.984375 115.46875 76.164062 120.765625 74.128906 123.0625 C 75.285156 123.011719 76.316406 121.753906 77.046875 121.871094 C 77.054688 121.863281 77.0625 121.859375 77.070312 121.851562 C 77.070312 121.859375 77.066406 121.867188 77.0625 121.871094 C 77.882812 122.046875 76.527344 127.648438 74.601562 130.425781 C 74.984375 130.628906 76.503906 129.523438 77.242188 129.144531 C 77.253906 129.121094 77.269531 129.105469 77.28125 129.082031 C 77.28125 129.097656 77.277344 129.113281 77.277344 129.125 C 78.085938 128.789062 78.476562 133.121094 74.601562 136.867188 C 75.289062 136.992188 76.613281 136.429688 77.054688 136.511719 L 77.070312 136.496094 C 77.070312 136.503906 77.070312 136.511719 77.066406 136.515625 C 77.882812 136.71875 76.84375 139.910156 74.730469 143.359375 C 75.574219 143.414062 76.441406 142.097656 76.964844 142.753906 C 77.492188 143.414062 76.492188 147.355469 73.996094 150.0625 C 74.394531 150.203125 74.972656 150.089844 75.433594 150.226562 C 75.4375 150.226562 75.441406 150.222656 75.441406 150.222656 C 75.441406 150.222656 75.441406 150.226562 75.441406 150.230469 C 75.585938 150.273438 75.722656 150.34375 75.835938 150.460938 C 76.308594 150.933594 73.863281 154.929688 73.339844 156.714844 C 73.597656 156.769531 73.808594 156.714844 73.996094 156.664062 C 73.996094 156.664062 74.257812 156.058594 74.257812 156.058594 C 74.3125 155.980469 74.335938 155.929688 74.390625 155.847656 C 74.390625 155.855469 74.390625 155.859375 74.390625 155.867188 C 75.019531 154.785156 75.535156 156.09375 76.097656 156.375 C 76.375 153.128906 78.234375 150.96875 78.28125 150.878906 L 78.28125 150.902344 C 79.695312 149.28125 79.410156 151.613281 79.910156 152.089844 C 80.988281 148.421875 82.421875 146.300781 82.902344 146.714844 C 82.90625 146.707031 82.90625 146.703125 82.910156 146.699219 L 82.910156 146.71875 C 83.222656 146.949219 83.605469 148.078125 84.09375 148.460938 C 84.25 143.800781 87.269531 141.671875 87.464844 142.355469 C 87.46875 142.347656 87.476562 142.339844 87.484375 142.335938 C 87.476562 142.347656 87.472656 142.359375 87.46875 142.367188 C 87.671875 143.023438 87.832031 144.652344 88.167969 144.78125 C 88.824219 141.914062 91.585938 137.996094 92.136719 138.339844 C 92.691406 138.679688 92.453125 140.097656 93.085938 140.890625 C 93.371094 138.289062 96.839844 135.394531 97.210938 135.367188 C 97.582031 135.339844 97.660156 137.601562 97.921875 138.496094 C 98.578125 135.789062 102.601562 132.238281 102.863281 132.683594 C 102.863281 132.6875 102.867188 132.6875 102.867188 132.6875 C 102.875 132.679688 102.882812 132.667969 102.890625 132.660156 C 102.886719 132.675781 102.882812 132.695312 102.878906 132.714844 C 103.128906 133.183594 103.207031 134.382812 103.285156 135.234375 C 103.46875 134.339844 107.914062 130.949219 108.914062 130.714844 C 108.921875 130.703125 108.929688 130.695312 108.9375 130.6875 C 108.929688 130.707031 108.925781 130.730469 108.921875 130.75 C 109 131.128906 109.121094 131.449219 109.121094 132.183594 C 110.894531 130.234375 113.695312 129.285156 114.265625 129.367188 C 114.277344 129.359375 114.289062 129.351562 114.300781 129.347656 C 114.296875 129.351562 114.289062 129.363281 114.285156 129.371094 C 114.289062 129.371094 114.296875 129.371094 114.300781 129.371094 C 114.273438 129.714844 114.25 130.1875 114.144531 130.660156 C 115.703125 129.335938 123.847656 124.433594 125.78125 124.199219 C 125.800781 124.1875 125.824219 124.179688 125.84375 124.167969 C 125.839844 124.175781 125.832031 124.183594 125.824219 124.195312 C 125.832031 124.195312 125.839844 124.191406 125.84375 124.191406 C 125.527344 126.007812 119.691406 133.738281 118.191406 135.15625 Z M 118.191406 135.15625 "/></g><g style="fill:#b6889e;fill-opacity:1;"><g transform="translate(103.547826, 223.753579)"><path style="stroke:none" d="M 5.96875 -9.6875 C 6.800781 -9.6875 7.539062 -9.472656 8.1875 -9.046875 C 8.84375 -8.628906 9.359375 -8.050781 9.734375 -7.3125 C 10.117188 -6.582031 10.3125 -5.738281 10.3125 -4.78125 C 10.3125 -3.84375 10.117188 -2.992188 9.734375 -2.234375 C 9.359375 -1.484375 8.84375 -0.890625 8.1875 -0.453125 C 7.53125 -0.0234375 6.796875 0.1875 5.984375 0.1875 C 5.546875 0.1875 5.132812 0.117188 4.75 -0.015625 C 4.363281 -0.148438 4.007812 -0.332031 3.6875 -0.5625 C 3.363281 -0.789062 3.078125 -1.054688 2.828125 -1.359375 C 2.585938 -1.671875 2.390625 -2.007812 2.234375 -2.375 L 2.578125 -2.609375 L 2.578125 -0.515625 C 2.578125 -0.359375 2.523438 -0.226562 2.421875 -0.125 C 2.316406 -0.0195312 2.179688 0.03125 2.015625 0.03125 C 1.859375 0.03125 1.726562 -0.0195312 1.625 -0.125 C 1.519531 -0.226562 1.46875 -0.359375 1.46875 -0.515625 L 1.46875 -13.125 C 1.46875 -13.289062 1.515625 -13.425781 1.609375 -13.53125 C 1.710938 -13.632812 1.847656 -13.6875 2.015625 -13.6875 C 2.179688 -13.6875 2.316406 -13.632812 2.421875 -13.53125 C 2.523438 -13.425781 2.578125 -13.289062 2.578125 -13.125 L 2.578125 -6.921875 L 2.3125 -7.078125 C 2.4375 -7.453125 2.617188 -7.796875 2.859375 -8.109375 C 3.097656 -8.429688 3.378906 -8.707031 3.703125 -8.9375 C 4.023438 -9.175781 4.375 -9.359375 4.75 -9.484375 C 5.132812 -9.617188 5.539062 -9.6875 5.96875 -9.6875 Z M 5.875 -8.640625 C 5.207031 -8.640625 4.617188 -8.472656 4.109375 -8.140625 C 3.597656 -7.804688 3.195312 -7.347656 2.90625 -6.765625 C 2.625 -6.191406 2.484375 -5.53125 2.484375 -4.78125 C 2.484375 -4.039062 2.625 -3.367188 2.90625 -2.765625 C 3.195312 -2.171875 3.597656 -1.703125 4.109375 -1.359375 C 4.617188 -1.023438 5.207031 -0.859375 5.875 -0.859375 C 6.519531 -0.859375 7.09375 -1.03125 7.59375 -1.375 C 8.09375 -1.71875 8.488281 -2.1875 8.78125 -2.78125 C 9.082031 -3.382812 9.234375 -4.050781 9.234375 -4.78125 C 9.234375 -5.53125 9.082031 -6.191406 8.78125 -6.765625 C 8.488281 -7.347656 8.09375 -7.804688 7.59375 -8.140625 C 7.09375 -8.472656 6.519531 -8.640625 5.875 -8.640625 Z M 5.875 -8.640625 "/></g></g><g style="fill:#b6889e;fill-opacity:1;"><g transform="translate(126.843132, 223.753579)"><path style="stroke:none" d="M 10.28125 -4.734375 C 10.28125 -3.796875 10.070312 -2.953125 9.65625 -2.203125 C 9.25 -1.460938 8.691406 -0.878906 7.984375 -0.453125 C 7.285156 -0.0234375 6.488281 0.1875 5.59375 0.1875 C 4.71875 0.1875 3.921875 -0.0234375 3.203125 -0.453125 C 2.492188 -0.878906 1.929688 -1.460938 1.515625 -2.203125 C 1.109375 -2.953125 0.90625 -3.796875 0.90625 -4.734375 C 0.90625 -5.691406 1.109375 -6.539062 1.515625 -7.28125 C 1.929688 -8.019531 2.492188 -8.601562 3.203125 -9.03125 C 3.921875 -9.46875 4.71875 -9.6875 5.59375 -9.6875 C 6.488281 -9.6875 7.285156 -9.46875 7.984375 -9.03125 C 8.691406 -8.601562 9.25 -8.019531 9.65625 -7.28125 C 10.070312 -6.539062 10.28125 -5.691406 10.28125 -4.734375 Z M 9.171875 -4.734375 C 9.171875 -5.492188 9.015625 -6.164062 8.703125 -6.75 C 8.390625 -7.332031 7.960938 -7.789062 7.421875 -8.125 C 6.890625 -8.46875 6.28125 -8.640625 5.59375 -8.640625 C 4.925781 -8.640625 4.320312 -8.46875 3.78125 -8.125 C 3.238281 -7.789062 2.804688 -7.332031 2.484375 -6.75 C 2.171875 -6.164062 2.015625 -5.492188 2.015625 -4.734375 C 2.015625 -3.984375 2.171875 -3.316406 2.484375 -2.734375 C 2.804688 -2.160156 3.238281 -1.703125 3.78125 -1.359375 C 4.320312 -1.023438 4.925781 -0.859375 5.59375 -0.859375 C 6.28125 -0.859375 6.890625 -1.023438 7.421875 -1.359375 C 7.960938 -1.703125 8.390625 -2.160156 8.703125 -2.734375 C 9.015625 -3.316406 9.171875 -3.984375 9.171875 -4.734375 Z M 9.171875 -4.734375 "/></g></g><g style="fill:#b6889e;fill-opacity:1;"><g transform="translate(150.101404, 223.753579)"><path style="stroke:none" d="M 0.859375 -9.421875 L 5.171875 -9.421875 C 5.316406 -9.421875 5.4375 -9.367188 5.53125 -9.265625 C 5.632812 -9.160156 5.6875 -9.035156 5.6875 -8.890625 C 5.6875 -8.753906 5.632812 -8.632812 5.53125 -8.53125 C 5.4375 -8.4375 5.316406 -8.390625 5.171875 -8.390625 L 0.859375 -8.390625 C 0.703125 -8.390625 0.570312 -8.441406 0.46875 -8.546875 C 0.363281 -8.648438 0.3125 -8.769531 0.3125 -8.90625 C 0.3125 -9.050781 0.363281 -9.171875 0.46875 -9.265625 C 0.570312 -9.367188 0.703125 -9.421875 0.859375 -9.421875 Z M 2.765625 -12.03125 C 2.921875 -12.03125 3.050781 -11.972656 3.15625 -11.859375 C 3.257812 -11.753906 3.3125 -11.628906 3.3125 -11.484375 L 3.3125 -2.1875 C 3.3125 -1.84375 3.359375 -1.582031 3.453125 -1.40625 C 3.546875 -1.226562 3.664062 -1.113281 3.8125 -1.0625 C 3.957031 -1.007812 4.109375 -0.984375 4.265625 -0.984375 C 4.359375 -0.984375 4.441406 -1 4.515625 -1.03125 C 4.597656 -1.0625 4.691406 -1.078125 4.796875 -1.078125 C 4.910156 -1.078125 5.003906 -1.03125 5.078125 -0.9375 C 5.160156 -0.851562 5.203125 -0.742188 5.203125 -0.609375 C 5.203125 -0.441406 5.101562 -0.296875 4.90625 -0.171875 C 4.707031 -0.0546875 4.472656 0 4.203125 0 C 4.085938 0 3.921875 -0.0078125 3.703125 -0.03125 C 3.484375 -0.0507812 3.253906 -0.117188 3.015625 -0.234375 C 2.785156 -0.347656 2.59375 -0.550781 2.4375 -0.84375 C 2.28125 -1.144531 2.203125 -1.570312 2.203125 -2.125 L 2.203125 -11.484375 C 2.203125 -11.628906 2.253906 -11.753906 2.359375 -11.859375 C 2.460938 -11.972656 2.597656 -12.03125 2.765625 -12.03125 Z M 2.765625 -12.03125 "/></g></g><g style="fill:#b6889e;fill-opacity:1;"><g transform="translate(168.453035, 223.753579)"><path style="stroke:none" d="M 9.21875 -9.46875 C 9.382812 -9.46875 9.519531 -9.410156 9.625 -9.296875 C 9.726562 -9.179688 9.78125 -9.046875 9.78125 -8.890625 L 9.78125 -0.5625 C 9.78125 -0.40625 9.722656 -0.269531 9.609375 -0.15625 C 9.492188 -0.0507812 9.363281 0 9.21875 0 C 9.0625 0 8.929688 -0.0507812 8.828125 -0.15625 C 8.722656 -0.269531 8.671875 -0.40625 8.671875 -0.5625 L 8.671875 -2.765625 L 8.984375 -2.90625 C 8.984375 -2.5625 8.882812 -2.207031 8.6875 -1.84375 C 8.5 -1.488281 8.238281 -1.15625 7.90625 -0.84375 C 7.570312 -0.539062 7.175781 -0.289062 6.71875 -0.09375 C 6.269531 0.09375 5.789062 0.1875 5.28125 0.1875 C 4.4375 0.1875 3.679688 -0.0234375 3.015625 -0.453125 C 2.359375 -0.890625 1.84375 -1.484375 1.46875 -2.234375 C 1.09375 -2.992188 0.90625 -3.84375 0.90625 -4.78125 C 0.90625 -5.738281 1.097656 -6.582031 1.484375 -7.3125 C 1.867188 -8.050781 2.382812 -8.628906 3.03125 -9.046875 C 3.6875 -9.472656 4.429688 -9.6875 5.265625 -9.6875 C 5.785156 -9.6875 6.273438 -9.59375 6.734375 -9.40625 C 7.203125 -9.21875 7.609375 -8.960938 7.953125 -8.640625 C 8.304688 -8.328125 8.578125 -7.960938 8.765625 -7.546875 C 8.953125 -7.128906 9.046875 -6.703125 9.046875 -6.265625 L 8.671875 -6.53125 L 8.671875 -8.890625 C 8.671875 -9.046875 8.722656 -9.179688 8.828125 -9.296875 C 8.929688 -9.410156 9.0625 -9.46875 9.21875 -9.46875 Z M 5.375 -0.859375 C 6.019531 -0.859375 6.597656 -1.023438 7.109375 -1.359375 C 7.617188 -1.703125 8.015625 -2.171875 8.296875 -2.765625 C 8.585938 -3.367188 8.734375 -4.039062 8.734375 -4.78125 C 8.734375 -5.507812 8.585938 -6.160156 8.296875 -6.734375 C 8.015625 -7.316406 7.617188 -7.78125 7.109375 -8.125 C 6.597656 -8.46875 6.019531 -8.640625 5.375 -8.640625 C 4.726562 -8.640625 4.148438 -8.472656 3.640625 -8.140625 C 3.128906 -7.804688 2.726562 -7.347656 2.4375 -6.765625 C 2.144531 -6.191406 2 -5.53125 2 -4.78125 C 2 -4.039062 2.144531 -3.367188 2.4375 -2.765625 C 2.726562 -2.171875 3.125 -1.703125 3.625 -1.359375 C 4.132812 -1.023438 4.71875 -0.859375 5.375 -0.859375 Z M 5.375 -0.859375 "/></g></g><g style="fill:#b6889e;fill-opacity:1;"><g transform="translate(191.748341, 223.753579)"><path style="stroke:none" d="M 5.921875 -9.6875 C 6.734375 -9.6875 7.382812 -9.519531 7.875 -9.1875 C 8.363281 -8.863281 8.710938 -8.421875 8.921875 -7.859375 C 9.140625 -7.296875 9.25 -6.675781 9.25 -6 L 9.25 -0.5625 C 9.25 -0.40625 9.191406 -0.269531 9.078125 -0.15625 C 8.972656 -0.0507812 8.847656 0 8.703125 0 C 8.523438 0 8.382812 -0.0507812 8.28125 -0.15625 C 8.1875 -0.269531 8.140625 -0.40625 8.140625 -0.5625 L 8.140625 -5.9375 C 8.140625 -6.4375 8.0625 -6.890625 7.90625 -7.296875 C 7.75 -7.703125 7.488281 -8.023438 7.125 -8.265625 C 6.757812 -8.515625 6.28125 -8.640625 5.6875 -8.640625 C 5.15625 -8.640625 4.648438 -8.515625 4.171875 -8.265625 C 3.703125 -8.023438 3.316406 -7.703125 3.015625 -7.296875 C 2.722656 -6.890625 2.578125 -6.4375 2.578125 -5.9375 L 2.578125 -0.5625 C 2.578125 -0.40625 2.519531 -0.269531 2.40625 -0.15625 C 2.289062 -0.0507812 2.160156 0 2.015625 0 C 1.847656 0 1.710938 -0.0507812 1.609375 -0.15625 C 1.515625 -0.269531 1.46875 -0.40625 1.46875 -0.5625 L 1.46875 -8.84375 C 1.46875 -9 1.519531 -9.128906 1.625 -9.234375 C 1.726562 -9.347656 1.859375 -9.40625 2.015625 -9.40625 C 2.179688 -9.40625 2.316406 -9.347656 2.421875 -9.234375 C 2.523438 -9.128906 2.578125 -9 2.578125 -8.84375 L 2.578125 -7.296875 L 2.140625 -6.625 C 2.171875 -7.019531 2.300781 -7.398438 2.53125 -7.765625 C 2.757812 -8.128906 3.050781 -8.457031 3.40625 -8.75 C 3.757812 -9.039062 4.15625 -9.269531 4.59375 -9.4375 C 5.039062 -9.601562 5.484375 -9.6875 5.921875 -9.6875 Z M 5.921875 -9.6875 "/></g></g><g style="fill:#b6889e;fill-opacity:1;"><g transform="translate(214.525206, 223.753579)"><path style="stroke:none" d="M 2.53125 -0.5625 C 2.53125 -0.40625 2.472656 -0.269531 2.359375 -0.15625 C 2.253906 -0.0507812 2.128906 0 1.984375 0 C 1.816406 0 1.679688 -0.0507812 1.578125 -0.15625 C 1.472656 -0.269531 1.421875 -0.40625 1.421875 -0.5625 L 1.421875 -9.078125 C 1.421875 -9.222656 1.472656 -9.347656 1.578125 -9.453125 C 1.679688 -9.566406 1.816406 -9.625 1.984375 -9.625 C 2.140625 -9.625 2.269531 -9.566406 2.375 -9.453125 C 2.476562 -9.347656 2.53125 -9.222656 2.53125 -9.078125 Z M 1.984375 -10.875 C 1.722656 -10.875 1.523438 -10.929688 1.390625 -11.046875 C 1.265625 -11.160156 1.203125 -11.332031 1.203125 -11.5625 L 1.203125 -11.734375 C 1.203125 -11.960938 1.273438 -12.132812 1.421875 -12.25 C 1.566406 -12.363281 1.757812 -12.421875 2 -12.421875 C 2.238281 -12.421875 2.421875 -12.363281 2.546875 -12.25 C 2.679688 -12.132812 2.75 -11.960938 2.75 -11.734375 L 2.75 -11.5625 C 2.75 -11.332031 2.679688 -11.160156 2.546875 -11.046875 C 2.421875 -10.929688 2.234375 -10.875 1.984375 -10.875 Z M 1.984375 -10.875 "/></g></g><g style="fill:#b6889e;fill-opacity:1;"><g transform="translate(230.562372, 223.753579)"><path style="stroke:none" d="M 5.625 -9.6875 C 6.21875 -9.6875 6.757812 -9.617188 7.25 -9.484375 C 7.75 -9.359375 8.148438 -9.179688 8.453125 -8.953125 C 8.753906 -8.734375 8.90625 -8.492188 8.90625 -8.234375 C 8.90625 -8.109375 8.859375 -7.988281 8.765625 -7.875 C 8.679688 -7.757812 8.566406 -7.703125 8.421875 -7.703125 C 8.273438 -7.703125 8.15625 -7.738281 8.0625 -7.8125 C 7.96875 -7.882812 7.875 -7.96875 7.78125 -8.0625 C 7.6875 -8.164062 7.554688 -8.257812 7.390625 -8.34375 C 7.222656 -8.425781 6.992188 -8.492188 6.703125 -8.546875 C 6.410156 -8.609375 6.070312 -8.640625 5.6875 -8.640625 C 4.988281 -8.640625 4.363281 -8.46875 3.8125 -8.125 C 3.257812 -7.78125 2.820312 -7.3125 2.5 -6.71875 C 2.175781 -6.132812 2.015625 -5.484375 2.015625 -4.765625 C 2.015625 -4.015625 2.164062 -3.34375 2.46875 -2.75 C 2.78125 -2.164062 3.207031 -1.703125 3.75 -1.359375 C 4.300781 -1.023438 4.941406 -0.859375 5.671875 -0.859375 C 6.160156 -0.859375 6.539062 -0.898438 6.8125 -0.984375 C 7.082031 -1.066406 7.316406 -1.164062 7.515625 -1.28125 C 7.753906 -1.414062 7.925781 -1.546875 8.03125 -1.671875 C 8.132812 -1.804688 8.269531 -1.875 8.4375 -1.875 C 8.601562 -1.875 8.722656 -1.828125 8.796875 -1.734375 C 8.878906 -1.640625 8.921875 -1.519531 8.921875 -1.375 C 8.921875 -1.175781 8.773438 -0.957031 8.484375 -0.71875 C 8.191406 -0.476562 7.789062 -0.265625 7.28125 -0.078125 C 6.78125 0.0976562 6.203125 0.1875 5.546875 0.1875 C 4.628906 0.1875 3.820312 -0.0234375 3.125 -0.453125 C 2.425781 -0.890625 1.878906 -1.476562 1.484375 -2.21875 C 1.097656 -2.96875 0.90625 -3.816406 0.90625 -4.765625 C 0.90625 -5.660156 1.101562 -6.476562 1.5 -7.21875 C 1.894531 -7.957031 2.445312 -8.550781 3.15625 -9 C 3.863281 -9.457031 4.6875 -9.6875 5.625 -9.6875 Z M 5.625 -9.6875 "/></g></g><g style="fill:#b6889e;fill-opacity:1;"><g transform="translate(252.228302, 223.753579)"><path style="stroke:none" d="M 9.21875 -9.46875 C 9.382812 -9.46875 9.519531 -9.410156 9.625 -9.296875 C 9.726562 -9.179688 9.78125 -9.046875 9.78125 -8.890625 L 9.78125 -0.5625 C 9.78125 -0.40625 9.722656 -0.269531 9.609375 -0.15625 C 9.492188 -0.0507812 9.363281 0 9.21875 0 C 9.0625 0 8.929688 -0.0507812 8.828125 -0.15625 C 8.722656 -0.269531 8.671875 -0.40625 8.671875 -0.5625 L 8.671875 -2.765625 L 8.984375 -2.90625 C 8.984375 -2.5625 8.882812 -2.207031 8.6875 -1.84375 C 8.5 -1.488281 8.238281 -1.15625 7.90625 -0.84375 C 7.570312 -0.539062 7.175781 -0.289062 6.71875 -0.09375 C 6.269531 0.09375 5.789062 0.1875 5.28125 0.1875 C 4.4375 0.1875 3.679688 -0.0234375 3.015625 -0.453125 C 2.359375 -0.890625 1.84375 -1.484375 1.46875 -2.234375 C 1.09375 -2.992188 0.90625 -3.84375 0.90625 -4.78125 C 0.90625 -5.738281 1.097656 -6.582031 1.484375 -7.3125 C 1.867188 -8.050781 2.382812 -8.628906 3.03125 -9.046875 C 3.6875 -9.472656 4.429688 -9.6875 5.265625 -9.6875 C 5.785156 -9.6875 6.273438 -9.59375 6.734375 -9.40625 C 7.203125 -9.21875 7.609375 -8.960938 7.953125 -8.640625 C 8.304688 -8.328125 8.578125 -7.960938 8.765625 -7.546875 C 8.953125 -7.128906 9.046875 -6.703125 9.046875 -6.265625 L 8.671875 -6.53125 L 8.671875 -8.890625 C 8.671875 -9.046875 8.722656 -9.179688 8.828125 -9.296875 C 8.929688 -9.410156 9.0625 -9.46875 9.21875 -9.46875 Z M 5.375 -0.859375 C 6.019531 -0.859375 6.597656 -1.023438 7.109375 -1.359375 C 7.617188 -1.703125 8.015625 -2.171875 8.296875 -2.765625 C 8.585938 -3.367188 8.734375 -4.039062 8.734375 -4.78125 C 8.734375 -5.507812 8.585938 -6.160156 8.296875 -6.734375 C 8.015625 -7.316406 7.617188 -7.78125 7.109375 -8.125 C 6.597656 -8.46875 6.019531 -8.640625 5.375 -8.640625 C 4.726562 -8.640625 4.148438 -8.472656 3.640625 -8.140625 C 3.128906 -7.804688 2.726562 -7.347656 2.4375 -6.765625 C 2.144531 -6.191406 2 -5.53125 2 -4.78125 C 2 -4.039062 2.144531 -3.367188 2.4375 -2.765625 C 2.726562 -2.171875 3.125 -1.703125 3.625 -1.359375 C 4.132812 -1.023438 4.71875 -0.859375 5.375 -0.859375 Z M 5.375 -0.859375 "/></g></g><g style="fill:#b6889e;fill-opacity:1;"><g transform="translate(275.523608, 223.753579)"><path style="stroke:none" d="M 2.6875 -0.5625 C 2.6875 -0.40625 2.628906 -0.269531 2.515625 -0.15625 C 2.398438 -0.0507812 2.269531 0 2.125 0 C 1.96875 0 1.835938 -0.0507812 1.734375 -0.15625 C 1.628906 -0.269531 1.578125 -0.40625 1.578125 -0.5625 L 1.578125 -13.140625 C 1.578125 -13.296875 1.628906 -13.425781 1.734375 -13.53125 C 1.847656 -13.644531 1.976562 -13.703125 2.125 -13.703125 C 2.289062 -13.703125 2.425781 -13.644531 2.53125 -13.53125 C 2.632812 -13.425781 2.6875 -13.296875 2.6875 -13.140625 Z M 2.6875 -0.5625 "/></g></g><g style="fill:#b6889e;fill-opacity:1;"><g transform="translate(130.336887, 249.253577)"><path style="stroke:none" d="M 5.40625 -9.6875 C 5.957031 -9.6875 6.46875 -9.585938 6.9375 -9.390625 C 7.40625 -9.203125 7.816406 -8.957031 8.171875 -8.65625 C 8.523438 -8.351562 8.800781 -8.03125 9 -7.6875 C 9.195312 -7.351562 9.296875 -7.03125 9.296875 -6.71875 L 8.984375 -7.171875 L 8.984375 -8.890625 C 8.984375 -9.046875 9.035156 -9.179688 9.140625 -9.296875 C 9.242188 -9.410156 9.375 -9.46875 9.53125 -9.46875 C 9.707031 -9.46875 9.84375 -9.410156 9.9375 -9.296875 C 10.039062 -9.179688 10.09375 -9.046875 10.09375 -8.890625 L 10.09375 -0.875 C 10.09375 0.113281 9.890625 0.945312 9.484375 1.625 C 9.078125 2.300781 8.523438 2.816406 7.828125 3.171875 C 7.128906 3.523438 6.332031 3.703125 5.4375 3.703125 C 5.007812 3.703125 4.554688 3.644531 4.078125 3.53125 C 3.609375 3.425781 3.203125 3.285156 2.859375 3.109375 C 2.515625 2.929688 2.328125 2.753906 2.296875 2.578125 C 2.191406 2.460938 2.144531 2.351562 2.15625 2.25 C 2.164062 2.144531 2.21875 2.054688 2.3125 1.984375 C 2.4375 1.890625 2.566406 1.878906 2.703125 1.953125 C 2.835938 2.023438 3.039062 2.113281 3.3125 2.21875 C 3.4375 2.257812 3.601562 2.316406 3.8125 2.390625 C 4.019531 2.460938 4.269531 2.523438 4.5625 2.578125 C 4.851562 2.640625 5.160156 2.671875 5.484375 2.671875 C 6.585938 2.671875 7.445312 2.351562 8.0625 1.71875 C 8.675781 1.082031 8.984375 0.242188 8.984375 -0.796875 L 8.984375 -2.578125 L 9.1875 -2.515625 C 9.070312 -2.066406 8.890625 -1.675781 8.640625 -1.34375 C 8.390625 -1.019531 8.085938 -0.742188 7.734375 -0.515625 C 7.390625 -0.285156 7.015625 -0.113281 6.609375 0 C 6.210938 0.125 5.816406 0.1875 5.421875 0.1875 C 4.566406 0.1875 3.800781 -0.0234375 3.125 -0.453125 C 2.445312 -0.890625 1.90625 -1.476562 1.5 -2.21875 C 1.101562 -2.957031 0.90625 -3.804688 0.90625 -4.765625 C 0.90625 -5.703125 1.101562 -6.539062 1.5 -7.28125 C 1.90625 -8.03125 2.441406 -8.617188 3.109375 -9.046875 C 3.785156 -9.472656 4.550781 -9.6875 5.40625 -9.6875 Z M 5.53125 -8.640625 C 4.851562 -8.640625 4.242188 -8.46875 3.703125 -8.125 C 3.171875 -7.789062 2.753906 -7.332031 2.453125 -6.75 C 2.148438 -6.164062 2 -5.503906 2 -4.765625 C 2 -4.015625 2.148438 -3.34375 2.453125 -2.75 C 2.753906 -2.164062 3.171875 -1.703125 3.703125 -1.359375 C 4.242188 -1.023438 4.851562 -0.859375 5.53125 -0.859375 C 6.207031 -0.859375 6.8125 -1.019531 7.34375 -1.34375 C 7.875 -1.675781 8.296875 -2.132812 8.609375 -2.71875 C 8.921875 -3.3125 9.078125 -3.992188 9.078125 -4.765625 C 9.078125 -5.523438 8.921875 -6.195312 8.609375 -6.78125 C 8.296875 -7.375 7.875 -7.832031 7.34375 -8.15625 C 6.8125 -8.476562 6.207031 -8.640625 5.53125 -8.640625 Z M 5.53125 -8.640625 "/></g></g><g style="fill:#b6889e;fill-opacity:1;"><g transform="translate(153.965467, 249.253577)"><path style="stroke:none" d="M 9.21875 -9.46875 C 9.382812 -9.46875 9.519531 -9.410156 9.625 -9.296875 C 9.726562 -9.179688 9.78125 -9.046875 9.78125 -8.890625 L 9.78125 -0.5625 C 9.78125 -0.40625 9.722656 -0.269531 9.609375 -0.15625 C 9.492188 -0.0507812 9.363281 0 9.21875 0 C 9.0625 0 8.929688 -0.0507812 8.828125 -0.15625 C 8.722656 -0.269531 8.671875 -0.40625 8.671875 -0.5625 L 8.671875 -2.765625 L 8.984375 -2.90625 C 8.984375 -2.5625 8.882812 -2.207031 8.6875 -1.84375 C 8.5 -1.488281 8.238281 -1.15625 7.90625 -0.84375 C 7.570312 -0.539062 7.175781 -0.289062 6.71875 -0.09375 C 6.269531 0.09375 5.789062 0.1875 5.28125 0.1875 C 4.4375 0.1875 3.679688 -0.0234375 3.015625 -0.453125 C 2.359375 -0.890625 1.84375 -1.484375 1.46875 -2.234375 C 1.09375 -2.992188 0.90625 -3.84375 0.90625 -4.78125 C 0.90625 -5.738281 1.097656 -6.582031 1.484375 -7.3125 C 1.867188 -8.050781 2.382812 -8.628906 3.03125 -9.046875 C 3.6875 -9.472656 4.429688 -9.6875 5.265625 -9.6875 C 5.785156 -9.6875 6.273438 -9.59375 6.734375 -9.40625 C 7.203125 -9.21875 7.609375 -8.960938 7.953125 -8.640625 C 8.304688 -8.328125 8.578125 -7.960938 8.765625 -7.546875 C 8.953125 -7.128906 9.046875 -6.703125 9.046875 -6.265625 L 8.671875 -6.53125 L 8.671875 -8.890625 C 8.671875 -9.046875 8.722656 -9.179688 8.828125 -9.296875 C 8.929688 -9.410156 9.0625 -9.46875 9.21875 -9.46875 Z M 5.375 -0.859375 C 6.019531 -0.859375 6.597656 -1.023438 7.109375 -1.359375 C 7.617188 -1.703125 8.015625 -2.171875 8.296875 -2.765625 C 8.585938 -3.367188 8.734375 -4.039062 8.734375 -4.78125 C 8.734375 -5.507812 8.585938 -6.160156 8.296875 -6.734375 C 8.015625 -7.316406 7.617188 -7.78125 7.109375 -8.125 C 6.597656 -8.46875 6.019531 -8.640625 5.375 -8.640625 C 4.726562 -8.640625 4.148438 -8.472656 3.640625 -8.140625 C 3.128906 -7.804688 2.726562 -7.347656 2.4375 -6.765625 C 2.144531 -6.191406 2 -5.53125 2 -4.78125 C 2 -4.039062 2.144531 -3.367188 2.4375 -2.765625 C 2.726562 -2.171875 3.125 -1.703125 3.625 -1.359375 C 4.132812 -1.023438 4.71875 -0.859375 5.375 -0.859375 Z M 5.375 -0.859375 "/></g></g><g style="fill:#b6889e;fill-opacity:1;"><g transform="translate(177.260773, 249.253577)"><path style="stroke:none" d="M 2.015625 0 C 1.847656 0 1.710938 -0.0507812 1.609375 -0.15625 C 1.515625 -0.269531 1.46875 -0.40625 1.46875 -0.5625 L 1.46875 -8.84375 C 1.46875 -9 1.519531 -9.128906 1.625 -9.234375 C 1.726562 -9.347656 1.859375 -9.40625 2.015625 -9.40625 C 2.179688 -9.40625 2.316406 -9.347656 2.421875 -9.234375 C 2.523438 -9.128906 2.578125 -9 2.578125 -8.84375 L 2.578125 -6.078125 L 2.296875 -6.015625 C 2.328125 -6.453125 2.429688 -6.878906 2.609375 -7.296875 C 2.796875 -7.722656 3.039062 -8.113281 3.34375 -8.46875 C 3.65625 -8.832031 4.023438 -9.125 4.453125 -9.34375 C 4.878906 -9.570312 5.359375 -9.6875 5.890625 -9.6875 C 6.109375 -9.6875 6.320312 -9.640625 6.53125 -9.546875 C 6.738281 -9.453125 6.84375 -9.300781 6.84375 -9.09375 C 6.84375 -8.90625 6.789062 -8.757812 6.6875 -8.65625 C 6.59375 -8.5625 6.476562 -8.515625 6.34375 -8.515625 C 6.238281 -8.515625 6.117188 -8.546875 5.984375 -8.609375 C 5.859375 -8.671875 5.691406 -8.703125 5.484375 -8.703125 C 5.140625 -8.703125 4.789062 -8.597656 4.4375 -8.390625 C 4.09375 -8.191406 3.78125 -7.914062 3.5 -7.5625 C 3.21875 -7.21875 2.992188 -6.832031 2.828125 -6.40625 C 2.660156 -5.988281 2.578125 -5.5625 2.578125 -5.125 L 2.578125 -0.5625 C 2.578125 -0.40625 2.519531 -0.269531 2.40625 -0.15625 C 2.289062 -0.0507812 2.160156 0 2.015625 0 Z M 2.015625 0 "/></g></g><g style="fill:#b6889e;fill-opacity:1;"><g transform="translate(196.464118, 249.253577)"><path style="stroke:none" d="M 9.21875 -13.703125 C 9.382812 -13.703125 9.519531 -13.648438 9.625 -13.546875 C 9.726562 -13.441406 9.78125 -13.304688 9.78125 -13.140625 L 9.78125 -0.5625 C 9.78125 -0.40625 9.722656 -0.269531 9.609375 -0.15625 C 9.492188 -0.0507812 9.363281 0 9.21875 0 C 9.0625 0 8.929688 -0.0507812 8.828125 -0.15625 C 8.722656 -0.269531 8.671875 -0.40625 8.671875 -0.5625 L 8.671875 -2.765625 L 8.984375 -3.015625 C 8.984375 -2.671875 8.890625 -2.3125 8.703125 -1.9375 C 8.515625 -1.5625 8.25 -1.210938 7.90625 -0.890625 C 7.570312 -0.566406 7.175781 -0.304688 6.71875 -0.109375 C 6.269531 0.0859375 5.789062 0.1875 5.28125 0.1875 C 4.445312 0.1875 3.703125 -0.0234375 3.046875 -0.453125 C 2.390625 -0.890625 1.867188 -1.476562 1.484375 -2.21875 C 1.097656 -2.957031 0.90625 -3.804688 0.90625 -4.765625 C 0.90625 -5.703125 1.097656 -6.539062 1.484375 -7.28125 C 1.867188 -8.03125 2.382812 -8.617188 3.03125 -9.046875 C 3.6875 -9.472656 4.429688 -9.6875 5.265625 -9.6875 C 5.765625 -9.6875 6.242188 -9.59375 6.703125 -9.40625 C 7.160156 -9.21875 7.5625 -8.960938 7.90625 -8.640625 C 8.257812 -8.328125 8.535156 -7.960938 8.734375 -7.546875 C 8.941406 -7.128906 9.046875 -6.703125 9.046875 -6.265625 L 8.671875 -6.53125 L 8.671875 -13.140625 C 8.671875 -13.296875 8.722656 -13.425781 8.828125 -13.53125 C 8.929688 -13.644531 9.0625 -13.703125 9.21875 -13.703125 Z M 5.375 -0.859375 C 6.039062 -0.859375 6.625 -1.023438 7.125 -1.359375 C 7.625 -1.703125 8.015625 -2.164062 8.296875 -2.75 C 8.585938 -3.332031 8.734375 -4.003906 8.734375 -4.765625 C 8.734375 -5.503906 8.585938 -6.164062 8.296875 -6.75 C 8.015625 -7.332031 7.617188 -7.789062 7.109375 -8.125 C 6.597656 -8.46875 6.019531 -8.640625 5.375 -8.640625 C 4.726562 -8.640625 4.148438 -8.46875 3.640625 -8.125 C 3.128906 -7.789062 2.726562 -7.332031 2.4375 -6.75 C 2.144531 -6.164062 2 -5.503906 2 -4.765625 C 2 -4.015625 2.144531 -3.34375 2.4375 -2.75 C 2.726562 -2.164062 3.128906 -1.703125 3.640625 -1.359375 C 4.148438 -1.023438 4.726562 -0.859375 5.375 -0.859375 Z M 5.375 -0.859375 "/></g></g><g style="fill:#b6889e;fill-opacity:1;"><g transform="translate(219.759424, 249.253577)"><path style="stroke:none" d="M 5.734375 0.1875 C 4.785156 0.1875 3.945312 -0.015625 3.21875 -0.421875 C 2.488281 -0.828125 1.921875 -1.394531 1.515625 -2.125 C 1.109375 -2.851562 0.90625 -3.707031 0.90625 -4.6875 C 0.90625 -5.738281 1.109375 -6.632812 1.515625 -7.375 C 1.929688 -8.113281 2.46875 -8.679688 3.125 -9.078125 C 3.789062 -9.484375 4.492188 -9.6875 5.234375 -9.6875 C 5.773438 -9.6875 6.300781 -9.585938 6.8125 -9.390625 C 7.332031 -9.203125 7.789062 -8.921875 8.1875 -8.546875 C 8.59375 -8.171875 8.914062 -7.707031 9.15625 -7.15625 C 9.394531 -6.613281 9.523438 -5.988281 9.546875 -5.28125 C 9.535156 -5.132812 9.472656 -5.003906 9.359375 -4.890625 C 9.253906 -4.785156 9.128906 -4.734375 8.984375 -4.734375 L 1.5625 -4.734375 L 1.328125 -5.734375 L 8.625 -5.734375 L 8.390625 -5.515625 L 8.390625 -5.890625 C 8.335938 -6.472656 8.148438 -6.96875 7.828125 -7.375 C 7.503906 -7.78125 7.113281 -8.085938 6.65625 -8.296875 C 6.207031 -8.503906 5.734375 -8.609375 5.234375 -8.609375 C 4.867188 -8.609375 4.488281 -8.535156 4.09375 -8.390625 C 3.707031 -8.242188 3.359375 -8.007812 3.046875 -7.6875 C 2.734375 -7.375 2.476562 -6.972656 2.28125 -6.484375 C 2.082031 -6.003906 1.984375 -5.429688 1.984375 -4.765625 C 1.984375 -4.035156 2.128906 -3.375 2.421875 -2.78125 C 2.722656 -2.1875 3.15625 -1.71875 3.71875 -1.375 C 4.28125 -1.03125 4.945312 -0.859375 5.71875 -0.859375 C 6.15625 -0.859375 6.546875 -0.914062 6.890625 -1.03125 C 7.234375 -1.15625 7.535156 -1.316406 7.796875 -1.515625 C 8.054688 -1.722656 8.269531 -1.941406 8.4375 -2.171875 C 8.570312 -2.273438 8.707031 -2.328125 8.84375 -2.328125 C 8.96875 -2.328125 9.078125 -2.273438 9.171875 -2.171875 C 9.265625 -2.078125 9.3125 -1.96875 9.3125 -1.84375 C 9.3125 -1.695312 9.25 -1.570312 9.125 -1.46875 C 8.757812 -1.019531 8.28125 -0.628906 7.6875 -0.296875 C 7.09375 0.0234375 6.441406 0.1875 5.734375 0.1875 Z M 5.734375 0.1875 "/></g></g><g style="fill:#b6889e;fill-opacity:1;"><g transform="translate(242.295586, 249.253577)"><path style="stroke:none" d="M 5.921875 -9.6875 C 6.734375 -9.6875 7.382812 -9.519531 7.875 -9.1875 C 8.363281 -8.863281 8.710938 -8.421875 8.921875 -7.859375 C 9.140625 -7.296875 9.25 -6.675781 9.25 -6 L 9.25 -0.5625 C 9.25 -0.40625 9.191406 -0.269531 9.078125 -0.15625 C 8.972656 -0.0507812 8.847656 0 8.703125 0 C 8.523438 0 8.382812 -0.0507812 8.28125 -0.15625 C 8.1875 -0.269531 8.140625 -0.40625 8.140625 -0.5625 L 8.140625 -5.9375 C 8.140625 -6.4375 8.0625 -6.890625 7.90625 -7.296875 C 7.75 -7.703125 7.488281 -8.023438 7.125 -8.265625 C 6.757812 -8.515625 6.28125 -8.640625 5.6875 -8.640625 C 5.15625 -8.640625 4.648438 -8.515625 4.171875 -8.265625 C 3.703125 -8.023438 3.316406 -7.703125 3.015625 -7.296875 C 2.722656 -6.890625 2.578125 -6.4375 2.578125 -5.9375 L 2.578125 -0.5625 C 2.578125 -0.40625 2.519531 -0.269531 2.40625 -0.15625 C 2.289062 -0.0507812 2.160156 0 2.015625 0 C 1.847656 0 1.710938 -0.0507812 1.609375 -0.15625 C 1.515625 -0.269531 1.46875 -0.40625 1.46875 -0.5625 L 1.46875 -8.84375 C 1.46875 -9 1.519531 -9.128906 1.625 -9.234375 C 1.726562 -9.347656 1.859375 -9.40625 2.015625 -9.40625 C 2.179688 -9.40625 2.316406 -9.347656 2.421875 -9.234375 C 2.523438 -9.128906 2.578125 -9 2.578125 -8.84375 L 2.578125 -7.296875 L 2.140625 -6.625 C 2.171875 -7.019531 2.300781 -7.398438 2.53125 -7.765625 C 2.757812 -8.128906 3.050781 -8.457031 3.40625 -8.75 C 3.757812 -9.039062 4.15625 -9.269531 4.59375 -9.4375 C 5.039062 -9.601562 5.484375 -9.6875 5.921875 -9.6875 Z M 5.921875 -9.6875 "/></g></g><g style="fill:#362d3b;fill-opacity:1;"><g transform="translate(62.660574, 186.13134)"><path style="stroke:none" d="M 27.296875 -2.328125 L 15 -15.3125 L 15 -5.203125 C 14.945312 -3.441406 14.46875 -2.039062 13.5625 -1 C 12.65625 0.03125 11.425781 0.546875 9.875 0.546875 C 8.320312 0.546875 7.066406 0.015625 6.109375 -1.046875 C 5.148438 -2.109375 4.671875 -3.492188 4.671875 -5.203125 L 4.671875 -46.109375 C 4.722656 -47.867188 5.210938 -49.265625 6.140625 -50.296875 C 7.078125 -51.335938 8.320312 -51.859375 9.875 -51.859375 C 11.425781 -51.859375 12.664062 -51.328125 13.59375 -50.265625 C 14.53125 -49.203125 15 -47.816406 15 -46.109375 L 15 -25.34375 L 27.75 -35.375 L 28.609375 -36.15625 C 30.015625 -37.132812 31.335938 -37.625 32.578125 -37.625 C 33.921875 -37.625 35.097656 -37.09375 36.109375 -36.03125 C 37.117188 -34.96875 37.625 -33.738281 37.625 -32.34375 C 37.625 -30.53125 36.742188 -29 34.984375 -27.75 L 34.046875 -27.0625 L 24.1875 -19.90625 L 34.75 -9.71875 C 35.894531 -8.632812 36.660156 -7.753906 37.046875 -7.078125 C 37.429688 -6.398438 37.625 -5.625 37.625 -4.75 C 37.625 -3.238281 37.09375 -1.960938 36.03125 -0.921875 C 34.96875 0.109375 33.6875 0.625 32.1875 0.625 C 30.84375 0.625 29.46875 -0.078125 28.0625 -1.484375 Z M 27.296875 -2.328125 "/></g></g><g style="fill:#362d3b;fill-opacity:1;"><g transform="translate(102.775844, 186.13134)"><path style="stroke:none" d="M 33.90625 -6.375 C 33.90625 -5.03125 33.828125 -4.03125 33.671875 -3.375 C 33.515625 -2.726562 33.203125 -2.097656 32.734375 -1.484375 C 31.691406 -0.128906 30.289062 0.546875 28.53125 0.546875 C 27.445312 0.546875 26.515625 0.300781 25.734375 -0.1875 C 24.953125 -0.6875 24.28125 -1.503906 23.71875 -2.640625 C 22.207031 -1.453125 20.753906 -0.597656 19.359375 -0.078125 C 17.960938 0.441406 16.484375 0.703125 14.921875 0.703125 C 13.109375 0.703125 11.425781 0.363281 9.875 -0.3125 C 8.320312 -0.988281 6.960938 -1.929688 5.796875 -3.140625 C 4.628906 -4.359375 3.71875 -5.769531 3.0625 -7.375 C 2.414062 -8.988281 2.09375 -10.726562 2.09375 -12.59375 C 2.09375 -14.507812 2.441406 -16.296875 3.140625 -17.953125 C 3.847656 -19.617188 4.8125 -21.0625 6.03125 -22.28125 C 7.25 -23.5 8.671875 -24.457031 10.296875 -25.15625 C 11.929688 -25.851562 13.707031 -26.203125 15.625 -26.203125 C 16.925781 -26.203125 18.179688 -26.019531 19.390625 -25.65625 C 20.609375 -25.289062 21.921875 -24.75 23.328125 -24.03125 C 23.328125 -25.945312 22.972656 -27.289062 22.265625 -28.0625 C 21.566406 -28.84375 20.390625 -29.234375 18.734375 -29.234375 C 17.910156 -29.234375 16.976562 -29.101562 15.9375 -28.84375 L 13.453125 -28.140625 C 12.722656 -27.878906 12.113281 -27.710938 11.625 -27.640625 C 11.132812 -27.566406 10.679688 -27.53125 10.265625 -27.53125 C 9.066406 -27.53125 8.09375 -27.914062 7.34375 -28.6875 C 6.59375 -29.46875 6.21875 -30.453125 6.21875 -31.640625 C 6.21875 -33.660156 7.359375 -35.28125 9.640625 -36.5 C 11.921875 -37.71875 14.898438 -38.328125 18.578125 -38.328125 C 21.117188 -38.328125 23.4375 -37.976562 25.53125 -37.28125 C 27.632812 -36.582031 29.363281 -35.554688 30.71875 -34.203125 C 31.851562 -33.015625 32.664062 -31.550781 33.15625 -29.8125 C 33.65625 -28.082031 33.90625 -25.816406 33.90625 -23.015625 Z M 23.328125 -12.90625 C 23.328125 -14.40625 22.847656 -15.671875 21.890625 -16.703125 C 20.929688 -17.742188 19.695312 -18.265625 18.1875 -18.265625 C 16.789062 -18.265625 15.597656 -17.757812 14.609375 -16.75 C 13.628906 -15.738281 13.140625 -14.507812 13.140625 -13.0625 C 13.140625 -11.5625 13.628906 -10.316406 14.609375 -9.328125 C 15.597656 -8.347656 16.84375 -7.859375 18.34375 -7.859375 C 19.800781 -7.859375 20.992188 -8.335938 21.921875 -9.296875 C 22.859375 -10.253906 23.328125 -11.457031 23.328125 -12.90625 Z M 23.328125 -12.90625 "/></g></g><g style="fill:#362d3b;fill-opacity:1;"><g transform="translate(142.502404, 186.13134)"><path style="stroke:none" d="M 17.578125 -37.625 C 19.234375 -37.625 20.8125 -37.429688 22.3125 -37.046875 C 23.8125 -36.660156 25.117188 -36.128906 26.234375 -35.453125 C 27.347656 -34.773438 28.242188 -33.992188 28.921875 -33.109375 C 29.597656 -32.234375 29.9375 -31.304688 29.9375 -30.328125 C 29.9375 -29.128906 29.46875 -28.0625 28.53125 -27.125 C 27.601562 -26.195312 26.515625 -25.734375 25.265625 -25.734375 C 24.597656 -25.734375 23.9375 -25.847656 23.28125 -26.078125 C 22.632812 -26.316406 21.820312 -26.722656 20.84375 -27.296875 C 19.59375 -28.015625 18.707031 -28.488281 18.1875 -28.71875 C 17.675781 -28.957031 17.132812 -29.078125 16.5625 -29.078125 C 15.988281 -29.078125 15.519531 -28.894531 15.15625 -28.53125 C 14.789062 -28.164062 14.609375 -27.753906 14.609375 -27.296875 C 14.609375 -26.410156 15.050781 -25.707031 15.9375 -25.1875 C 16.820312 -24.664062 18.457031 -24.097656 20.84375 -23.484375 C 22.601562 -23.015625 23.945312 -22.609375 24.875 -22.265625 C 25.8125 -21.929688 26.695312 -21.554688 27.53125 -21.140625 C 29.132812 -20.265625 30.375 -19.035156 31.25 -17.453125 C 32.132812 -15.867188 32.578125 -14.09375 32.578125 -12.125 C 32.578125 -10.207031 32.210938 -8.457031 31.484375 -6.875 C 30.765625 -5.300781 29.742188 -3.941406 28.421875 -2.796875 C 27.097656 -1.660156 25.515625 -0.78125 23.671875 -0.15625 C 21.835938 0.46875 19.832031 0.78125 17.65625 0.78125 C 15.625 0.78125 13.675781 0.492188 11.8125 -0.078125 C 9.945312 -0.648438 8.289062 -1.398438 6.84375 -2.328125 C 5.394531 -3.265625 4.238281 -4.34375 3.375 -5.5625 C 2.519531 -6.78125 2.09375 -8.0625 2.09375 -9.40625 C 2.09375 -10.800781 2.554688 -12.03125 3.484375 -13.09375 C 4.421875 -14.15625 5.539062 -14.6875 6.84375 -14.6875 C 7.71875 -14.6875 8.582031 -14.46875 9.4375 -14.03125 C 10.300781 -13.59375 11.25 -12.929688 12.28125 -12.046875 C 13.0625 -11.378906 13.722656 -10.835938 14.265625 -10.421875 C 14.804688 -10.003906 15.296875 -9.675781 15.734375 -9.4375 C 16.179688 -9.207031 16.613281 -9.050781 17.03125 -8.96875 C 17.445312 -8.894531 17.910156 -8.859375 18.421875 -8.859375 C 19.460938 -8.859375 20.316406 -9.117188 20.984375 -9.640625 C 21.660156 -10.160156 22 -10.804688 22 -11.578125 C 22 -12.828125 20.859375 -13.710938 18.578125 -14.234375 C 17.128906 -14.585938 15.550781 -15.050781 13.84375 -15.625 C 12.132812 -16.195312 10.734375 -16.742188 9.640625 -17.265625 C 7.929688 -18.140625 6.554688 -19.40625 5.515625 -21.0625 C 4.484375 -22.726562 3.96875 -24.519531 3.96875 -26.4375 C 3.96875 -28.613281 4.628906 -30.632812 5.953125 -32.5 C 7.273438 -34.363281 9.050781 -35.738281 11.28125 -36.625 C 13.039062 -37.289062 15.140625 -37.625 17.578125 -37.625 Z M 17.578125 -37.625 "/></g></g><g style="fill:#362d3b;fill-opacity:1;"><g transform="translate(178.652823, 186.13134)"><path style="stroke:none" d="M 27.453125 -18.1875 L 27.453125 -31.5625 C 27.503906 -33.320312 27.992188 -34.71875 28.921875 -35.75 C 29.859375 -36.789062 31.101562 -37.3125 32.65625 -37.3125 C 34.15625 -37.3125 35.382812 -36.78125 36.34375 -35.71875 C 37.300781 -34.65625 37.78125 -33.269531 37.78125 -31.5625 L 37.78125 -17.34375 C 37.78125 -14.800781 37.492188 -12.597656 36.921875 -10.734375 C 36.359375 -8.867188 35.425781 -7.128906 34.125 -5.515625 C 32.570312 -3.546875 30.65625 -2.003906 28.375 -0.890625 C 26.09375 0.222656 23.707031 0.78125 21.21875 0.78125 C 18.320312 0.78125 15.5625 0.0390625 12.9375 -1.4375 C 10.320312 -2.914062 8.238281 -4.925781 6.6875 -7.46875 C 5.957031 -8.65625 5.398438 -10.128906 5.015625 -11.890625 C 4.628906 -13.660156 4.4375 -15.554688 4.4375 -17.578125 L 4.4375 -31.5625 C 4.488281 -33.320312 4.96875 -34.71875 5.875 -35.75 C 6.78125 -36.789062 8.007812 -37.3125 9.5625 -37.3125 C 11.113281 -37.3125 12.367188 -36.78125 13.328125 -35.71875 C 14.285156 -34.65625 14.765625 -33.269531 14.765625 -31.5625 L 14.765625 -18.5 C 14.765625 -16.945312 14.816406 -15.832031 14.921875 -15.15625 C 15.023438 -14.488281 15.207031 -13.84375 15.46875 -13.21875 C 15.9375 -12.175781 16.703125 -11.304688 17.765625 -10.609375 C 18.828125 -9.910156 19.953125 -9.5625 21.140625 -9.5625 C 22.960938 -9.5625 24.46875 -10.207031 25.65625 -11.5 C 26.851562 -12.800781 27.453125 -14.382812 27.453125 -16.25 Z M 27.453125 -18.1875 "/></g></g><g style="fill:#362d3b;fill-opacity:1;"><g transform="translate(222.344234, 186.13134)"><path style="stroke:none" d="M 4.4375 -6.375 L 4.4375 -21.921875 C 4.4375 -24.046875 4.863281 -26.050781 5.71875 -27.9375 C 6.570312 -29.832031 7.722656 -31.492188 9.171875 -32.921875 C 10.617188 -34.347656 12.316406 -35.472656 14.265625 -36.296875 C 16.210938 -37.128906 18.273438 -37.546875 20.453125 -37.546875 C 24.234375 -37.546875 27.910156 -36.148438 31.484375 -33.359375 C 34.753906 -36.148438 38.359375 -37.546875 42.296875 -37.546875 C 44.523438 -37.546875 46.609375 -37.117188 48.546875 -36.265625 C 50.492188 -35.410156 52.207031 -34.242188 53.6875 -32.765625 C 55.164062 -31.296875 56.332031 -29.5625 57.1875 -27.5625 C 58.039062 -25.5625 58.46875 -23.445312 58.46875 -21.21875 L 58.46875 -5.203125 C 58.414062 -3.441406 57.9375 -2.039062 57.03125 -1 C 56.125 0.03125 54.894531 0.546875 53.34375 0.546875 C 51.78125 0.546875 50.519531 0.015625 49.5625 -1.046875 C 48.601562 -2.109375 48.125 -3.492188 48.125 -5.203125 L 48.125 -19.28125 C 48.125 -20.625 48.082031 -21.617188 48 -22.265625 C 47.925781 -22.921875 47.757812 -23.535156 47.5 -24.109375 C 47.09375 -25.085938 46.421875 -25.875 45.484375 -26.46875 C 44.546875 -27.070312 43.507812 -27.375 42.375 -27.375 C 41.332031 -27.375 40.382812 -27.125 39.53125 -26.625 C 38.675781 -26.132812 38.039062 -25.445312 37.625 -24.5625 C 37.269531 -23.84375 37.023438 -23.117188 36.890625 -22.390625 C 36.765625 -21.660156 36.703125 -20.625 36.703125 -19.28125 L 36.703125 -5.203125 C 36.703125 -3.441406 36.234375 -2.039062 35.296875 -1 C 34.367188 0.03125 33.125 0.546875 31.5625 0.546875 C 30.007812 0.546875 28.753906 0.015625 27.796875 -1.046875 C 26.835938 -2.109375 26.359375 -3.492188 26.359375 -5.203125 L 26.359375 -19.28125 C 26.359375 -21.144531 26.203125 -22.597656 25.890625 -23.640625 C 25.578125 -24.773438 24.925781 -25.707031 23.9375 -26.4375 C 22.957031 -27.164062 21.847656 -27.53125 20.609375 -27.53125 C 19.304688 -27.53125 18.175781 -27.175781 17.21875 -26.46875 C 16.257812 -25.769531 15.597656 -24.828125 15.234375 -23.640625 C 15.023438 -23.066406 14.894531 -22.484375 14.84375 -21.890625 C 14.789062 -21.296875 14.765625 -20.425781 14.765625 -19.28125 L 14.765625 -5.203125 C 14.710938 -3.441406 14.21875 -2.039062 13.28125 -1 C 12.351562 0.03125 11.113281 0.546875 9.5625 0.546875 C 8.0625 0.546875 6.832031 0.015625 5.875 -1.046875 C 4.914062 -2.109375 4.4375 -3.492188 4.4375 -5.203125 Z M 4.4375 -6.375 "/></g></g><g style="fill:#362d3b;fill-opacity:1;"><g transform="translate(286.715072, 186.13134)"><path style="stroke:none" d="M 4.828125 -6.375 L 4.828125 -31.5625 C 4.867188 -33.320312 5.359375 -34.71875 6.296875 -35.75 C 7.234375 -36.789062 8.453125 -37.3125 9.953125 -37.3125 C 11.503906 -37.3125 12.757812 -36.78125 13.71875 -35.71875 C 14.675781 -34.65625 15.15625 -33.269531 15.15625 -31.5625 L 15.15625 -5.203125 C 15.101562 -3.441406 14.609375 -2.039062 13.671875 -1 C 12.742188 0.03125 11.53125 0.546875 10.03125 0.546875 C 8.476562 0.546875 7.222656 0.015625 6.265625 -1.046875 C 5.304688 -2.109375 4.828125 -3.492188 4.828125 -5.203125 Z M 9.953125 -51.9375 C 11.660156 -51.9375 13.109375 -51.335938 14.296875 -50.140625 C 15.492188 -48.953125 16.09375 -47.503906 16.09375 -45.796875 C 16.09375 -44.085938 15.484375 -42.625 14.265625 -41.40625 C 13.046875 -40.1875 11.554688 -39.578125 9.796875 -39.578125 C 8.960938 -39.578125 8.171875 -39.742188 7.421875 -40.078125 C 6.671875 -40.410156 6.007812 -40.847656 5.4375 -41.390625 C 4.875 -41.941406 4.421875 -42.578125 4.078125 -43.296875 C 3.742188 -44.023438 3.578125 -44.804688 3.578125 -45.640625 C 3.578125 -47.453125 4.1875 -48.953125 5.40625 -50.140625 C 6.625 -51.335938 8.140625 -51.9375 9.953125 -51.9375 Z M 9.953125 -51.9375 "/></g></g></g></svg>