<svg xmlns="http://www.w3.org/2000/svg" xmlns:xlink="http://www.w3.org/1999/xlink" width="500" zoomAndPan="magnify" viewBox="0 0 375 374.999991" height="500" preserveAspectRatio="xMidYMid meet" version="1.2"><defs><clipPath id="8ce2b3c9f3"><path d="M 2.972656 81.230469 L 128.972656 81.230469 L 128.972656 207 L 2.972656 207 Z M 2.972656 81.230469 "/></clipPath></defs><g id="ef297f2ea0"><rect x="0" width="375" y="0" height="374.999991" style="fill:#ffffff;fill-opacity:1;stroke:none;"/><rect x="0" width="375" y="0" height="374.999991" style="fill:#ffffff;fill-opacity:1;stroke:none;"/><path style=" stroke:none;fill-rule:nonzero;fill:#ccb5c8;fill-opacity:1;" d="M 100.183594 135.367188 C 101.066406 135.367188 99.5625 135.988281 100.183594 135.367188 Z M 100.183594 135.367188 "/><g clip-rule="nonzero" clip-path="url(#8ce2b3c9f3)"><path style=" stroke:none;fill-rule:nonzero;fill:#ccb5c8;fill-opacity:1;" d="M 121.167969 135.15625 C 121.640625 135.105469 122.113281 135.128906 122.480469 135.15625 C 122.585938 135.628906 121.324219 138.417969 119.140625 139.996094 C 119.777344 140.0625 120.097656 140.1875 120.425781 140.289062 C 120.480469 140.277344 120.53125 140.269531 120.589844 140.257812 C 120.566406 140.277344 120.542969 140.296875 120.519531 140.316406 C 120.542969 140.324219 120.566406 140.328125 120.589844 140.335938 C 120.246094 141.28125 116.40625 145.359375 115.488281 145.4375 C 116.195312 145.566406 117.542969 145.8125 117.984375 146.121094 C 118.40625 146.410156 114.4375 150.089844 111.675781 150.460938 C 112.511719 150.824219 114.765625 151.148438 114.699219 151.484375 C 114.644531 151.824219 111.386719 154.980469 108.78125 155.007812 C 109.492188 155.71875 110.914062 155.613281 111.203125 156.191406 C 111.492188 156.769531 107.308594 159.109375 104.390625 159.476562 C 104.496094 159.84375 106.15625 160.1875 106.757812 160.449219 C 107.363281 160.714844 104.96875 163.472656 100.316406 163.15625 C 100.660156 163.683594 101.816406 164.234375 101.945312 164.550781 C 102.210938 165.128906 99.84375 166.285156 96.320312 166.945312 C 96.765625 167.523438 98.082031 167.3125 97.976562 168.023438 C 97.871094 168.730469 94.820312 170.363281 91.691406 170.308594 C 91.851562 170.757812 92.507812 171.152344 92.480469 171.703125 C 92.460938 172.175781 89.5625 172.789062 87.847656 173.382812 C 87.875 173.570312 87.660156 173.804688 87.511719 174.058594 C 87.613281 174.125 87.707031 174.183594 87.769531 174.265625 C 89.6875 173.199219 91.175781 172.808594 91.296875 173.203125 C 91.378906 173.4375 91.007812 174.199219 91.089844 174.621094 C 93.265625 172.445312 95.75 172.714844 95.519531 173.175781 C 95.523438 173.175781 95.527344 173.175781 95.53125 173.175781 C 95.527344 173.175781 95.519531 173.179688 95.515625 173.183594 C 95.3125 173.589844 94.667969 174.445312 94.769531 174.675781 C 96.398438 173.570312 99.554688 172.914062 99.660156 173.332031 C 99.765625 173.753906 99.003906 174.332031 98.949219 175.015625 C 100.289062 173.886719 103.3125 174.042969 103.5 174.199219 C 103.683594 174.332031 102.683594 175.488281 102.421875 176.042969 C 103.972656 175.015625 107.601562 175.121094 107.519531 175.460938 C 107.414062 175.804688 106.917969 176.4375 106.546875 176.910156 C 107.019531 176.539062 110.753906 176.910156 111.359375 177.25 C 111.203125 177.460938 111.121094 177.699219 110.78125 178.066406 C 112.570312 177.90625 114.4375 178.75 114.59375 179.039062 C 114.589844 179.042969 114.582031 179.046875 114.578125 179.054688 C 114.59375 179.058594 114.605469 179.0625 114.621094 179.066406 C 114.597656 179.066406 114.578125 179.074219 114.558594 179.074219 C 114.402344 179.25 114.183594 179.445312 113.9375 179.617188 C 115.296875 179.695312 121.601562 181.023438 122.597656 181.789062 C 122.613281 181.792969 122.625 181.796875 122.640625 181.800781 C 122.625 181.800781 122.613281 181.804688 122.601562 181.808594 C 121.589844 182.542969 115.246094 183.640625 113.855469 183.667969 C 114.121094 183.851562 114.355469 184.058594 114.515625 184.246094 C 114.332031 184.507812 112.4375 185.296875 110.648438 185.085938 C 110.957031 185.441406 111.03125 185.648438 111.160156 185.859375 C 111.183594 185.875 111.203125 185.886719 111.226562 185.902344 C 111.210938 185.898438 111.199219 185.898438 111.183594 185.898438 C 111.1875 185.90625 111.195312 185.917969 111.203125 185.925781 C 110.597656 186.269531 106.835938 186.507812 106.363281 186.109375 C 106.496094 186.28125 107.351562 187.40625 107.28125 187.609375 C 107.28125 187.609375 107.285156 187.609375 107.285156 187.609375 C 107.28125 187.609375 107.28125 187.609375 107.28125 187.609375 C 107.175781 187.921875 103.695312 187.871094 102.210938 186.820312 C 102.472656 187.398438 103.476562 188.636719 103.222656 188.722656 C 103.226562 188.726562 103.230469 188.734375 103.234375 188.742188 C 103.226562 188.734375 103.21875 188.730469 103.210938 188.726562 C 102.855469 188.875 99.964844 188.890625 98.710938 187.742188 C 98.738281 188.425781 99.503906 189.03125 99.371094 189.449219 C 99.265625 189.871094 96.109375 189.109375 94.53125 187.953125 C 94.402344 188.164062 95.058594 189.082031 95.242188 189.503906 C 95.425781 189.898438 92.980469 190.160156 90.851562 187.871094 C 90.773438 188.265625 91.089844 189.082031 91.011719 189.292969 C 90.878906 189.714844 89.195312 189.1875 87.117188 187.871094 C 87.066406 188.367188 87.804688 188.859375 87.449219 189.148438 C 87.453125 189.152344 87.457031 189.15625 87.460938 189.160156 C 87.453125 189.160156 87.449219 189.15625 87.441406 189.15625 C 86.976562 189.464844 84.75 188.792969 83.304688 187.398438 C 83.230469 187.628906 83.277344 187.9375 83.210938 188.191406 C 83.214844 188.199219 83.222656 188.207031 83.226562 188.214844 C 83.21875 188.210938 83.210938 188.210938 83.207031 188.207031 C 83.105469 188.570312 82.929688 188.535156 82.460938 188.34375 C 82.332031 188.496094 81.875 188.710938 81.753906 188.925781 C 83.816406 188.773438 85.039062 190.023438 84.683594 190.175781 C 84.6875 190.179688 84.695312 190.183594 84.699219 190.1875 C 84.6875 190.1875 84.675781 190.1875 84.667969 190.183594 C 84.34375 190.308594 83.671875 190.433594 83.648438 190.605469 C 84.988281 190.765625 86.90625 191.84375 86.777344 192.105469 C 86.644531 192.367188 85.988281 192.316406 85.644531 192.660156 C 86.855469 192.660156 88.355469 194.128906 88.378906 194.289062 C 88.40625 194.445312 87.382812 194.605469 86.988281 194.761719 C 88.21875 194.914062 90.140625 196.628906 89.871094 196.78125 C 89.875 196.785156 89.875 196.785156 89.878906 196.785156 C 89.875 196.785156 89.871094 196.785156 89.863281 196.785156 C 89.644531 196.90625 89.117188 197 88.75 197.074219 C 89.167969 197.101562 90.929688 198.96875 91.089844 199.414062 C 91.074219 199.417969 91.0625 199.421875 91.050781 199.425781 C 91.054688 199.433594 91.058594 199.4375 91.0625 199.441406 C 90.828125 199.480469 90.789062 199.546875 90.429688 199.574219 C 91.429688 200.308594 92.007812 201.570312 91.957031 201.808594 C 91.796875 201.808594 91.589844 201.835938 91.351562 201.808594 C 92.039062 202.46875 94.71875 206.015625 94.875 206.855469 C 94.03125 206.804688 90.21875 204.488281 89.484375 203.886719 C 89.535156 204.09375 89.535156 204.304688 89.5625 204.488281 C 89.351562 204.570312 88.011719 204.121094 87.195312 203.203125 C 87.195312 203.542969 87.144531 203.703125 87.117188 203.886719 C 87.109375 203.882812 87.101562 203.878906 87.09375 203.878906 L 87.09375 203.886719 C 85.488281 202.949219 84.589844 202.039062 84.542969 201.808594 C 84.515625 202.203125 84.460938 202.78125 84.359375 202.992188 C 84.253906 203.203125 82.359375 201.546875 82.070312 200.308594 C 81.9375 200.703125 81.914062 201.753906 81.753906 201.753906 C 81.597656 201.753906 79.992188 200.414062 79.863281 199.207031 C 79.570312 199.574219 79.679688 200.203125 79.441406 200.363281 C 79.203125 200.519531 77.917969 198.707031 77.601562 197.390625 C 77.441406 197.441406 77.363281 198.234375 77.285156 198.519531 C 77.207031 198.8125 75.8125 197.835938 75.734375 195.707031 C 75.496094 195.890625 75.3125 196.445312 75.183594 196.523438 C 74.917969 196.679688 74.289062 195.65625 73.8125 194.050781 C 73.601562 194.265625 73.699219 195.449219 72.976562 194.507812 C 72.976562 194.53125 72.972656 194.554688 72.972656 194.578125 C 72.800781 194.210938 72.171875 193.378906 72.050781 192.105469 C 71.765625 192.269531 71.53125 192.882812 71.1875 192.21875 C 71.1875 192.242188 71.1875 192.265625 71.183594 192.289062 C 70.917969 191.804688 70.65625 190.789062 70.292969 190.160156 C 70.082031 190.320312 70.160156 190.554688 69.871094 190.554688 C 69.292969 190.527344 69.082031 187.792969 69.003906 187.453125 C 68.757812 187.695312 68.609375 188.105469 68.429688 187.941406 C 68.425781 187.945312 68.425781 187.949219 68.425781 187.953125 C 67.988281 187.328125 68.0625 187.546875 67.847656 186.574219 C 67.433594 185.289062 66.929688 183.382812 66.464844 182.015625 C 64.761719 196.023438 67.128906 195.265625 66.609375 204.9375 L 65.375 204.9375 C 65.726562 199.734375 64.507812 193.261719 64.507812 190.898438 C 64.507812 188.625 64.914062 184.75 65.179688 182.46875 C 64.179688 185.078125 63.910156 188.046875 63.453125 187.917969 C 63.445312 187.929688 63.4375 187.941406 63.429688 187.953125 C 63.417969 187.933594 63.40625 187.914062 63.394531 187.894531 C 63.285156 187.820312 63.234375 187.625 63.007812 187.398438 C 62.910156 187.816406 62.71875 190.632812 62.066406 190.496094 C 62.066406 190.507812 62.0625 190.515625 62.0625 190.527344 C 62.058594 190.515625 62.054688 190.503906 62.050781 190.492188 C 61.867188 190.445312 61.90625 190.246094 61.71875 190.109375 C 61.066406 191.183594 60.886719 192.820312 60.335938 192.371094 C 60.324219 192.394531 60.3125 192.421875 60.300781 192.449219 C 60.296875 192.410156 60.296875 192.371094 60.296875 192.335938 C 60.179688 192.230469 60.082031 192.101562 59.957031 192.054688 C 59.828125 193.441406 58.917969 194.914062 58.554688 194.808594 C 58.550781 194.820312 58.542969 194.828125 58.539062 194.839844 C 58.539062 194.828125 58.539062 194.816406 58.539062 194.804688 C 58.328125 194.722656 58.433594 194.210938 58.195312 194 C 57.644531 195.628906 57.011719 196.65625 56.75 196.523438 C 56.617188 196.445312 56.410156 195.890625 56.199219 195.707031 C 56.121094 197.863281 54.753906 198.8125 54.648438 198.519531 C 54.570312 198.230469 54.488281 197.441406 54.332031 197.390625 C 54.015625 198.707031 52.753906 200.519531 52.492188 200.359375 C 52.230469 200.203125 52.359375 199.546875 52.070312 199.203125 C 51.9375 200.386719 50.335938 201.730469 50.175781 201.753906 C 50.019531 201.753906 49.96875 200.730469 49.863281 200.308594 C 49.578125 201.515625 47.671875 203.257812 47.558594 202.953125 C 47.554688 202.957031 47.550781 202.960938 47.546875 202.964844 C 47.550781 202.957031 47.550781 202.945312 47.550781 202.9375 C 47.460938 202.699219 47.414062 202.195312 47.390625 201.808594 C 47.3125 202.230469 45.261719 203.78125 44.8125 203.886719 C 44.8125 203.871094 44.808594 203.859375 44.808594 203.847656 C 44.800781 203.851562 44.792969 203.855469 44.789062 203.859375 C 44.75 203.4375 44.734375 203.441406 44.734375 203.203125 C 43.894531 204.121094 42.578125 204.570312 42.367188 204.488281 C 42.367188 204.332031 42.394531 204.121094 42.445312 203.886719 C 41.710938 204.488281 37.898438 206.804688 37.058594 206.855469 C 37.058594 206.839844 37.066406 206.824219 37.070312 206.808594 C 37.039062 206.824219 37.011719 206.839844 36.980469 206.855469 C 37.042969 206.769531 39.050781 203.28125 40.582031 201.808594 C 40.394531 201.832031 40.1875 201.832031 40.03125 201.816406 C 39.996094 201.820312 39.960938 201.828125 39.921875 201.835938 C 39.988281 201.464844 40.546875 200.273438 41.5 199.574219 C 41.085938 199.539062 41.148438 199.472656 40.789062 199.441406 C 41.21875 198.734375 42.789062 197.101562 43.183594 197.074219 C 42.800781 197 42.269531 196.898438 42.046875 196.769531 C 42.023438 196.777344 42 196.78125 41.972656 196.785156 C 41.988281 196.773438 42.003906 196.761719 42.019531 196.75 C 41.921875 196.554688 43.683594 194.941406 44.945312 194.761719 C 44.566406 194.609375 43.609375 194.460938 43.554688 194.308594 C 43.535156 194.308594 43.519531 194.3125 43.5 194.316406 C 43.519531 194.300781 43.539062 194.285156 43.558594 194.269531 C 43.667969 194.042969 45.113281 192.683594 46.285156 192.660156 C 45.976562 192.351562 45.347656 192.367188 45.167969 192.125 C 45.148438 192.128906 45.125 192.128906 45.101562 192.132812 C 45.121094 192.121094 45.136719 192.109375 45.152344 192.09375 C 45.074219 191.816406 46.960938 190.761719 48.285156 190.605469 C 48.234375 190.453125 47.511719 190.300781 47.230469 190.171875 C 47.207031 190.179688 47.183594 190.1875 47.152344 190.1875 C 47.164062 190.175781 47.179688 190.164062 47.195312 190.152344 C 46.949219 189.996094 48.050781 188.769531 50.175781 188.925781 C 50.027344 188.703125 49.550781 188.453125 49.453125 188.316406 C 48.949219 188.527344 48.753906 188.585938 48.648438 188.207031 C 48.640625 188.210938 48.632812 188.210938 48.625 188.214844 C 48.632812 188.207031 48.636719 188.203125 48.644531 188.195312 C 48.578125 187.941406 48.625 187.628906 48.546875 187.398438 C 47.007812 188.886719 44.71875 189.460938 44.410156 189.15625 C 44.40625 189.15625 44.398438 189.160156 44.394531 189.160156 C 44.398438 189.15625 44.402344 189.152344 44.40625 189.148438 C 44.046875 188.859375 44.789062 188.367188 44.734375 187.875 C 42.65625 189.1875 40.976562 189.714844 40.84375 189.292969 C 40.765625 189.082031 41.082031 188.265625 41 187.875 C 38.945312 190.078125 36.601562 189.914062 36.601562 189.542969 C 36.601562 189.375 37.464844 188.183594 37.320312 187.953125 C 35.742188 189.109375 32.589844 189.871094 32.484375 189.449219 C 32.351562 189.03125 33.113281 188.425781 33.140625 187.742188 C 31.886719 188.890625 29 188.875 28.644531 188.726562 C 28.632812 188.730469 28.625 188.738281 28.617188 188.742188 C 28.621094 188.734375 28.625 188.726562 28.632812 188.722656 C 28.394531 188.601562 29.375 187.414062 29.640625 186.820312 C 28.15625 187.871094 24.679688 187.921875 24.570312 187.609375 C 24.566406 187.609375 24.570312 187.609375 24.570312 187.609375 C 24.503906 187.40625 25.359375 186.277344 25.488281 186.109375 C 25.027344 186.496094 21.433594 186.28125 20.699219 185.949219 C 20.683594 185.953125 20.667969 185.953125 20.652344 185.953125 C 20.660156 185.949219 20.667969 185.945312 20.675781 185.941406 C 20.667969 185.933594 20.660156 185.933594 20.652344 185.925781 C 20.808594 185.691406 20.863281 185.480469 21.203125 185.085938 C 19.414062 185.296875 17.523438 184.507812 17.339844 184.246094 C 17.496094 184.0625 17.730469 183.851562 17.996094 183.667969 C 16.609375 183.640625 10.265625 182.546875 9.253906 181.808594 C 9.238281 181.804688 9.226562 181.800781 9.214844 181.800781 C 9.226562 181.796875 9.242188 181.792969 9.253906 181.789062 C 10.25 181.023438 16.554688 179.695312 17.917969 179.617188 C 17.671875 179.445312 17.449219 179.25 17.292969 179.078125 C 17.273438 179.074219 17.253906 179.070312 17.234375 179.066406 C 17.246094 179.0625 17.257812 179.058594 17.273438 179.054688 C 17.269531 179.050781 17.261719 179.042969 17.257812 179.039062 C 17.417969 178.75 19.285156 177.910156 21.070312 178.066406 C 20.730469 177.695312 20.648438 177.457031 20.492188 177.25 C 21.097656 176.910156 24.832031 176.539062 25.304688 176.910156 C 24.9375 176.4375 24.4375 175.804688 24.332031 175.460938 C 24.253906 175.121094 27.882812 175.015625 29.433594 176.042969 C 29.171875 175.488281 28.171875 174.332031 28.355469 174.199219 C 28.539062 174.042969 31.5625 173.886719 32.902344 175.015625 C 32.851562 174.332031 32.089844 173.753906 32.195312 173.332031 C 32.296875 172.914062 35.453125 173.570312 37.085938 174.675781 C 37.1875 174.445312 36.546875 173.597656 36.339844 173.1875 C 36.332031 173.183594 36.328125 173.179688 36.320312 173.175781 C 36.324219 173.175781 36.328125 173.175781 36.335938 173.175781 C 36.109375 172.726562 38.574219 172.429688 40.765625 174.621094 C 40.835938 174.242188 40.542969 173.582031 40.542969 173.285156 C 40.542969 172.503906 43.214844 173.785156 44.050781 174.25 C 44.117188 174.160156 44.214844 174.097656 44.320312 174.027344 C 44.171875 173.777344 43.96875 173.550781 44.007812 173.367188 C 42.296875 172.769531 39.367188 172.152344 39.34375 171.675781 C 39.320312 171.125 39.949219 170.730469 40.132812 170.285156 C 37.003906 170.308594 33.953125 168.707031 33.851562 167.996094 C 33.746094 167.285156 35.058594 167.496094 35.507812 166.917969 C 31.957031 166.261719 29.589844 165.105469 29.851562 164.527344 C 29.984375 164.210938 31.167969 163.65625 31.484375 163.132812 C 26.832031 163.449219 24.4375 160.6875 25.042969 160.425781 C 25.648438 160.160156 27.304688 159.820312 27.410156 159.449219 C 24.515625 159.082031 20.308594 156.742188 20.597656 156.164062 C 20.863281 155.613281 22.308594 155.691406 23.019531 154.980469 C 20.414062 154.957031 17.152344 151.800781 17.101562 151.457031 C 17.023438 151.117188 19.285156 150.800781 20.125 150.433594 C 17.390625 150.0625 13.394531 146.382812 13.816406 146.09375 C 14.234375 145.804688 15.445312 145.570312 16.3125 145.410156 C 15.390625 145.359375 11.527344 141.285156 11.210938 140.308594 C 11.605469 140.230469 11.921875 140.046875 12.65625 139.96875 C 10.476562 138.390625 9.214844 135.605469 9.320312 135.132812 C 9.339844 135.128906 9.363281 135.128906 9.386719 135.125 C 9.382812 135.117188 9.375 135.113281 9.371094 135.105469 C 9.382812 135.113281 9.394531 135.117188 9.40625 135.125 C 9.757812 135.101562 10.195312 135.082031 10.632812 135.132812 C 9.136719 133.683594 3.296875 125.953125 2.984375 124.167969 C 3 124.167969 3.019531 124.171875 3.039062 124.171875 C 3.039062 124.171875 3.035156 124.167969 3.035156 124.167969 C 3.039062 124.167969 3.042969 124.171875 3.046875 124.175781 C 5.003906 124.410156 13.121094 129.308594 14.683594 130.636719 C 14.578125 130.1875 14.550781 129.714844 14.523438 129.347656 C 15 129.1875 17.890625 130.160156 19.703125 132.160156 C 19.703125 131.398438 19.863281 131.082031 19.914062 130.6875 C 19.933594 130.691406 19.953125 130.695312 19.972656 130.703125 C 19.972656 130.695312 19.96875 130.691406 19.96875 130.6875 C 19.972656 130.695312 19.980469 130.699219 19.988281 130.707031 C 21.109375 131.046875 25.386719 134.335938 25.542969 135.210938 C 25.621094 134.339844 25.726562 133.105469 25.960938 132.660156 C 26.199219 132.210938 30.273438 135.789062 30.929688 138.496094 C 31.203125 137.574219 31.273438 135.257812 31.667969 135.375 C 31.667969 135.371094 31.667969 135.371094 31.667969 135.367188 C 31.667969 135.371094 31.667969 135.371094 31.671875 135.375 C 32.15625 135.515625 35.484375 138.339844 35.769531 140.890625 C 36.402344 140.101562 36.191406 138.679688 36.714844 138.339844 C 37.242188 137.996094 40.027344 141.914062 40.6875 144.78125 C 41.027344 144.648438 41.183594 142.964844 41.394531 142.335938 C 41.605469 141.703125 44.601562 143.808594 44.761719 148.460938 C 45.261719 148.09375 45.65625 146.882812 45.972656 146.699219 C 46.523438 146.382812 47.917969 148.59375 48.941406 152.0625 C 49.464844 151.566406 49.140625 150.1875 49.863281 150.332031 L 49.863281 150.328125 L 49.863281 150.332031 C 50.597656 150.457031 52.46875 153.285156 52.753906 156.347656 C 53.175781 156.113281 53.492188 155.429688 54.042969 155.402344 C 54.25 155.390625 54.546875 155.929688 54.875 156.675781 C 55.050781 156.722656 55.25 156.765625 55.488281 156.714844 C 54.964844 154.929688 52.542969 150.933594 52.992188 150.460938 C 53.4375 149.984375 54.304688 150.273438 54.832031 150.0625 C 52.332031 147.355469 51.335938 143.414062 51.859375 142.753906 C 52.386719 142.097656 53.226562 143.441406 54.09375 143.359375 C 51.859375 139.730469 51.019531 136.761719 51.730469 136.523438 C 52.125 136.417969 53.492188 136.996094 54.226562 136.867188 C 50.371094 133.136719 50.703125 128.714844 51.589844 129.144531 C 51.59375 129.125 51.59375 129.105469 51.597656 129.082031 C 51.609375 129.113281 51.621094 129.140625 51.632812 129.164062 C 52.390625 129.542969 53.851562 130.625 54.226562 130.425781 C 52.300781 127.679688 50.921875 122.03125 51.785156 121.867188 C 51.78125 121.863281 51.78125 121.859375 51.78125 121.851562 C 51.785156 121.859375 51.789062 121.859375 51.792969 121.867188 C 52.523438 121.742188 53.550781 122.984375 54.699219 123.0625 C 52.648438 120.75 52.859375 115.4375 53.121094 115.097656 C 53.386719 114.753906 55.410156 116.464844 56.410156 116.9375 C 54.582031 114.273438 54.582031 107.8125 55.28125 108.011719 C 55.277344 108.007812 55.277344 108.003906 55.277344 107.996094 C 55.28125 108.003906 55.285156 108.007812 55.289062 108.015625 C 55.910156 108.191406 57.015625 109.042969 57.800781 109.652344 C 57.144531 108.785156 57.671875 102.210938 58.277344 101.160156 C 58.285156 101.167969 58.292969 101.171875 58.304688 101.179688 C 58.304688 101.171875 58.300781 101.167969 58.300781 101.160156 C 58.308594 101.171875 58.3125 101.179688 58.320312 101.1875 C 58.699219 101.433594 59.089844 101.578125 59.722656 102.160156 C 59.378906 99.003906 60.824219 95.71875 61.324219 95.429688 L 61.339844 95.445312 C 61.34375 95.429688 61.347656 95.417969 61.351562 95.402344 C 61.359375 95.425781 61.363281 95.449219 61.371094 95.472656 C 61.65625 95.757812 62.027344 96.136719 62.351562 96.585938 C 62.402344 94.140625 64.585938 82.964844 65.898438 81.257812 C 65.90625 81.265625 65.910156 81.273438 65.914062 81.277344 C 65.917969 81.261719 65.921875 81.246094 65.925781 81.230469 C 65.933594 81.261719 65.941406 81.292969 65.949219 81.324219 C 67.269531 83.238281 69.371094 94.171875 69.449219 96.585938 C 69.792969 96.113281 70.1875 95.71875 70.476562 95.429688 C 70.949219 95.71875 72.421875 99.003906 72.078125 102.160156 C 72.722656 101.570312 73.113281 101.429688 73.5 101.175781 C 73.507812 101.164062 73.515625 101.148438 73.527344 101.132812 C 73.527344 101.144531 73.523438 101.152344 73.523438 101.160156 C 73.523438 101.160156 73.523438 101.160156 73.527344 101.160156 C 74.128906 102.210938 74.65625 108.785156 74 109.652344 C 74.828125 109.03125 75.941406 108.152344 76.550781 108.003906 C 76.558594 107.992188 76.566406 107.980469 76.574219 107.96875 C 76.574219 107.980469 76.570312 107.988281 76.570312 108 C 77.15625 107.707031 77.269531 114.171875 75.390625 116.9375 C 76.347656 116.496094 78.34375 114.816406 78.664062 115.082031 C 78.667969 115.078125 78.671875 115.074219 78.679688 115.070312 C 78.675781 115.074219 78.671875 115.082031 78.667969 115.085938 C 78.957031 115.46875 79.136719 120.765625 77.101562 123.0625 C 78.257812 123.011719 79.289062 121.753906 80.023438 121.871094 C 80.03125 121.863281 80.039062 121.859375 80.046875 121.851562 C 80.042969 121.859375 80.039062 121.867188 80.035156 121.871094 C 80.855469 122.046875 79.503906 127.648438 77.574219 130.425781 C 77.957031 130.628906 79.476562 129.523438 80.214844 129.144531 C 80.230469 129.121094 80.242188 129.105469 80.257812 129.082031 C 80.253906 129.097656 80.253906 129.113281 80.25 129.125 C 81.058594 128.789062 81.449219 133.121094 77.574219 136.867188 C 78.261719 136.992188 79.585938 136.429688 80.03125 136.511719 L 80.046875 136.496094 C 80.042969 136.503906 80.042969 136.511719 80.039062 136.515625 C 80.855469 136.71875 79.816406 139.910156 77.707031 143.359375 C 78.546875 143.414062 79.414062 142.097656 79.941406 142.753906 C 80.464844 143.414062 79.46875 147.355469 76.96875 150.0625 C 77.367188 150.203125 77.945312 150.089844 78.410156 150.226562 C 78.410156 150.226562 78.414062 150.222656 78.417969 150.222656 C 78.414062 150.222656 78.414062 150.226562 78.414062 150.230469 C 78.558594 150.273438 78.695312 150.34375 78.808594 150.460938 C 79.285156 150.933594 76.839844 154.929688 76.3125 156.714844 C 76.570312 156.769531 76.78125 156.714844 76.96875 156.664062 C 76.96875 156.664062 77.234375 156.058594 77.234375 156.058594 C 77.285156 155.980469 77.3125 155.929688 77.363281 155.847656 C 77.363281 155.855469 77.363281 155.859375 77.363281 155.867188 C 77.992188 154.785156 78.507812 156.09375 79.074219 156.375 C 79.347656 153.128906 81.210938 150.96875 81.253906 150.878906 L 81.253906 150.902344 C 82.671875 149.28125 82.382812 151.613281 82.886719 152.089844 C 83.960938 148.421875 85.394531 146.300781 85.875 146.714844 C 85.878906 146.707031 85.878906 146.703125 85.882812 146.699219 L 85.882812 146.71875 C 86.195312 146.949219 86.582031 148.078125 87.066406 148.460938 C 87.222656 143.800781 90.242188 141.671875 90.4375 142.355469 C 90.445312 142.347656 90.449219 142.339844 90.457031 142.335938 C 90.453125 142.347656 90.445312 142.359375 90.441406 142.367188 C 90.648438 143.023438 90.804688 144.652344 91.140625 144.78125 C 91.800781 141.914062 94.558594 137.996094 95.113281 138.339844 C 95.664062 138.679688 95.425781 140.097656 96.058594 140.890625 C 96.347656 138.289062 99.8125 135.394531 100.1875 135.367188 C 100.554688 135.339844 100.632812 137.601562 100.894531 138.496094 C 101.554688 135.789062 105.574219 132.238281 105.839844 132.683594 C 105.839844 132.6875 105.839844 132.6875 105.839844 132.6875 C 105.847656 132.679688 105.855469 132.667969 105.867188 132.660156 C 105.863281 132.675781 105.855469 132.695312 105.855469 132.714844 C 106.105469 133.183594 106.183594 134.382812 106.257812 135.234375 C 106.441406 134.339844 110.886719 130.949219 111.886719 130.714844 C 111.894531 130.703125 111.902344 130.695312 111.910156 130.6875 C 111.90625 130.707031 111.902344 130.730469 111.894531 130.75 C 111.972656 131.128906 112.097656 131.449219 112.097656 132.183594 C 113.867188 130.234375 116.667969 129.285156 117.238281 129.367188 C 117.25 129.359375 117.261719 129.351562 117.277344 129.347656 C 117.269531 129.351562 117.265625 129.363281 117.257812 129.371094 C 117.265625 129.371094 117.269531 129.371094 117.277344 129.371094 C 117.25 129.714844 117.222656 130.1875 117.117188 130.660156 C 118.679688 129.335938 126.820312 124.433594 128.753906 124.199219 C 128.777344 124.1875 128.796875 124.179688 128.816406 124.167969 C 128.8125 124.175781 128.804688 124.183594 128.800781 124.195312 C 128.804688 124.195312 128.8125 124.191406 128.816406 124.191406 C 128.503906 126.007812 122.664062 133.738281 121.167969 135.15625 Z M 121.167969 135.15625 "/></g><g style="fill:#362d3b;fill-opacity:1;"><g transform="translate(65.634624, 186.13134)"><path style="stroke:none" d="M 27.296875 -2.328125 L 15 -15.3125 L 15 -5.203125 C 14.945312 -3.441406 14.46875 -2.039062 13.5625 -1 C 12.65625 0.03125 11.425781 0.546875 9.875 0.546875 C 8.320312 0.546875 7.066406 0.015625 6.109375 -1.046875 C 5.148438 -2.109375 4.671875 -3.492188 4.671875 -5.203125 L 4.671875 -46.109375 C 4.722656 -47.867188 5.210938 -49.265625 6.140625 -50.296875 C 7.078125 -51.335938 8.320312 -51.859375 9.875 -51.859375 C 11.425781 -51.859375 12.664062 -51.328125 13.59375 -50.265625 C 14.53125 -49.203125 15 -47.816406 15 -46.109375 L 15 -25.34375 L 27.75 -35.375 L 28.609375 -36.15625 C 30.015625 -37.132812 31.335938 -37.625 32.578125 -37.625 C 33.921875 -37.625 35.097656 -37.09375 36.109375 -36.03125 C 37.117188 -34.96875 37.625 -33.738281 37.625 -32.34375 C 37.625 -30.53125 36.742188 -29 34.984375 -27.75 L 34.046875 -27.0625 L 24.1875 -19.90625 L 34.75 -9.71875 C 35.894531 -8.632812 36.660156 -7.753906 37.046875 -7.078125 C 37.429688 -6.398438 37.625 -5.625 37.625 -4.75 C 37.625 -3.238281 37.09375 -1.960938 36.03125 -0.921875 C 34.96875 0.109375 33.6875 0.625 32.1875 0.625 C 30.84375 0.625 29.46875 -0.078125 28.0625 -1.484375 Z M 27.296875 -2.328125 "/></g></g><g style="fill:#362d3b;fill-opacity:1;"><g transform="translate(105.749894, 186.13134)"><path style="stroke:none" d="M 33.90625 -6.375 C 33.90625 -5.03125 33.828125 -4.03125 33.671875 -3.375 C 33.515625 -2.726562 33.203125 -2.097656 32.734375 -1.484375 C 31.691406 -0.128906 30.289062 0.546875 28.53125 0.546875 C 27.445312 0.546875 26.515625 0.300781 25.734375 -0.1875 C 24.953125 -0.6875 24.28125 -1.503906 23.71875 -2.640625 C 22.207031 -1.453125 20.753906 -0.597656 19.359375 -0.078125 C 17.960938 0.441406 16.484375 0.703125 14.921875 0.703125 C 13.109375 0.703125 11.425781 0.363281 9.875 -0.3125 C 8.320312 -0.988281 6.960938 -1.929688 5.796875 -3.140625 C 4.628906 -4.359375 3.71875 -5.769531 3.0625 -7.375 C 2.414062 -8.988281 2.09375 -10.726562 2.09375 -12.59375 C 2.09375 -14.507812 2.441406 -16.296875 3.140625 -17.953125 C 3.847656 -19.617188 4.8125 -21.0625 6.03125 -22.28125 C 7.25 -23.5 8.671875 -24.457031 10.296875 -25.15625 C 11.929688 -25.851562 13.707031 -26.203125 15.625 -26.203125 C 16.925781 -26.203125 18.179688 -26.019531 19.390625 -25.65625 C 20.609375 -25.289062 21.921875 -24.75 23.328125 -24.03125 C 23.328125 -25.945312 22.972656 -27.289062 22.265625 -28.0625 C 21.566406 -28.84375 20.390625 -29.234375 18.734375 -29.234375 C 17.910156 -29.234375 16.976562 -29.101562 15.9375 -28.84375 L 13.453125 -28.140625 C 12.722656 -27.878906 12.113281 -27.710938 11.625 -27.640625 C 11.132812 -27.566406 10.679688 -27.53125 10.265625 -27.53125 C 9.066406 -27.53125 8.09375 -27.914062 7.34375 -28.6875 C 6.59375 -29.46875 6.21875 -30.453125 6.21875 -31.640625 C 6.21875 -33.660156 7.359375 -35.28125 9.640625 -36.5 C 11.921875 -37.71875 14.898438 -38.328125 18.578125 -38.328125 C 21.117188 -38.328125 23.4375 -37.976562 25.53125 -37.28125 C 27.632812 -36.582031 29.363281 -35.554688 30.71875 -34.203125 C 31.851562 -33.015625 32.664062 -31.550781 33.15625 -29.8125 C 33.65625 -28.082031 33.90625 -25.816406 33.90625 -23.015625 Z M 23.328125 -12.90625 C 23.328125 -14.40625 22.847656 -15.671875 21.890625 -16.703125 C 20.929688 -17.742188 19.695312 -18.265625 18.1875 -18.265625 C 16.789062 -18.265625 15.597656 -17.757812 14.609375 -16.75 C 13.628906 -15.738281 13.140625 -14.507812 13.140625 -13.0625 C 13.140625 -11.5625 13.628906 -10.316406 14.609375 -9.328125 C 15.597656 -8.347656 16.84375 -7.859375 18.34375 -7.859375 C 19.800781 -7.859375 20.992188 -8.335938 21.921875 -9.296875 C 22.859375 -10.253906 23.328125 -11.457031 23.328125 -12.90625 Z M 23.328125 -12.90625 "/></g></g><g style="fill:#362d3b;fill-opacity:1;"><g transform="translate(145.476454, 186.13134)"><path style="stroke:none" d="M 17.578125 -37.625 C 19.234375 -37.625 20.8125 -37.429688 22.3125 -37.046875 C 23.8125 -36.660156 25.117188 -36.128906 26.234375 -35.453125 C 27.347656 -34.773438 28.242188 -33.992188 28.921875 -33.109375 C 29.597656 -32.234375 29.9375 -31.304688 29.9375 -30.328125 C 29.9375 -29.128906 29.46875 -28.0625 28.53125 -27.125 C 27.601562 -26.195312 26.515625 -25.734375 25.265625 -25.734375 C 24.597656 -25.734375 23.9375 -25.847656 23.28125 -26.078125 C 22.632812 -26.316406 21.820312 -26.722656 20.84375 -27.296875 C 19.59375 -28.015625 18.707031 -28.488281 18.1875 -28.71875 C 17.675781 -28.957031 17.132812 -29.078125 16.5625 -29.078125 C 15.988281 -29.078125 15.519531 -28.894531 15.15625 -28.53125 C 14.789062 -28.164062 14.609375 -27.753906 14.609375 -27.296875 C 14.609375 -26.410156 15.050781 -25.707031 15.9375 -25.1875 C 16.820312 -24.664062 18.457031 -24.097656 20.84375 -23.484375 C 22.601562 -23.015625 23.945312 -22.609375 24.875 -22.265625 C 25.8125 -21.929688 26.695312 -21.554688 27.53125 -21.140625 C 29.132812 -20.265625 30.375 -19.035156 31.25 -17.453125 C 32.132812 -15.867188 32.578125 -14.09375 32.578125 -12.125 C 32.578125 -10.207031 32.210938 -8.457031 31.484375 -6.875 C 30.765625 -5.300781 29.742188 -3.941406 28.421875 -2.796875 C 27.097656 -1.660156 25.515625 -0.78125 23.671875 -0.15625 C 21.835938 0.46875 19.832031 0.78125 17.65625 0.78125 C 15.625 0.78125 13.675781 0.492188 11.8125 -0.078125 C 9.945312 -0.648438 8.289062 -1.398438 6.84375 -2.328125 C 5.394531 -3.265625 4.238281 -4.34375 3.375 -5.5625 C 2.519531 -6.78125 2.09375 -8.0625 2.09375 -9.40625 C 2.09375 -10.800781 2.554688 -12.03125 3.484375 -13.09375 C 4.421875 -14.15625 5.539062 -14.6875 6.84375 -14.6875 C 7.71875 -14.6875 8.582031 -14.46875 9.4375 -14.03125 C 10.300781 -13.59375 11.25 -12.929688 12.28125 -12.046875 C 13.0625 -11.378906 13.722656 -10.835938 14.265625 -10.421875 C 14.804688 -10.003906 15.296875 -9.675781 15.734375 -9.4375 C 16.179688 -9.207031 16.613281 -9.050781 17.03125 -8.96875 C 17.445312 -8.894531 17.910156 -8.859375 18.421875 -8.859375 C 19.460938 -8.859375 20.316406 -9.117188 20.984375 -9.640625 C 21.660156 -10.160156 22 -10.804688 22 -11.578125 C 22 -12.828125 20.859375 -13.710938 18.578125 -14.234375 C 17.128906 -14.585938 15.550781 -15.050781 13.84375 -15.625 C 12.132812 -16.195312 10.734375 -16.742188 9.640625 -17.265625 C 7.929688 -18.140625 6.554688 -19.40625 5.515625 -21.0625 C 4.484375 -22.726562 3.96875 -24.519531 3.96875 -26.4375 C 3.96875 -28.613281 4.628906 -30.632812 5.953125 -32.5 C 7.273438 -34.363281 9.050781 -35.738281 11.28125 -36.625 C 13.039062 -37.289062 15.140625 -37.625 17.578125 -37.625 Z M 17.578125 -37.625 "/></g></g><g style="fill:#362d3b;fill-opacity:1;"><g transform="translate(181.626873, 186.13134)"><path style="stroke:none" d="M 27.453125 -18.1875 L 27.453125 -31.5625 C 27.503906 -33.320312 27.992188 -34.71875 28.921875 -35.75 C 29.859375 -36.789062 31.101562 -37.3125 32.65625 -37.3125 C 34.15625 -37.3125 35.382812 -36.78125 36.34375 -35.71875 C 37.300781 -34.65625 37.78125 -33.269531 37.78125 -31.5625 L 37.78125 -17.34375 C 37.78125 -14.800781 37.492188 -12.597656 36.921875 -10.734375 C 36.359375 -8.867188 35.425781 -7.128906 34.125 -5.515625 C 32.570312 -3.546875 30.65625 -2.003906 28.375 -0.890625 C 26.09375 0.222656 23.707031 0.78125 21.21875 0.78125 C 18.320312 0.78125 15.5625 0.0390625 12.9375 -1.4375 C 10.320312 -2.914062 8.238281 -4.925781 6.6875 -7.46875 C 5.957031 -8.65625 5.398438 -10.128906 5.015625 -11.890625 C 4.628906 -13.660156 4.4375 -15.554688 4.4375 -17.578125 L 4.4375 -31.5625 C 4.488281 -33.320312 4.96875 -34.71875 5.875 -35.75 C 6.78125 -36.789062 8.007812 -37.3125 9.5625 -37.3125 C 11.113281 -37.3125 12.367188 -36.78125 13.328125 -35.71875 C 14.285156 -34.65625 14.765625 -33.269531 14.765625 -31.5625 L 14.765625 -18.5 C 14.765625 -16.945312 14.816406 -15.832031 14.921875 -15.15625 C 15.023438 -14.488281 15.207031 -13.84375 15.46875 -13.21875 C 15.9375 -12.175781 16.703125 -11.304688 17.765625 -10.609375 C 18.828125 -9.910156 19.953125 -9.5625 21.140625 -9.5625 C 22.960938 -9.5625 24.46875 -10.207031 25.65625 -11.5 C 26.851562 -12.800781 27.453125 -14.382812 27.453125 -16.25 Z M 27.453125 -18.1875 "/></g></g><g style="fill:#362d3b;fill-opacity:1;"><g transform="translate(225.318284, 186.13134)"><path style="stroke:none" d="M 4.4375 -6.375 L 4.4375 -21.921875 C 4.4375 -24.046875 4.863281 -26.050781 5.71875 -27.9375 C 6.570312 -29.832031 7.722656 -31.492188 9.171875 -32.921875 C 10.617188 -34.347656 12.316406 -35.472656 14.265625 -36.296875 C 16.210938 -37.128906 18.273438 -37.546875 20.453125 -37.546875 C 24.234375 -37.546875 27.910156 -36.148438 31.484375 -33.359375 C 34.753906 -36.148438 38.359375 -37.546875 42.296875 -37.546875 C 44.523438 -37.546875 46.609375 -37.117188 48.546875 -36.265625 C 50.492188 -35.410156 52.207031 -34.242188 53.6875 -32.765625 C 55.164062 -31.296875 56.332031 -29.5625 57.1875 -27.5625 C 58.039062 -25.5625 58.46875 -23.445312 58.46875 -21.21875 L 58.46875 -5.203125 C 58.414062 -3.441406 57.9375 -2.039062 57.03125 -1 C 56.125 0.03125 54.894531 0.546875 53.34375 0.546875 C 51.78125 0.546875 50.519531 0.015625 49.5625 -1.046875 C 48.601562 -2.109375 48.125 -3.492188 48.125 -5.203125 L 48.125 -19.28125 C 48.125 -20.625 48.082031 -21.617188 48 -22.265625 C 47.925781 -22.921875 47.757812 -23.535156 47.5 -24.109375 C 47.09375 -25.085938 46.421875 -25.875 45.484375 -26.46875 C 44.546875 -27.070312 43.507812 -27.375 42.375 -27.375 C 41.332031 -27.375 40.382812 -27.125 39.53125 -26.625 C 38.675781 -26.132812 38.039062 -25.445312 37.625 -24.5625 C 37.269531 -23.84375 37.023438 -23.117188 36.890625 -22.390625 C 36.765625 -21.660156 36.703125 -20.625 36.703125 -19.28125 L 36.703125 -5.203125 C 36.703125 -3.441406 36.234375 -2.039062 35.296875 -1 C 34.367188 0.03125 33.125 0.546875 31.5625 0.546875 C 30.007812 0.546875 28.753906 0.015625 27.796875 -1.046875 C 26.835938 -2.109375 26.359375 -3.492188 26.359375 -5.203125 L 26.359375 -19.28125 C 26.359375 -21.144531 26.203125 -22.597656 25.890625 -23.640625 C 25.578125 -24.773438 24.925781 -25.707031 23.9375 -26.4375 C 22.957031 -27.164062 21.847656 -27.53125 20.609375 -27.53125 C 19.304688 -27.53125 18.175781 -27.175781 17.21875 -26.46875 C 16.257812 -25.769531 15.597656 -24.828125 15.234375 -23.640625 C 15.023438 -23.066406 14.894531 -22.484375 14.84375 -21.890625 C 14.789062 -21.296875 14.765625 -20.425781 14.765625 -19.28125 L 14.765625 -5.203125 C 14.710938 -3.441406 14.21875 -2.039062 13.28125 -1 C 12.351562 0.03125 11.113281 0.546875 9.5625 0.546875 C 8.0625 0.546875 6.832031 0.015625 5.875 -1.046875 C 4.914062 -2.109375 4.4375 -3.492188 4.4375 -5.203125 Z M 4.4375 -6.375 "/></g></g><g style="fill:#362d3b;fill-opacity:1;"><g transform="translate(289.689122, 186.13134)"><path style="stroke:none" d="M 4.828125 -6.375 L 4.828125 -31.5625 C 4.867188 -33.320312 5.359375 -34.71875 6.296875 -35.75 C 7.234375 -36.789062 8.453125 -37.3125 9.953125 -37.3125 C 11.503906 -37.3125 12.757812 -36.78125 13.71875 -35.71875 C 14.675781 -34.65625 15.15625 -33.269531 15.15625 -31.5625 L 15.15625 -5.203125 C 15.101562 -3.441406 14.609375 -2.039062 13.671875 -1 C 12.742188 0.03125 11.53125 0.546875 10.03125 0.546875 C 8.476562 0.546875 7.222656 0.015625 6.265625 -1.046875 C 5.304688 -2.109375 4.828125 -3.492188 4.828125 -5.203125 Z M 9.953125 -51.9375 C 11.660156 -51.9375 13.109375 -51.335938 14.296875 -50.140625 C 15.492188 -48.953125 16.09375 -47.503906 16.09375 -45.796875 C 16.09375 -44.085938 15.484375 -42.625 14.265625 -41.40625 C 13.046875 -40.1875 11.554688 -39.578125 9.796875 -39.578125 C 8.960938 -39.578125 8.171875 -39.742188 7.421875 -40.078125 C 6.671875 -40.410156 6.007812 -40.847656 5.4375 -41.390625 C 4.875 -41.941406 4.421875 -42.578125 4.078125 -43.296875 C 3.742188 -44.023438 3.578125 -44.804688 3.578125 -45.640625 C 3.578125 -47.453125 4.1875 -48.953125 5.40625 -50.140625 C 6.625 -51.335938 8.140625 -51.9375 9.953125 -51.9375 Z M 9.953125 -51.9375 "/></g></g></g></svg>