<svg xmlns="http://www.w3.org/2000/svg" xmlns:xlink="http://www.w3.org/1999/xlink" width="1080" zoomAndPan="magnify" viewBox="0 0 810 1439.999935" height="1920" preserveAspectRatio="xMidYMid meet" version="1.2"><defs><filter x="0%" y="0%" width="100%" filterUnits="objectBoundingBox" id="441d63e130" height="100%"><feColorMatrix values="0 0 0 0 1 0 0 0 0 1 0 0 0 0 1 0 0 0 1 0" type="matrix" in="SourceGraphic"/></filter><clipPath id="bc6b0dc91f"><rect x="0" width="810" y="0" height="1440"/></clipPath><clipPath id="844e80b322"><path d="M 40.5 668.808594 L 769.601562 668.808594 L 769.601562 771.191406 L 40.5 771.191406 Z M 40.5 668.808594 "/></clipPath><clipPath id="a3fc358a8e"><path d="M 91.691406 668.808594 L 718.308594 668.808594 C 746.578125 668.808594 769.5 691.726562 769.5 720 C 769.5 748.273438 746.578125 771.191406 718.308594 771.191406 L 91.691406 771.191406 C 63.421875 771.191406 40.5 748.273438 40.5 720 C 40.5 691.726562 63.421875 668.808594 91.691406 668.808594 Z M 91.691406 668.808594 "/></clipPath><clipPath id="79d12b2fc0"><path d="M 343.21875 802.589844 L 466.96875 802.589844 L 466.96875 926.339844 L 343.21875 926.339844 Z M 343.21875 802.589844 "/></clipPath></defs><g id="83e4f80195"><rect x="0" width="810" y="0" height="1439.999935" style="fill:#ffffff;fill-opacity:1;stroke:none;"/><rect x="0" width="810" y="0" height="1439.999935" style="fill:#ccb5c8;fill-opacity:1;stroke:none;"/><g mask="url(#91fe5725b6)" transform="matrix(1,0,0,1,0,-0.000000000000101068)"><g clip-path="url(#bc6b0dc91f)"><path style=" stroke:none;fill-rule:nonzero;fill:#8d748d;fill-opacity:1;" d="M 1649.074219 100.839844 L 1649.074219 92.59375 L 1556.480469 92.59375 L 1556.480469 0 L 1548.234375 0 L 1548.234375 92.59375 L 1452.503906 92.59375 L 1452.503906 0 L 1444.257812 0 L 1444.257812 92.59375 L 1348.53125 92.59375 L 1348.53125 0 L 1340.285156 0 L 1340.285156 92.59375 L 1244.554688 92.59375 L 1244.554688 0 L 1236.3125 0 L 1236.3125 92.59375 L 1140.582031 92.59375 L 1140.582031 0 L 1132.335938 0 L 1132.335938 92.59375 L 1036.609375 92.59375 L 1036.609375 0 L 1028.363281 0 L 1028.363281 92.59375 L 932.632812 92.59375 L 932.632812 0 L 924.386719 0 L 924.386719 92.59375 L 828.660156 92.59375 L 828.660156 0 L 820.414062 0 L 820.414062 92.59375 L 724.6875 92.59375 L 724.6875 0 L 716.441406 0 L 716.441406 92.59375 L 620.710938 92.59375 L 620.710938 0 L 612.464844 0 L 612.464844 92.59375 L 516.738281 92.59375 L 516.738281 0 L 508.492188 0 L 508.492188 92.59375 L 412.761719 92.59375 L 412.761719 0 L 404.519531 0 L 404.519531 92.59375 L 308.789062 92.59375 L 308.789062 0 L 300.542969 0 L 300.542969 92.59375 L 204.816406 92.59375 L 204.816406 0 L 196.570312 0 L 196.570312 92.59375 L 100.839844 92.59375 L 100.839844 0 L 92.59375 0 L 92.59375 92.59375 L 0 92.59375 L 0 100.839844 L 92.59375 100.839844 L 92.59375 196.570312 L 0 196.570312 L 0 204.816406 L 92.59375 204.816406 L 92.59375 300.542969 L 0 300.542969 L 0 308.789062 L 92.59375 308.789062 L 92.59375 404.519531 L 0 404.519531 L 0 412.761719 L 92.59375 412.761719 L 92.59375 508.492188 L 0 508.492188 L 0 516.738281 L 92.59375 516.738281 L 92.59375 612.464844 L 0 612.464844 L 0 620.710938 L 92.59375 620.710938 L 92.59375 716.441406 L 0 716.441406 L 0 724.6875 L 92.59375 724.6875 L 92.59375 820.414062 L 0 820.414062 L 0 828.660156 L 92.59375 828.660156 L 92.59375 924.386719 L 0 924.386719 L 0 932.632812 L 92.59375 932.632812 L 92.59375 1028.363281 L 0 1028.363281 L 0 1036.609375 L 92.59375 1036.609375 L 92.59375 1132.335938 L 0 1132.335938 L 0 1140.582031 L 92.59375 1140.582031 L 92.59375 1236.3125 L 0 1236.3125 L 0 1244.554688 L 92.59375 1244.554688 L 92.59375 1340.285156 L 0 1340.285156 L 0 1348.53125 L 92.59375 1348.53125 L 92.59375 1444.257812 L 0 1444.257812 L 0 1452.503906 L 92.59375 1452.503906 L 92.59375 1548.234375 L 0 1548.234375 L 0 1556.480469 L 92.59375 1556.480469 L 92.59375 1649.074219 L 100.839844 1649.074219 L 100.839844 1556.480469 L 196.570312 1556.480469 L 196.570312 1649.074219 L 204.816406 1649.074219 L 204.816406 1556.480469 L 300.542969 1556.480469 L 300.542969 1649.074219 L 308.789062 1649.074219 L 308.789062 1556.480469 L 404.519531 1556.480469 L 404.519531 1649.074219 L 412.761719 1649.074219 L 412.761719 1556.480469 L 508.492188 1556.480469 L 508.492188 1649.074219 L 516.738281 1649.074219 L 516.738281 1556.480469 L 612.464844 1556.480469 L 612.464844 1649.074219 L 620.710938 1649.074219 L 620.710938 1556.480469 L 716.441406 1556.480469 L 716.441406 1649.074219 L 724.6875 1649.074219 L 724.6875 1556.480469 L 820.414062 1556.480469 L 820.414062 1649.074219 L 828.660156 1649.074219 L 828.660156 1556.480469 L 924.386719 1556.480469 L 924.386719 1649.074219 L 932.632812 1649.074219 L 932.632812 1556.480469 L 1028.363281 1556.480469 L 1028.363281 1649.074219 L 1036.609375 1649.074219 L 1036.609375 1556.480469 L 1132.335938 1556.480469 L 1132.335938 1649.074219 L 1140.582031 1649.074219 L 1140.582031 1556.480469 L 1236.3125 1556.480469 L 1236.3125 1649.074219 L 1244.554688 1649.074219 L 1244.554688 1556.480469 L 1340.285156 1556.480469 L 1340.285156 1649.074219 L 1348.53125 1649.074219 L 1348.53125 1556.480469 L 1444.257812 1556.480469 L 1444.257812 1649.074219 L 1452.503906 1649.074219 L 1452.503906 1556.480469 L 1548.234375 1556.480469 L 1548.234375 1649.074219 L 1556.480469 1649.074219 L 1556.480469 1556.480469 L 1649.074219 1556.480469 L 1649.074219 1548.234375 L 1556.480469 1548.234375 L 1556.480469 1452.503906 L 1649.074219 1452.503906 L 1649.074219 1444.257812 L 1556.480469 1444.257812 L 1556.480469 1348.53125 L 1649.074219 1348.53125 L 1649.074219 1340.285156 L 1556.480469 1340.285156 L 1556.480469 1244.554688 L 1649.074219 1244.554688 L 1649.074219 1236.3125 L 1556.480469 1236.3125 L 1556.480469 1140.582031 L 1649.074219 1140.582031 L 1649.074219 1132.335938 L 1556.480469 1132.335938 L 1556.480469 1036.609375 L 1649.074219 1036.609375 L 1649.074219 1028.363281 L 1556.480469 1028.363281 L 1556.480469 932.632812 L 1649.074219 932.632812 L 1649.074219 924.386719 L 1556.480469 924.386719 L 1556.480469 828.660156 L 1649.074219 828.660156 L 1649.074219 820.414062 L 1556.480469 820.414062 L 1556.480469 724.6875 L 1649.074219 724.6875 L 1649.074219 716.441406 L 1556.480469 716.441406 L 1556.480469 620.710938 L 1649.074219 620.710938 L 1649.074219 612.464844 L 1556.480469 612.464844 L 1556.480469 516.738281 L 1649.074219 516.738281 L 1649.074219 508.492188 L 1556.480469 508.492188 L 1556.480469 412.761719 L 1649.074219 412.761719 L 1649.074219 404.519531 L 1556.480469 404.519531 L 1556.480469 308.789062 L 1649.074219 308.789062 L 1649.074219 300.542969 L 1556.480469 300.542969 L 1556.480469 204.816406 L 1649.074219 204.816406 L 1649.074219 196.570312 L 1556.480469 196.570312 L 1556.480469 100.839844 Z M 1444.257812 100.839844 L 1444.257812 196.570312 L 1348.53125 196.570312 L 1348.53125 100.839844 Z M 820.414062 828.660156 L 820.414062 924.386719 L 724.6875 924.386719 L 724.6875 828.660156 Z M 724.6875 820.414062 L 724.6875 724.6875 L 820.414062 724.6875 L 820.414062 820.414062 Z M 828.660156 828.660156 L 924.386719 828.660156 L 924.386719 924.386719 L 828.660156 924.386719 Z M 828.660156 820.414062 L 828.660156 724.6875 L 924.386719 724.6875 L 924.386719 820.414062 Z M 828.660156 716.441406 L 828.660156 620.710938 L 924.386719 620.710938 L 924.386719 716.441406 Z M 820.414062 716.441406 L 724.6875 716.441406 L 724.6875 620.710938 L 820.414062 620.710938 Z M 716.441406 716.441406 L 620.710938 716.441406 L 620.710938 620.710938 L 716.441406 620.710938 Z M 716.441406 724.6875 L 716.441406 820.414062 L 620.710938 820.414062 L 620.710938 724.6875 Z M 716.441406 828.660156 L 716.441406 924.386719 L 620.710938 924.386719 L 620.710938 828.660156 Z M 716.441406 932.632812 L 716.441406 1028.363281 L 620.710938 1028.363281 L 620.710938 932.632812 Z M 724.6875 932.632812 L 820.414062 932.632812 L 820.414062 1028.363281 L 724.6875 1028.363281 Z M 828.660156 932.632812 L 924.386719 932.632812 L 924.386719 1028.363281 L 828.660156 1028.363281 Z M 932.632812 932.632812 L 1028.363281 932.632812 L 1028.363281 1028.363281 L 932.632812 1028.363281 Z M 932.632812 924.386719 L 932.632812 828.660156 L 1028.363281 828.660156 L 1028.363281 924.386719 Z M 932.632812 820.414062 L 932.632812 724.6875 L 1028.363281 724.6875 L 1028.363281 820.414062 Z M 932.632812 716.441406 L 932.632812 620.710938 L 1028.363281 620.710938 L 1028.363281 716.441406 Z M 932.632812 612.464844 L 932.632812 516.738281 L 1028.363281 516.738281 L 1028.363281 612.464844 Z M 924.386719 612.464844 L 828.660156 612.464844 L 828.660156 516.738281 L 924.386719 516.738281 Z M 820.414062 612.464844 L 724.6875 612.464844 L 724.6875 516.738281 L 820.414062 516.738281 Z M 716.441406 612.464844 L 620.710938 612.464844 L 620.710938 516.738281 L 716.441406 516.738281 Z M 612.464844 612.464844 L 516.738281 612.464844 L 516.738281 516.738281 L 612.464844 516.738281 Z M 612.464844 620.710938 L 612.464844 716.441406 L 516.738281 716.441406 L 516.738281 620.710938 Z M 612.464844 724.6875 L 612.464844 820.414062 L 516.738281 820.414062 L 516.738281 724.6875 Z M 612.464844 828.660156 L 612.464844 924.386719 L 516.738281 924.386719 L 516.738281 828.660156 Z M 612.464844 932.632812 L 612.464844 1028.363281 L 516.738281 1028.363281 L 516.738281 932.632812 Z M 612.464844 1036.609375 L 612.464844 1132.335938 L 516.738281 1132.335938 L 516.738281 1036.609375 Z M 620.710938 1036.609375 L 716.441406 1036.609375 L 716.441406 1132.335938 L 620.710938 1132.335938 Z M 724.6875 1036.609375 L 820.414062 1036.609375 L 820.414062 1132.335938 L 724.6875 1132.335938 Z M 828.660156 1036.609375 L 924.386719 1036.609375 L 924.386719 1132.335938 L 828.660156 1132.335938 Z M 932.632812 1036.609375 L 1028.363281 1036.609375 L 1028.363281 1132.335938 L 932.632812 1132.335938 Z M 1036.609375 1036.609375 L 1132.335938 1036.609375 L 1132.335938 1132.335938 L 1036.609375 1132.335938 Z M 1036.609375 1028.363281 L 1036.609375 932.632812 L 1132.335938 932.632812 L 1132.335938 1028.363281 Z M 1036.609375 924.386719 L 1036.609375 828.660156 L 1132.335938 828.660156 L 1132.335938 924.386719 Z M 1036.609375 820.414062 L 1036.609375 724.6875 L 1132.335938 724.6875 L 1132.335938 820.414062 Z M 1036.609375 716.441406 L 1036.609375 620.710938 L 1132.335938 620.710938 L 1132.335938 716.441406 Z M 1036.609375 612.464844 L 1036.609375 516.738281 L 1132.335938 516.738281 L 1132.335938 612.464844 Z M 1036.609375 508.492188 L 1036.609375 412.761719 L 1132.335938 412.761719 L 1132.335938 508.492188 Z M 1028.363281 508.492188 L 932.632812 508.492188 L 932.632812 412.761719 L 1028.363281 412.761719 Z M 924.386719 508.492188 L 828.660156 508.492188 L 828.660156 412.761719 L 924.386719 412.761719 Z M 820.414062 508.492188 L 724.6875 508.492188 L 724.6875 412.761719 L 820.414062 412.761719 Z M 716.441406 508.492188 L 620.710938 508.492188 L 620.710938 412.761719 L 716.441406 412.761719 Z M 612.464844 508.492188 L 516.738281 508.492188 L 516.738281 412.761719 L 612.464844 412.761719 Z M 508.492188 508.492188 L 412.761719 508.492188 L 412.761719 412.761719 L 508.492188 412.761719 Z M 508.492188 516.738281 L 508.492188 612.464844 L 412.761719 612.464844 L 412.761719 516.738281 Z M 508.492188 620.710938 L 508.492188 716.441406 L 412.761719 716.441406 L 412.761719 620.710938 Z M 508.492188 724.6875 L 508.492188 820.414062 L 412.761719 820.414062 L 412.761719 724.6875 Z M 508.492188 828.660156 L 508.492188 924.386719 L 412.761719 924.386719 L 412.761719 828.660156 Z M 508.492188 932.632812 L 508.492188 1028.363281 L 412.761719 1028.363281 L 412.761719 932.632812 Z M 508.492188 1036.609375 L 508.492188 1132.335938 L 412.761719 1132.335938 L 412.761719 1036.609375 Z M 508.492188 1140.582031 L 508.492188 1236.3125 L 412.761719 1236.3125 L 412.761719 1140.582031 Z M 516.738281 1140.582031 L 612.464844 1140.582031 L 612.464844 1236.3125 L 516.738281 1236.3125 Z M 620.710938 1140.582031 L 716.441406 1140.582031 L 716.441406 1236.3125 L 620.710938 1236.3125 Z M 724.6875 1140.582031 L 820.414062 1140.582031 L 820.414062 1236.3125 L 724.6875 1236.3125 Z M 828.660156 1140.582031 L 924.386719 1140.582031 L 924.386719 1236.3125 L 828.660156 1236.3125 Z M 932.632812 1140.582031 L 1028.363281 1140.582031 L 1028.363281 1236.3125 L 932.632812 1236.3125 Z M 1036.609375 1140.582031 L 1132.335938 1140.582031 L 1132.335938 1236.3125 L 1036.609375 1236.3125 Z M 1140.582031 1140.582031 L 1236.3125 1140.582031 L 1236.3125 1236.3125 L 1140.582031 1236.3125 Z M 1140.582031 1132.335938 L 1140.582031 1036.609375 L 1236.3125 1036.609375 L 1236.3125 1132.335938 Z M 1140.582031 1028.363281 L 1140.582031 932.632812 L 1236.3125 932.632812 L 1236.3125 1028.363281 Z M 1140.582031 924.386719 L 1140.582031 828.660156 L 1236.3125 828.660156 L 1236.3125 924.386719 Z M 1140.582031 820.414062 L 1140.582031 724.6875 L 1236.3125 724.6875 L 1236.3125 820.414062 Z M 1140.582031 716.441406 L 1140.582031 620.710938 L 1236.3125 620.710938 L 1236.3125 716.441406 Z M 1140.582031 612.464844 L 1140.582031 516.738281 L 1236.3125 516.738281 L 1236.3125 612.464844 Z M 1140.582031 508.492188 L 1140.582031 412.761719 L 1236.3125 412.761719 L 1236.3125 508.492188 Z M 1140.582031 404.519531 L 1140.582031 308.789062 L 1236.3125 308.789062 L 1236.3125 404.519531 Z M 1132.335938 404.519531 L 1036.609375 404.519531 L 1036.609375 308.789062 L 1132.335938 308.789062 Z M 1028.363281 404.519531 L 932.632812 404.519531 L 932.632812 308.789062 L 1028.363281 308.789062 Z M 924.386719 404.519531 L 828.660156 404.519531 L 828.660156 308.789062 L 924.386719 308.789062 Z M 820.414062 404.519531 L 724.6875 404.519531 L 724.6875 308.789062 L 820.414062 308.789062 Z M 716.441406 404.519531 L 620.710938 404.519531 L 620.710938 308.789062 L 716.441406 308.789062 Z M 612.464844 404.519531 L 516.738281 404.519531 L 516.738281 308.789062 L 612.464844 308.789062 Z M 508.492188 404.519531 L 412.761719 404.519531 L 412.761719 308.789062 L 508.492188 308.789062 Z M 404.519531 404.519531 L 308.789062 404.519531 L 308.789062 308.789062 L 404.519531 308.789062 Z M 404.519531 412.761719 L 404.519531 508.492188 L 308.789062 508.492188 L 308.789062 412.761719 Z M 404.519531 516.738281 L 404.519531 612.464844 L 308.789062 612.464844 L 308.789062 516.738281 Z M 404.519531 620.710938 L 404.519531 716.441406 L 308.789062 716.441406 L 308.789062 620.710938 Z M 404.519531 724.6875 L 404.519531 820.414062 L 308.789062 820.414062 L 308.789062 724.6875 Z M 404.519531 828.660156 L 404.519531 924.386719 L 308.789062 924.386719 L 308.789062 828.660156 Z M 404.519531 932.632812 L 404.519531 1028.363281 L 308.789062 1028.363281 L 308.789062 932.632812 Z M 404.519531 1036.609375 L 404.519531 1132.335938 L 308.789062 1132.335938 L 308.789062 1036.609375 Z M 404.519531 1140.582031 L 404.519531 1236.3125 L 308.789062 1236.3125 L 308.789062 1140.582031 Z M 404.519531 1244.554688 L 404.519531 1340.285156 L 308.789062 1340.285156 L 308.789062 1244.554688 Z M 412.761719 1244.554688 L 508.492188 1244.554688 L 508.492188 1340.285156 L 412.761719 1340.285156 Z M 516.738281 1244.554688 L 612.464844 1244.554688 L 612.464844 1340.285156 L 516.738281 1340.285156 Z M 620.710938 1244.554688 L 716.441406 1244.554688 L 716.441406 1340.285156 L 620.710938 1340.285156 Z M 724.6875 1244.554688 L 820.414062 1244.554688 L 820.414062 1340.285156 L 724.6875 1340.285156 Z M 828.660156 1244.554688 L 924.386719 1244.554688 L 924.386719 1340.285156 L 828.660156 1340.285156 Z M 932.632812 1244.554688 L 1028.363281 1244.554688 L 1028.363281 1340.285156 L 932.632812 1340.285156 Z M 1036.609375 1244.554688 L 1132.335938 1244.554688 L 1132.335938 1340.285156 L 1036.609375 1340.285156 Z M 1140.582031 1244.554688 L 1236.3125 1244.554688 L 1236.3125 1340.285156 L 1140.582031 1340.285156 Z M 1244.554688 1244.554688 L 1340.285156 1244.554688 L 1340.285156 1340.285156 L 1244.554688 1340.285156 Z M 1244.554688 1236.3125 L 1244.554688 1140.582031 L 1340.285156 1140.582031 L 1340.285156 1236.3125 Z M 1244.554688 1132.335938 L 1244.554688 1036.609375 L 1340.285156 1036.609375 L 1340.285156 1132.335938 Z M 1244.554688 1028.363281 L 1244.554688 932.632812 L 1340.285156 932.632812 L 1340.285156 1028.363281 Z M 1244.554688 924.386719 L 1244.554688 828.660156 L 1340.285156 828.660156 L 1340.285156 924.386719 Z M 1244.554688 820.414062 L 1244.554688 724.6875 L 1340.285156 724.6875 L 1340.285156 820.414062 Z M 1244.554688 716.441406 L 1244.554688 620.710938 L 1340.285156 620.710938 L 1340.285156 716.441406 Z M 1244.554688 612.464844 L 1244.554688 516.738281 L 1340.285156 516.738281 L 1340.285156 612.464844 Z M 1244.554688 508.492188 L 1244.554688 412.761719 L 1340.285156 412.761719 L 1340.285156 508.492188 Z M 1244.554688 404.519531 L 1244.554688 308.789062 L 1340.285156 308.789062 L 1340.285156 404.519531 Z M 1244.554688 300.542969 L 1244.554688 204.816406 L 1340.285156 204.816406 L 1340.285156 300.542969 Z M 1236.3125 300.542969 L 1140.582031 300.542969 L 1140.582031 204.816406 L 1236.3125 204.816406 Z M 1132.335938 300.542969 L 1036.609375 300.542969 L 1036.609375 204.816406 L 1132.335938 204.816406 Z M 1028.363281 300.542969 L 932.632812 300.542969 L 932.632812 204.816406 L 1028.363281 204.816406 Z M 924.386719 300.542969 L 828.660156 300.542969 L 828.660156 204.816406 L 924.386719 204.816406 Z M 820.414062 300.542969 L 724.6875 300.542969 L 724.6875 204.816406 L 820.414062 204.816406 Z M 716.441406 300.542969 L 620.710938 300.542969 L 620.710938 204.816406 L 716.441406 204.816406 Z M 612.464844 300.542969 L 516.738281 300.542969 L 516.738281 204.816406 L 612.464844 204.816406 Z M 508.492188 300.542969 L 412.761719 300.542969 L 412.761719 204.816406 L 508.492188 204.816406 Z M 404.519531 300.542969 L 308.789062 300.542969 L 308.789062 204.816406 L 404.519531 204.816406 Z M 300.542969 300.542969 L 204.816406 300.542969 L 204.816406 204.816406 L 300.542969 204.816406 Z M 300.542969 308.789062 L 300.542969 404.519531 L 204.816406 404.519531 L 204.816406 308.789062 Z M 300.542969 412.761719 L 300.542969 508.492188 L 204.816406 508.492188 L 204.816406 412.761719 Z M 300.542969 516.738281 L 300.542969 612.464844 L 204.816406 612.464844 L 204.816406 516.738281 Z M 300.542969 620.710938 L 300.542969 716.441406 L 204.816406 716.441406 L 204.816406 620.710938 Z M 300.542969 724.6875 L 300.542969 820.414062 L 204.816406 820.414062 L 204.816406 724.6875 Z M 300.542969 828.660156 L 300.542969 924.386719 L 204.816406 924.386719 L 204.816406 828.660156 Z M 300.542969 932.632812 L 300.542969 1028.363281 L 204.816406 1028.363281 L 204.816406 932.632812 Z M 300.542969 1036.609375 L 300.542969 1132.335938 L 204.816406 1132.335938 L 204.816406 1036.609375 Z M 300.542969 1140.582031 L 300.542969 1236.3125 L 204.816406 1236.3125 L 204.816406 1140.582031 Z M 300.542969 1244.554688 L 300.542969 1340.285156 L 204.816406 1340.285156 L 204.816406 1244.554688 Z M 300.542969 1348.53125 L 300.542969 1444.257812 L 204.816406 1444.257812 L 204.816406 1348.53125 Z M 308.789062 1348.53125 L 404.519531 1348.53125 L 404.519531 1444.257812 L 308.789062 1444.257812 Z M 412.761719 1348.53125 L 508.492188 1348.53125 L 508.492188 1444.257812 L 412.761719 1444.257812 Z M 516.738281 1348.53125 L 612.464844 1348.53125 L 612.464844 1444.257812 L 516.738281 1444.257812 Z M 620.710938 1348.53125 L 716.441406 1348.53125 L 716.441406 1444.257812 L 620.710938 1444.257812 Z M 724.6875 1348.53125 L 820.414062 1348.53125 L 820.414062 1444.257812 L 724.6875 1444.257812 Z M 828.660156 1348.53125 L 924.386719 1348.53125 L 924.386719 1444.257812 L 828.660156 1444.257812 Z M 932.632812 1348.53125 L 1028.363281 1348.53125 L 1028.363281 1444.257812 L 932.632812 1444.257812 Z M 1036.609375 1348.53125 L 1132.335938 1348.53125 L 1132.335938 1444.257812 L 1036.609375 1444.257812 Z M 1140.582031 1348.53125 L 1236.3125 1348.53125 L 1236.3125 1444.257812 L 1140.582031 1444.257812 Z M 1244.554688 1348.53125 L 1340.285156 1348.53125 L 1340.285156 1444.257812 L 1244.554688 1444.257812 Z M 1348.53125 1348.53125 L 1444.257812 1348.53125 L 1444.257812 1444.257812 L 1348.53125 1444.257812 Z M 1348.53125 1340.285156 L 1348.53125 1244.554688 L 1444.257812 1244.554688 L 1444.257812 1340.285156 Z M 1348.53125 1236.3125 L 1348.53125 1140.582031 L 1444.257812 1140.582031 L 1444.257812 1236.3125 Z M 1348.53125 1132.335938 L 1348.53125 1036.609375 L 1444.257812 1036.609375 L 1444.257812 1132.335938 Z M 1348.53125 1028.363281 L 1348.53125 932.632812 L 1444.257812 932.632812 L 1444.257812 1028.363281 Z M 1348.53125 924.386719 L 1348.53125 828.660156 L 1444.257812 828.660156 L 1444.257812 924.386719 Z M 1348.53125 820.414062 L 1348.53125 724.6875 L 1444.257812 724.6875 L 1444.257812 820.414062 Z M 1348.53125 716.441406 L 1348.53125 620.710938 L 1444.257812 620.710938 L 1444.257812 716.441406 Z M 1348.53125 612.464844 L 1348.53125 516.738281 L 1444.257812 516.738281 L 1444.257812 612.464844 Z M 1348.53125 508.492188 L 1348.53125 412.761719 L 1444.257812 412.761719 L 1444.257812 508.492188 Z M 1348.53125 404.519531 L 1348.53125 308.789062 L 1444.257812 308.789062 L 1444.257812 404.519531 Z M 1348.53125 300.542969 L 1348.53125 204.816406 L 1444.257812 204.816406 L 1444.257812 300.542969 Z M 1340.285156 100.839844 L 1340.285156 196.570312 L 1244.554688 196.570312 L 1244.554688 100.839844 Z M 1236.3125 100.839844 L 1236.3125 196.570312 L 1140.582031 196.570312 L 1140.582031 100.839844 Z M 1132.335938 100.839844 L 1132.335938 196.570312 L 1036.609375 196.570312 L 1036.609375 100.839844 Z M 1028.363281 100.839844 L 1028.363281 196.570312 L 932.632812 196.570312 L 932.632812 100.839844 Z M 924.386719 100.839844 L 924.386719 196.570312 L 828.660156 196.570312 L 828.660156 100.839844 Z M 820.414062 100.839844 L 820.414062 196.570312 L 724.6875 196.570312 L 724.6875 100.839844 Z M 716.441406 100.839844 L 716.441406 196.570312 L 620.710938 196.570312 L 620.710938 100.839844 Z M 612.464844 100.839844 L 612.464844 196.570312 L 516.738281 196.570312 L 516.738281 100.839844 Z M 508.492188 100.839844 L 508.492188 196.570312 L 412.761719 196.570312 L 412.761719 100.839844 Z M 404.519531 100.839844 L 404.519531 196.570312 L 308.789062 196.570312 L 308.789062 100.839844 Z M 300.542969 100.839844 L 300.542969 196.570312 L 204.816406 196.570312 L 204.816406 100.839844 Z M 100.839844 100.839844 L 196.570312 100.839844 L 196.570312 196.570312 L 100.839844 196.570312 Z M 100.839844 204.816406 L 196.570312 204.816406 L 196.570312 300.542969 L 100.839844 300.542969 Z M 100.839844 308.789062 L 196.570312 308.789062 L 196.570312 404.519531 L 100.839844 404.519531 Z M 100.839844 412.761719 L 196.570312 412.761719 L 196.570312 508.492188 L 100.839844 508.492188 Z M 100.839844 516.738281 L 196.570312 516.738281 L 196.570312 612.464844 L 100.839844 612.464844 Z M 100.839844 620.710938 L 196.570312 620.710938 L 196.570312 716.441406 L 100.839844 716.441406 Z M 100.839844 724.6875 L 196.570312 724.6875 L 196.570312 820.414062 L 100.839844 820.414062 Z M 100.839844 828.660156 L 196.570312 828.660156 L 196.570312 924.386719 L 100.839844 924.386719 Z M 100.839844 932.632812 L 196.570312 932.632812 L 196.570312 1028.363281 L 100.839844 1028.363281 Z M 100.839844 1036.609375 L 196.570312 1036.609375 L 196.570312 1132.335938 L 100.839844 1132.335938 Z M 100.839844 1140.582031 L 196.570312 1140.582031 L 196.570312 1236.3125 L 100.839844 1236.3125 Z M 100.839844 1244.554688 L 196.570312 1244.554688 L 196.570312 1340.285156 L 100.839844 1340.285156 Z M 100.839844 1348.53125 L 196.570312 1348.53125 L 196.570312 1444.257812 L 100.839844 1444.257812 Z M 100.839844 1548.234375 L 100.839844 1452.503906 L 196.570312 1452.503906 L 196.570312 1548.234375 Z M 204.816406 1548.234375 L 204.816406 1452.503906 L 300.542969 1452.503906 L 300.542969 1548.234375 Z M 308.789062 1548.234375 L 308.789062 1452.503906 L 404.519531 1452.503906 L 404.519531 1548.234375 Z M 412.761719 1548.234375 L 412.761719 1452.503906 L 508.492188 1452.503906 L 508.492188 1548.234375 Z M 516.738281 1548.234375 L 516.738281 1452.503906 L 612.464844 1452.503906 L 612.464844 1548.234375 Z M 620.710938 1548.234375 L 620.710938 1452.503906 L 716.441406 1452.503906 L 716.441406 1548.234375 Z M 724.6875 1548.234375 L 724.6875 1452.503906 L 820.414062 1452.503906 L 820.414062 1548.234375 Z M 828.660156 1548.234375 L 828.660156 1452.503906 L 924.386719 1452.503906 L 924.386719 1548.234375 Z M 932.632812 1548.234375 L 932.632812 1452.503906 L 1028.363281 1452.503906 L 1028.363281 1548.234375 Z M 1036.609375 1548.234375 L 1036.609375 1452.503906 L 1132.335938 1452.503906 L 1132.335938 1548.234375 Z M 1140.582031 1548.234375 L 1140.582031 1452.503906 L 1236.3125 1452.503906 L 1236.3125 1548.234375 Z M 1244.554688 1548.234375 L 1244.554688 1452.503906 L 1340.285156 1452.503906 L 1340.285156 1548.234375 Z M 1348.53125 1548.234375 L 1348.53125 1452.503906 L 1444.257812 1452.503906 L 1444.257812 1548.234375 Z M 1548.234375 1548.234375 L 1452.503906 1548.234375 L 1452.503906 1452.503906 L 1548.234375 1452.503906 Z M 1548.234375 1444.257812 L 1452.503906 1444.257812 L 1452.503906 1348.53125 L 1548.234375 1348.53125 Z M 1548.234375 1340.285156 L 1452.503906 1340.285156 L 1452.503906 1244.554688 L 1548.234375 1244.554688 Z M 1548.234375 1236.3125 L 1452.503906 1236.3125 L 1452.503906 1140.582031 L 1548.234375 1140.582031 Z M 1548.234375 1132.335938 L 1452.503906 1132.335938 L 1452.503906 1036.609375 L 1548.234375 1036.609375 Z M 1548.234375 1028.363281 L 1452.503906 1028.363281 L 1452.503906 932.632812 L 1548.234375 932.632812 Z M 1548.234375 924.386719 L 1452.503906 924.386719 L 1452.503906 828.660156 L 1548.234375 828.660156 Z M 1548.234375 820.414062 L 1452.503906 820.414062 L 1452.503906 724.6875 L 1548.234375 724.6875 Z M 1548.234375 716.441406 L 1452.503906 716.441406 L 1452.503906 620.710938 L 1548.234375 620.710938 Z M 1548.234375 612.464844 L 1452.503906 612.464844 L 1452.503906 516.738281 L 1548.234375 516.738281 Z M 1548.234375 508.492188 L 1452.503906 508.492188 L 1452.503906 412.761719 L 1548.234375 412.761719 Z M 1548.234375 404.519531 L 1452.503906 404.519531 L 1452.503906 308.789062 L 1548.234375 308.789062 Z M 1548.234375 300.542969 L 1452.503906 300.542969 L 1452.503906 204.816406 L 1548.234375 204.816406 Z M 1548.234375 196.570312 L 1452.503906 196.570312 L 1452.503906 100.839844 L 1548.234375 100.839844 Z M 1548.234375 196.570312 "/></g><mask id="91fe5725b6"><g filter="url(#441d63e130)"><rect x="0" width="810" y="0" height="1439.999935" style="fill:#000000;fill-opacity:0.1;stroke:none;"/></g></mask></g><g clip-rule="nonzero" clip-path="url(#844e80b322)"><g clip-rule="nonzero" clip-path="url(#a3fc358a8e)"><path style=" stroke:none;fill-rule:nonzero;fill:#f0e5f5;fill-opacity:1;" d="M 40.5 668.808594 L 769.601562 668.808594 L 769.601562 771.191406 L 40.5 771.191406 Z M 40.5 668.808594 "/></g></g><g clip-rule="nonzero" clip-path="url(#79d12b2fc0)"><path style=" stroke:none;fill-rule:nonzero;fill:#8d748d;fill-opacity:1;" d="M 404.996094 926.140625 C 370.878906 926.140625 343.21875 898.480469 343.21875 864.363281 C 343.21875 830.246094 370.878906 802.589844 404.996094 802.589844 C 439.113281 802.589844 466.769531 830.246094 466.769531 864.363281 C 466.769531 898.480469 439.113281 926.140625 404.996094 926.140625 Z M 404.996094 926.140625 "/></g><path style=" stroke:none;fill-rule:nonzero;fill:#f4f4f4;fill-opacity:1;" d="M 395.804688 896.3125 L 392.421875 892.933594 L 420.988281 864.363281 L 392.421875 835.796875 L 395.804688 832.417969 L 427.753906 864.363281 Z M 395.804688 896.3125 "/><g style="fill:#3f3245;fill-opacity:1;"><g transform="translate(45.019954, 601.274232)"><path style="stroke:none" d="M 10.28125 0.328125 C 8.4375 0.328125 6.835938 -0.0546875 5.484375 -0.828125 C 4.140625 -1.597656 3.101562 -2.640625 2.375 -3.953125 C 1.65625 -5.273438 1.296875 -6.765625 1.296875 -8.421875 C 1.296875 -10.367188 1.6875 -12.03125 2.46875 -13.40625 C 3.257812 -14.78125 4.289062 -15.832031 5.5625 -16.5625 C 6.84375 -17.300781 8.195312 -17.671875 9.625 -17.671875 C 10.726562 -17.671875 11.769531 -17.441406 12.75 -16.984375 C 13.738281 -16.535156 14.609375 -15.914062 15.359375 -15.125 C 16.117188 -14.332031 16.71875 -13.414062 17.15625 -12.375 C 17.601562 -11.34375 17.828125 -10.242188 17.828125 -9.078125 C 17.804688 -8.554688 17.597656 -8.132812 17.203125 -7.8125 C 16.816406 -7.488281 16.367188 -7.328125 15.859375 -7.328125 L 3.46875 -7.328125 L 2.5 -10.5625 L 14.390625 -10.5625 L 13.6875 -9.921875 L 13.6875 -10.796875 C 13.632812 -11.421875 13.410156 -11.984375 13.015625 -12.484375 C 12.617188 -12.984375 12.125 -13.378906 11.53125 -13.671875 C 10.9375 -13.960938 10.300781 -14.109375 9.625 -14.109375 C 8.976562 -14.109375 8.375 -14.019531 7.8125 -13.84375 C 7.25 -13.664062 6.757812 -13.375 6.34375 -12.96875 C 5.9375 -12.5625 5.613281 -12.007812 5.375 -11.3125 C 5.144531 -10.625 5.03125 -9.75 5.03125 -8.6875 C 5.03125 -7.519531 5.269531 -6.53125 5.75 -5.71875 C 6.238281 -4.90625 6.863281 -4.285156 7.625 -3.859375 C 8.394531 -3.441406 9.210938 -3.234375 10.078125 -3.234375 C 10.878906 -3.234375 11.515625 -3.296875 11.984375 -3.421875 C 12.460938 -3.554688 12.847656 -3.71875 13.140625 -3.90625 C 13.429688 -4.09375 13.695312 -4.25 13.9375 -4.375 C 14.332031 -4.570312 14.703125 -4.671875 15.046875 -4.671875 C 15.515625 -4.671875 15.90625 -4.507812 16.21875 -4.1875 C 16.539062 -3.863281 16.703125 -3.484375 16.703125 -3.046875 C 16.703125 -2.460938 16.398438 -1.929688 15.796875 -1.453125 C 15.234375 -0.984375 14.441406 -0.566406 13.421875 -0.203125 C 12.410156 0.148438 11.363281 0.328125 10.28125 0.328125 Z M 10.28125 0.328125 "/></g></g><g style="fill:#3f3245;fill-opacity:1;"><g transform="translate(85.29655, 601.274232)"><path style="stroke:none" d="M 11.375 -17.671875 C 12.976562 -17.671875 14.195312 -17.332031 15.03125 -16.65625 C 15.863281 -15.988281 16.4375 -15.097656 16.75 -13.984375 C 17.0625 -12.867188 17.21875 -11.632812 17.21875 -10.28125 L 17.21875 -1.984375 C 17.21875 -1.421875 17.03125 -0.945312 16.65625 -0.5625 C 16.289062 -0.1875 15.828125 0 15.265625 0 C 14.703125 0 14.238281 -0.1875 13.875 -0.5625 C 13.507812 -0.945312 13.328125 -1.421875 13.328125 -1.984375 L 13.328125 -10.28125 C 13.328125 -10.988281 13.234375 -11.628906 13.046875 -12.203125 C 12.867188 -12.773438 12.539062 -13.234375 12.0625 -13.578125 C 11.582031 -13.929688 10.898438 -14.109375 10.015625 -14.109375 C 9.148438 -14.109375 8.421875 -13.929688 7.828125 -13.578125 C 7.234375 -13.234375 6.78125 -12.773438 6.46875 -12.203125 C 6.15625 -11.628906 6 -10.988281 6 -10.28125 L 6 -1.984375 C 6 -1.421875 5.8125 -0.945312 5.4375 -0.5625 C 5.070312 -0.1875 4.609375 0 4.046875 0 C 3.484375 0 3.019531 -0.1875 2.65625 -0.5625 C 2.289062 -0.945312 2.109375 -1.421875 2.109375 -1.984375 L 2.109375 -15.375 C 2.109375 -15.925781 2.289062 -16.390625 2.65625 -16.765625 C 3.019531 -17.148438 3.484375 -17.34375 4.046875 -17.34375 C 4.609375 -17.34375 5.070312 -17.148438 5.4375 -16.765625 C 5.8125 -16.390625 6 -15.925781 6 -15.375 L 6 -13.96875 L 5.515625 -14.078125 C 5.703125 -14.441406 5.976562 -14.832031 6.34375 -15.25 C 6.71875 -15.675781 7.148438 -16.070312 7.640625 -16.4375 C 8.140625 -16.800781 8.703125 -17.097656 9.328125 -17.328125 C 9.960938 -17.554688 10.644531 -17.671875 11.375 -17.671875 Z M 11.375 -17.671875 "/></g></g><g style="fill:#3f3245;fill-opacity:1;"><g transform="translate(125.767638, 601.274232)"><path style="stroke:none" d="M 2.296875 -17.015625 L 9.984375 -17.015625 C 10.503906 -17.015625 10.9375 -16.84375 11.28125 -16.5 C 11.625 -16.15625 11.796875 -15.722656 11.796875 -15.203125 C 11.796875 -14.703125 11.625 -14.285156 11.28125 -13.953125 C 10.9375 -13.617188 10.503906 -13.453125 9.984375 -13.453125 L 2.296875 -13.453125 C 1.785156 -13.453125 1.351562 -13.625 1 -13.96875 C 0.65625 -14.320312 0.484375 -14.753906 0.484375 -15.265625 C 0.484375 -15.765625 0.65625 -16.179688 1 -16.515625 C 1.351562 -16.847656 1.785156 -17.015625 2.296875 -17.015625 Z M 5.765625 -21.078125 C 6.328125 -21.078125 6.785156 -20.882812 7.140625 -20.5 C 7.503906 -20.125 7.6875 -19.65625 7.6875 -19.09375 L 7.6875 -4.671875 C 7.6875 -4.367188 7.742188 -4.117188 7.859375 -3.921875 C 7.984375 -3.722656 8.144531 -3.582031 8.34375 -3.5 C 8.550781 -3.414062 8.773438 -3.375 9.015625 -3.375 C 9.273438 -3.375 9.507812 -3.421875 9.71875 -3.515625 C 9.9375 -3.609375 10.1875 -3.65625 10.46875 -3.65625 C 10.769531 -3.65625 11.046875 -3.515625 11.296875 -3.234375 C 11.546875 -2.960938 11.671875 -2.578125 11.671875 -2.078125 C 11.671875 -1.472656 11.335938 -0.972656 10.671875 -0.578125 C 10.015625 -0.191406 9.3125 0 8.5625 0 C 8.101562 0 7.597656 -0.0351562 7.046875 -0.109375 C 6.492188 -0.191406 5.972656 -0.378906 5.484375 -0.671875 C 5.003906 -0.960938 4.601562 -1.410156 4.28125 -2.015625 C 3.957031 -2.617188 3.796875 -3.445312 3.796875 -4.5 L 3.796875 -19.09375 C 3.796875 -19.65625 3.984375 -20.125 4.359375 -20.5 C 4.734375 -20.882812 5.203125 -21.078125 5.765625 -21.078125 Z M 5.765625 -21.078125 "/></g></g><g style="fill:#3f3245;fill-opacity:1;"><g transform="translate(160.015179, 601.274232)"><path style="stroke:none" d="M 10.28125 0.328125 C 8.4375 0.328125 6.835938 -0.0546875 5.484375 -0.828125 C 4.140625 -1.597656 3.101562 -2.640625 2.375 -3.953125 C 1.65625 -5.273438 1.296875 -6.765625 1.296875 -8.421875 C 1.296875 -10.367188 1.6875 -12.03125 2.46875 -13.40625 C 3.257812 -14.78125 4.289062 -15.832031 5.5625 -16.5625 C 6.84375 -17.300781 8.195312 -17.671875 9.625 -17.671875 C 10.726562 -17.671875 11.769531 -17.441406 12.75 -16.984375 C 13.738281 -16.535156 14.609375 -15.914062 15.359375 -15.125 C 16.117188 -14.332031 16.71875 -13.414062 17.15625 -12.375 C 17.601562 -11.34375 17.828125 -10.242188 17.828125 -9.078125 C 17.804688 -8.554688 17.597656 -8.132812 17.203125 -7.8125 C 16.816406 -7.488281 16.367188 -7.328125 15.859375 -7.328125 L 3.46875 -7.328125 L 2.5 -10.5625 L 14.390625 -10.5625 L 13.6875 -9.921875 L 13.6875 -10.796875 C 13.632812 -11.421875 13.410156 -11.984375 13.015625 -12.484375 C 12.617188 -12.984375 12.125 -13.378906 11.53125 -13.671875 C 10.9375 -13.960938 10.300781 -14.109375 9.625 -14.109375 C 8.976562 -14.109375 8.375 -14.019531 7.8125 -13.84375 C 7.25 -13.664062 6.757812 -13.375 6.34375 -12.96875 C 5.9375 -12.5625 5.613281 -12.007812 5.375 -11.3125 C 5.144531 -10.625 5.03125 -9.75 5.03125 -8.6875 C 5.03125 -7.519531 5.269531 -6.53125 5.75 -5.71875 C 6.238281 -4.90625 6.863281 -4.285156 7.625 -3.859375 C 8.394531 -3.441406 9.210938 -3.234375 10.078125 -3.234375 C 10.878906 -3.234375 11.515625 -3.296875 11.984375 -3.421875 C 12.460938 -3.554688 12.847656 -3.71875 13.140625 -3.90625 C 13.429688 -4.09375 13.695312 -4.25 13.9375 -4.375 C 14.332031 -4.570312 14.703125 -4.671875 15.046875 -4.671875 C 15.515625 -4.671875 15.90625 -4.507812 16.21875 -4.1875 C 16.539062 -3.863281 16.703125 -3.484375 16.703125 -3.046875 C 16.703125 -2.460938 16.398438 -1.929688 15.796875 -1.453125 C 15.234375 -0.984375 14.441406 -0.566406 13.421875 -0.203125 C 12.410156 0.148438 11.363281 0.328125 10.28125 0.328125 Z M 10.28125 0.328125 "/></g></g><g style="fill:#3f3245;fill-opacity:1;"><g transform="translate(200.291775, 601.274232)"><path style="stroke:none" d="M 4.046875 0 C 3.484375 0 3.019531 -0.1875 2.65625 -0.5625 C 2.289062 -0.945312 2.109375 -1.421875 2.109375 -1.984375 L 2.109375 -15.375 C 2.109375 -15.925781 2.289062 -16.390625 2.65625 -16.765625 C 3.019531 -17.148438 3.484375 -17.34375 4.046875 -17.34375 C 4.609375 -17.34375 5.070312 -17.148438 5.4375 -16.765625 C 5.8125 -16.390625 6 -15.925781 6 -15.375 L 6 -12.3125 L 5.765625 -14.5 C 6.003906 -15.007812 6.3125 -15.460938 6.6875 -15.859375 C 7.070312 -16.265625 7.5 -16.601562 7.96875 -16.875 C 8.445312 -17.144531 8.957031 -17.34375 9.5 -17.46875 C 10.039062 -17.601562 10.582031 -17.671875 11.125 -17.671875 C 11.769531 -17.671875 12.3125 -17.484375 12.75 -17.109375 C 13.195312 -16.742188 13.421875 -16.316406 13.421875 -15.828125 C 13.421875 -15.109375 13.234375 -14.59375 12.859375 -14.28125 C 12.492188 -13.96875 12.097656 -13.8125 11.671875 -13.8125 C 11.265625 -13.8125 10.890625 -13.882812 10.546875 -14.03125 C 10.210938 -14.1875 9.832031 -14.265625 9.40625 -14.265625 C 9.007812 -14.265625 8.613281 -14.171875 8.21875 -13.984375 C 7.820312 -13.804688 7.453125 -13.519531 7.109375 -13.125 C 6.773438 -12.738281 6.503906 -12.257812 6.296875 -11.6875 C 6.097656 -11.113281 6 -10.4375 6 -9.65625 L 6 -1.984375 C 6 -1.421875 5.8125 -0.945312 5.4375 -0.5625 C 5.070312 -0.1875 4.609375 0 4.046875 0 Z M 4.046875 0 "/></g></g><g style="fill:#3f3245;fill-opacity:1;"><g transform="translate(235.511777, 601.274232)"><path style="stroke:none" d=""/></g></g><g style="fill:#3f3245;fill-opacity:1;"><g transform="translate(265.740038, 601.274232)"><path style="stroke:none" d="M 1.109375 -2.6875 C 0.890625 -2.988281 0.789062 -3.378906 0.8125 -3.859375 C 0.832031 -4.335938 1.113281 -4.75 1.65625 -5.09375 C 2 -5.3125 2.363281 -5.398438 2.75 -5.359375 C 3.144531 -5.328125 3.523438 -5.128906 3.890625 -4.765625 C 4.515625 -4.140625 5.171875 -3.648438 5.859375 -3.296875 C 6.554688 -2.953125 7.425781 -2.78125 8.46875 -2.78125 C 8.789062 -2.8125 9.144531 -2.863281 9.53125 -2.9375 C 9.914062 -3.007812 10.253906 -3.179688 10.546875 -3.453125 C 10.835938 -3.722656 10.984375 -4.140625 10.984375 -4.703125 C 10.984375 -5.179688 10.820312 -5.554688 10.5 -5.828125 C 10.175781 -6.109375 9.75 -6.347656 9.21875 -6.546875 C 8.6875 -6.742188 8.097656 -6.925781 7.453125 -7.09375 C 6.785156 -7.289062 6.097656 -7.507812 5.390625 -7.75 C 4.691406 -7.988281 4.050781 -8.296875 3.46875 -8.671875 C 2.882812 -9.046875 2.40625 -9.546875 2.03125 -10.171875 C 1.664062 -10.804688 1.484375 -11.597656 1.484375 -12.546875 C 1.484375 -13.628906 1.785156 -14.546875 2.390625 -15.296875 C 3.003906 -16.054688 3.789062 -16.640625 4.75 -17.046875 C 5.707031 -17.460938 6.71875 -17.671875 7.78125 -17.671875 C 8.445312 -17.671875 9.144531 -17.585938 9.875 -17.421875 C 10.613281 -17.265625 11.316406 -17.003906 11.984375 -16.640625 C 12.660156 -16.285156 13.226562 -15.816406 13.6875 -15.234375 C 13.914062 -14.910156 14.050781 -14.519531 14.09375 -14.0625 C 14.144531 -13.613281 13.941406 -13.207031 13.484375 -12.84375 C 13.160156 -12.582031 12.78125 -12.46875 12.34375 -12.5 C 11.914062 -12.53125 11.5625 -12.675781 11.28125 -12.9375 C 10.914062 -13.414062 10.425781 -13.796875 9.8125 -14.078125 C 9.195312 -14.359375 8.488281 -14.5 7.6875 -14.5 C 7.363281 -14.5 7.007812 -14.457031 6.625 -14.375 C 6.25 -14.300781 5.921875 -14.140625 5.640625 -13.890625 C 5.359375 -13.640625 5.21875 -13.242188 5.21875 -12.703125 C 5.21875 -12.210938 5.378906 -11.820312 5.703125 -11.53125 C 6.023438 -11.238281 6.460938 -11 7.015625 -10.8125 C 7.566406 -10.625 8.15625 -10.445312 8.78125 -10.28125 C 9.4375 -10.101562 10.097656 -9.894531 10.765625 -9.65625 C 11.429688 -9.425781 12.046875 -9.113281 12.609375 -8.71875 C 13.171875 -8.332031 13.625 -7.832031 13.96875 -7.21875 C 14.320312 -6.601562 14.5 -5.816406 14.5 -4.859375 C 14.5 -3.753906 14.171875 -2.8125 13.515625 -2.03125 C 12.867188 -1.257812 12.054688 -0.671875 11.078125 -0.265625 C 10.109375 0.128906 9.117188 0.328125 8.109375 0.328125 C 6.828125 0.328125 5.546875 0.109375 4.265625 -0.328125 C 2.992188 -0.773438 1.941406 -1.5625 1.109375 -2.6875 Z M 1.109375 -2.6875 "/></g></g><g style="fill:#3f3245;fill-opacity:1;"><g transform="translate(302.51591, 601.274232)"><path style="stroke:none" d="M 5.765625 -1.984375 C 5.765625 -1.421875 5.582031 -0.945312 5.21875 -0.5625 C 4.851562 -0.1875 4.390625 0 3.828125 0 C 3.265625 0 2.796875 -0.1875 2.421875 -0.5625 C 2.054688 -0.945312 1.875 -1.421875 1.875 -1.984375 L 1.875 -15.375 C 1.875 -15.925781 2.054688 -16.390625 2.421875 -16.765625 C 2.796875 -17.148438 3.265625 -17.34375 3.828125 -17.34375 C 4.390625 -17.34375 4.851562 -17.148438 5.21875 -16.765625 C 5.582031 -16.390625 5.765625 -15.925781 5.765625 -15.375 Z M 3.78125 -19.453125 C 3.050781 -19.453125 2.535156 -19.570312 2.234375 -19.8125 C 1.929688 -20.050781 1.78125 -20.472656 1.78125 -21.078125 L 1.78125 -21.6875 C 1.78125 -22.3125 1.945312 -22.738281 2.28125 -22.96875 C 2.613281 -23.195312 3.125 -23.3125 3.8125 -23.3125 C 4.570312 -23.3125 5.101562 -23.191406 5.40625 -22.953125 C 5.707031 -22.710938 5.859375 -22.289062 5.859375 -21.6875 L 5.859375 -21.078125 C 5.859375 -20.453125 5.695312 -20.023438 5.375 -19.796875 C 5.050781 -19.566406 4.519531 -19.453125 3.78125 -19.453125 Z M 3.78125 -19.453125 "/></g></g><g style="fill:#3f3245;fill-opacity:1;"><g transform="translate(331.317974, 601.274232)"><path style="stroke:none" d="M 2.296875 -17.015625 L 9.984375 -17.015625 C 10.503906 -17.015625 10.9375 -16.84375 11.28125 -16.5 C 11.625 -16.15625 11.796875 -15.722656 11.796875 -15.203125 C 11.796875 -14.703125 11.625 -14.285156 11.28125 -13.953125 C 10.9375 -13.617188 10.503906 -13.453125 9.984375 -13.453125 L 2.296875 -13.453125 C 1.785156 -13.453125 1.351562 -13.625 1 -13.96875 C 0.65625 -14.320312 0.484375 -14.753906 0.484375 -15.265625 C 0.484375 -15.765625 0.65625 -16.179688 1 -16.515625 C 1.351562 -16.847656 1.785156 -17.015625 2.296875 -17.015625 Z M 5.765625 -21.078125 C 6.328125 -21.078125 6.785156 -20.882812 7.140625 -20.5 C 7.503906 -20.125 7.6875 -19.65625 7.6875 -19.09375 L 7.6875 -4.671875 C 7.6875 -4.367188 7.742188 -4.117188 7.859375 -3.921875 C 7.984375 -3.722656 8.144531 -3.582031 8.34375 -3.5 C 8.550781 -3.414062 8.773438 -3.375 9.015625 -3.375 C 9.273438 -3.375 9.507812 -3.421875 9.71875 -3.515625 C 9.9375 -3.609375 10.1875 -3.65625 10.46875 -3.65625 C 10.769531 -3.65625 11.046875 -3.515625 11.296875 -3.234375 C 11.546875 -2.960938 11.671875 -2.578125 11.671875 -2.078125 C 11.671875 -1.472656 11.335938 -0.972656 10.671875 -0.578125 C 10.015625 -0.191406 9.3125 0 8.5625 0 C 8.101562 0 7.597656 -0.0351562 7.046875 -0.109375 C 6.492188 -0.191406 5.972656 -0.378906 5.484375 -0.671875 C 5.003906 -0.960938 4.601562 -1.410156 4.28125 -2.015625 C 3.957031 -2.617188 3.796875 -3.445312 3.796875 -4.5 L 3.796875 -19.09375 C 3.796875 -19.65625 3.984375 -20.125 4.359375 -20.5 C 4.734375 -20.882812 5.203125 -21.078125 5.765625 -21.078125 Z M 5.765625 -21.078125 "/></g></g><g style="fill:#3f3245;fill-opacity:1;"><g transform="translate(365.565515, 601.274232)"><path style="stroke:none" d="M 10.28125 0.328125 C 8.4375 0.328125 6.835938 -0.0546875 5.484375 -0.828125 C 4.140625 -1.597656 3.101562 -2.640625 2.375 -3.953125 C 1.65625 -5.273438 1.296875 -6.765625 1.296875 -8.421875 C 1.296875 -10.367188 1.6875 -12.03125 2.46875 -13.40625 C 3.257812 -14.78125 4.289062 -15.832031 5.5625 -16.5625 C 6.84375 -17.300781 8.195312 -17.671875 9.625 -17.671875 C 10.726562 -17.671875 11.769531 -17.441406 12.75 -16.984375 C 13.738281 -16.535156 14.609375 -15.914062 15.359375 -15.125 C 16.117188 -14.332031 16.71875 -13.414062 17.15625 -12.375 C 17.601562 -11.34375 17.828125 -10.242188 17.828125 -9.078125 C 17.804688 -8.554688 17.597656 -8.132812 17.203125 -7.8125 C 16.816406 -7.488281 16.367188 -7.328125 15.859375 -7.328125 L 3.46875 -7.328125 L 2.5 -10.5625 L 14.390625 -10.5625 L 13.6875 -9.921875 L 13.6875 -10.796875 C 13.632812 -11.421875 13.410156 -11.984375 13.015625 -12.484375 C 12.617188 -12.984375 12.125 -13.378906 11.53125 -13.671875 C 10.9375 -13.960938 10.300781 -14.109375 9.625 -14.109375 C 8.976562 -14.109375 8.375 -14.019531 7.8125 -13.84375 C 7.25 -13.664062 6.757812 -13.375 6.34375 -12.96875 C 5.9375 -12.5625 5.613281 -12.007812 5.375 -11.3125 C 5.144531 -10.625 5.03125 -9.75 5.03125 -8.6875 C 5.03125 -7.519531 5.269531 -6.53125 5.75 -5.71875 C 6.238281 -4.90625 6.863281 -4.285156 7.625 -3.859375 C 8.394531 -3.441406 9.210938 -3.234375 10.078125 -3.234375 C 10.878906 -3.234375 11.515625 -3.296875 11.984375 -3.421875 C 12.460938 -3.554688 12.847656 -3.71875 13.140625 -3.90625 C 13.429688 -4.09375 13.695312 -4.25 13.9375 -4.375 C 14.332031 -4.570312 14.703125 -4.671875 15.046875 -4.671875 C 15.515625 -4.671875 15.90625 -4.507812 16.21875 -4.1875 C 16.539062 -3.863281 16.703125 -3.484375 16.703125 -3.046875 C 16.703125 -2.460938 16.398438 -1.929688 15.796875 -1.453125 C 15.234375 -0.984375 14.441406 -0.566406 13.421875 -0.203125 C 12.410156 0.148438 11.363281 0.328125 10.28125 0.328125 Z M 10.28125 0.328125 "/></g></g><g style="fill:#3f3245;fill-opacity:1;"><g transform="translate(405.842111, 601.274232)"><path style="stroke:none" d=""/></g></g><g style="fill:#3f3245;fill-opacity:1;"><g transform="translate(436.070372, 601.274232)"><path style="stroke:none" d="M 11.09375 -17.671875 C 12.601562 -17.671875 13.957031 -17.285156 15.15625 -16.515625 C 16.351562 -15.753906 17.300781 -14.703125 18 -13.359375 C 18.707031 -12.015625 19.0625 -10.457031 19.0625 -8.6875 C 19.0625 -6.914062 18.707031 -5.351562 18 -4 C 17.300781 -2.65625 16.363281 -1.597656 15.1875 -0.828125 C 14.007812 -0.0546875 12.6875 0.328125 11.21875 0.328125 C 10.351562 0.328125 9.539062 0.1875 8.78125 -0.09375 C 8.03125 -0.375 7.367188 -0.726562 6.796875 -1.15625 C 6.222656 -1.59375 5.78125 -2.03125 5.46875 -2.46875 C 5.15625 -2.914062 5 -3.289062 5 -3.59375 L 6 -4.015625 L 6 4.5 C 6 5.0625 5.8125 5.53125 5.4375 5.90625 C 5.070312 6.289062 4.609375 6.484375 4.046875 6.484375 C 3.484375 6.484375 3.019531 6.296875 2.65625 5.921875 C 2.289062 5.554688 2.109375 5.082031 2.109375 4.5 L 2.109375 -15.375 C 2.109375 -15.925781 2.289062 -16.390625 2.65625 -16.765625 C 3.019531 -17.148438 3.484375 -17.34375 4.046875 -17.34375 C 4.609375 -17.34375 5.070312 -17.148438 5.4375 -16.765625 C 5.8125 -16.390625 6 -15.925781 6 -15.375 L 6 -13.78125 L 5.453125 -14.078125 C 5.453125 -14.359375 5.601562 -14.695312 5.90625 -15.09375 C 6.207031 -15.488281 6.613281 -15.882812 7.125 -16.28125 C 7.644531 -16.6875 8.242188 -17.019531 8.921875 -17.28125 C 9.609375 -17.539062 10.332031 -17.671875 11.09375 -17.671875 Z M 10.609375 -14.109375 C 9.648438 -14.109375 8.8125 -13.867188 8.09375 -13.390625 C 7.382812 -12.910156 6.828125 -12.265625 6.421875 -11.453125 C 6.023438 -10.648438 5.828125 -9.726562 5.828125 -8.6875 C 5.828125 -7.675781 6.023438 -6.753906 6.421875 -5.921875 C 6.828125 -5.085938 7.382812 -4.429688 8.09375 -3.953125 C 8.8125 -3.472656 9.648438 -3.234375 10.609375 -3.234375 C 11.554688 -3.234375 12.378906 -3.472656 13.078125 -3.953125 C 13.785156 -4.429688 14.335938 -5.085938 14.734375 -5.921875 C 15.128906 -6.753906 15.328125 -7.675781 15.328125 -8.6875 C 15.328125 -9.726562 15.128906 -10.648438 14.734375 -11.453125 C 14.335938 -12.265625 13.785156 -12.910156 13.078125 -13.390625 C 12.378906 -13.867188 11.554688 -14.109375 10.609375 -14.109375 Z M 10.609375 -14.109375 "/></g></g><g style="fill:#3f3245;fill-opacity:1;"><g transform="translate(477.578708, 601.274232)"><path style="stroke:none" d="M 16.3125 -17.671875 C 16.875 -17.671875 17.335938 -17.484375 17.703125 -17.109375 C 18.066406 -16.742188 18.25 -16.269531 18.25 -15.6875 L 18.25 -1.984375 C 18.25 -1.421875 18.066406 -0.945312 17.703125 -0.5625 C 17.335938 -0.1875 16.875 0 16.3125 0 C 15.75 0 15.28125 -0.1875 14.90625 -0.5625 C 14.539062 -0.945312 14.359375 -1.421875 14.359375 -1.984375 L 14.359375 -3.5625 L 15.078125 -3.28125 C 15.078125 -3 14.925781 -2.65625 14.625 -2.25 C 14.320312 -1.851562 13.910156 -1.457031 13.390625 -1.0625 C 12.867188 -0.675781 12.253906 -0.347656 11.546875 -0.078125 C 10.847656 0.191406 10.085938 0.328125 9.265625 0.328125 C 7.773438 0.328125 6.425781 -0.0546875 5.21875 -0.828125 C 4.007812 -1.597656 3.050781 -2.65625 2.34375 -4 C 1.644531 -5.351562 1.296875 -6.90625 1.296875 -8.65625 C 1.296875 -10.425781 1.644531 -11.988281 2.34375 -13.34375 C 3.050781 -14.695312 4 -15.753906 5.1875 -16.515625 C 6.375 -17.285156 7.691406 -17.671875 9.140625 -17.671875 C 10.066406 -17.671875 10.921875 -17.53125 11.703125 -17.25 C 12.484375 -16.96875 13.160156 -16.609375 13.734375 -16.171875 C 14.304688 -15.742188 14.75 -15.304688 15.0625 -14.859375 C 15.375 -14.421875 15.53125 -14.050781 15.53125 -13.75 L 14.359375 -13.328125 L 14.359375 -15.6875 C 14.359375 -16.25 14.539062 -16.71875 14.90625 -17.09375 C 15.28125 -17.476562 15.75 -17.671875 16.3125 -17.671875 Z M 9.765625 -3.234375 C 10.710938 -3.234375 11.539062 -3.472656 12.25 -3.953125 C 12.96875 -4.429688 13.523438 -5.078125 13.921875 -5.890625 C 14.328125 -6.710938 14.53125 -7.632812 14.53125 -8.65625 C 14.53125 -9.695312 14.328125 -10.625 13.921875 -11.4375 C 13.523438 -12.257812 12.96875 -12.910156 12.25 -13.390625 C 11.539062 -13.867188 10.710938 -14.109375 9.765625 -14.109375 C 8.828125 -14.109375 8 -13.867188 7.28125 -13.390625 C 6.570312 -12.910156 6.019531 -12.257812 5.625 -11.4375 C 5.226562 -10.625 5.03125 -9.695312 5.03125 -8.65625 C 5.03125 -7.632812 5.226562 -6.710938 5.625 -5.890625 C 6.019531 -5.078125 6.570312 -4.429688 7.28125 -3.953125 C 8 -3.472656 8.828125 -3.234375 9.765625 -3.234375 Z M 9.765625 -3.234375 "/></g></g><g style="fill:#3f3245;fill-opacity:1;"><g transform="translate(519.087045, 601.274232)"><path style="stroke:none" d="M 1.109375 -2.6875 C 0.890625 -2.988281 0.789062 -3.378906 0.8125 -3.859375 C 0.832031 -4.335938 1.113281 -4.75 1.65625 -5.09375 C 2 -5.3125 2.363281 -5.398438 2.75 -5.359375 C 3.144531 -5.328125 3.523438 -5.128906 3.890625 -4.765625 C 4.515625 -4.140625 5.171875 -3.648438 5.859375 -3.296875 C 6.554688 -2.953125 7.425781 -2.78125 8.46875 -2.78125 C 8.789062 -2.8125 9.144531 -2.863281 9.53125 -2.9375 C 9.914062 -3.007812 10.253906 -3.179688 10.546875 -3.453125 C 10.835938 -3.722656 10.984375 -4.140625 10.984375 -4.703125 C 10.984375 -5.179688 10.820312 -5.554688 10.5 -5.828125 C 10.175781 -6.109375 9.75 -6.347656 9.21875 -6.546875 C 8.6875 -6.742188 8.097656 -6.925781 7.453125 -7.09375 C 6.785156 -7.289062 6.097656 -7.507812 5.390625 -7.75 C 4.691406 -7.988281 4.050781 -8.296875 3.46875 -8.671875 C 2.882812 -9.046875 2.40625 -9.546875 2.03125 -10.171875 C 1.664062 -10.804688 1.484375 -11.597656 1.484375 -12.546875 C 1.484375 -13.628906 1.785156 -14.546875 2.390625 -15.296875 C 3.003906 -16.054688 3.789062 -16.640625 4.75 -17.046875 C 5.707031 -17.460938 6.71875 -17.671875 7.78125 -17.671875 C 8.445312 -17.671875 9.144531 -17.585938 9.875 -17.421875 C 10.613281 -17.265625 11.316406 -17.003906 11.984375 -16.640625 C 12.660156 -16.285156 13.226562 -15.816406 13.6875 -15.234375 C 13.914062 -14.910156 14.050781 -14.519531 14.09375 -14.0625 C 14.144531 -13.613281 13.941406 -13.207031 13.484375 -12.84375 C 13.160156 -12.582031 12.78125 -12.46875 12.34375 -12.5 C 11.914062 -12.53125 11.5625 -12.675781 11.28125 -12.9375 C 10.914062 -13.414062 10.425781 -13.796875 9.8125 -14.078125 C 9.195312 -14.359375 8.488281 -14.5 7.6875 -14.5 C 7.363281 -14.5 7.007812 -14.457031 6.625 -14.375 C 6.25 -14.300781 5.921875 -14.140625 5.640625 -13.890625 C 5.359375 -13.640625 5.21875 -13.242188 5.21875 -12.703125 C 5.21875 -12.210938 5.378906 -11.820312 5.703125 -11.53125 C 6.023438 -11.238281 6.460938 -11 7.015625 -10.8125 C 7.566406 -10.625 8.15625 -10.445312 8.78125 -10.28125 C 9.4375 -10.101562 10.097656 -9.894531 10.765625 -9.65625 C 11.429688 -9.425781 12.046875 -9.113281 12.609375 -8.71875 C 13.171875 -8.332031 13.625 -7.832031 13.96875 -7.21875 C 14.320312 -6.601562 14.5 -5.816406 14.5 -4.859375 C 14.5 -3.753906 14.171875 -2.8125 13.515625 -2.03125 C 12.867188 -1.257812 12.054688 -0.671875 11.078125 -0.265625 C 10.109375 0.128906 9.117188 0.328125 8.109375 0.328125 C 6.828125 0.328125 5.546875 0.109375 4.265625 -0.328125 C 2.992188 -0.773438 1.941406 -1.5625 1.109375 -2.6875 Z M 1.109375 -2.6875 "/></g></g><g style="fill:#3f3245;fill-opacity:1;"><g transform="translate(555.862917, 601.274232)"><path style="stroke:none" d="M 1.109375 -2.6875 C 0.890625 -2.988281 0.789062 -3.378906 0.8125 -3.859375 C 0.832031 -4.335938 1.113281 -4.75 1.65625 -5.09375 C 2 -5.3125 2.363281 -5.398438 2.75 -5.359375 C 3.144531 -5.328125 3.523438 -5.128906 3.890625 -4.765625 C 4.515625 -4.140625 5.171875 -3.648438 5.859375 -3.296875 C 6.554688 -2.953125 7.425781 -2.78125 8.46875 -2.78125 C 8.789062 -2.8125 9.144531 -2.863281 9.53125 -2.9375 C 9.914062 -3.007812 10.253906 -3.179688 10.546875 -3.453125 C 10.835938 -3.722656 10.984375 -4.140625 10.984375 -4.703125 C 10.984375 -5.179688 10.820312 -5.554688 10.5 -5.828125 C 10.175781 -6.109375 9.75 -6.347656 9.21875 -6.546875 C 8.6875 -6.742188 8.097656 -6.925781 7.453125 -7.09375 C 6.785156 -7.289062 6.097656 -7.507812 5.390625 -7.75 C 4.691406 -7.988281 4.050781 -8.296875 3.46875 -8.671875 C 2.882812 -9.046875 2.40625 -9.546875 2.03125 -10.171875 C 1.664062 -10.804688 1.484375 -11.597656 1.484375 -12.546875 C 1.484375 -13.628906 1.785156 -14.546875 2.390625 -15.296875 C 3.003906 -16.054688 3.789062 -16.640625 4.75 -17.046875 C 5.707031 -17.460938 6.71875 -17.671875 7.78125 -17.671875 C 8.445312 -17.671875 9.144531 -17.585938 9.875 -17.421875 C 10.613281 -17.265625 11.316406 -17.003906 11.984375 -16.640625 C 12.660156 -16.285156 13.226562 -15.816406 13.6875 -15.234375 C 13.914062 -14.910156 14.050781 -14.519531 14.09375 -14.0625 C 14.144531 -13.613281 13.941406 -13.207031 13.484375 -12.84375 C 13.160156 -12.582031 12.78125 -12.46875 12.34375 -12.5 C 11.914062 -12.53125 11.5625 -12.675781 11.28125 -12.9375 C 10.914062 -13.414062 10.425781 -13.796875 9.8125 -14.078125 C 9.195312 -14.359375 8.488281 -14.5 7.6875 -14.5 C 7.363281 -14.5 7.007812 -14.457031 6.625 -14.375 C 6.25 -14.300781 5.921875 -14.140625 5.640625 -13.890625 C 5.359375 -13.640625 5.21875 -13.242188 5.21875 -12.703125 C 5.21875 -12.210938 5.378906 -11.820312 5.703125 -11.53125 C 6.023438 -11.238281 6.460938 -11 7.015625 -10.8125 C 7.566406 -10.625 8.15625 -10.445312 8.78125 -10.28125 C 9.4375 -10.101562 10.097656 -9.894531 10.765625 -9.65625 C 11.429688 -9.425781 12.046875 -9.113281 12.609375 -8.71875 C 13.171875 -8.332031 13.625 -7.832031 13.96875 -7.21875 C 14.320312 -6.601562 14.5 -5.816406 14.5 -4.859375 C 14.5 -3.753906 14.171875 -2.8125 13.515625 -2.03125 C 12.867188 -1.257812 12.054688 -0.671875 11.078125 -0.265625 C 10.109375 0.128906 9.117188 0.328125 8.109375 0.328125 C 6.828125 0.328125 5.546875 0.109375 4.265625 -0.328125 C 2.992188 -0.773438 1.941406 -1.5625 1.109375 -2.6875 Z M 1.109375 -2.6875 "/></g></g><g style="fill:#3f3245;fill-opacity:1;"><g transform="translate(592.638789, 601.274232)"><path style="stroke:none" d="M 22.078125 -17.34375 C 22.578125 -17.34375 23.007812 -17.148438 23.375 -16.765625 C 23.738281 -16.390625 23.921875 -15.910156 23.921875 -15.328125 C 23.921875 -15.179688 23.910156 -15.046875 23.890625 -14.921875 C 23.867188 -14.804688 23.835938 -14.695312 23.796875 -14.59375 L 18.84375 -1.234375 C 18.6875 -0.796875 18.410156 -0.460938 18.015625 -0.234375 C 17.628906 -0.015625 17.222656 0.0625 16.796875 0 C 16.054688 -0.0390625 15.503906 -0.453125 15.140625 -1.234375 L 11.9375 -10.46875 L 12.78125 -10.4375 L 9.765625 -1.234375 C 9.390625 -0.453125 8.835938 -0.0390625 8.109375 0 C 7.691406 0.0625 7.285156 -0.015625 6.890625 -0.234375 C 6.492188 -0.460938 6.21875 -0.796875 6.0625 -1.234375 L 1.109375 -14.59375 C 1.015625 -14.832031 0.96875 -15.078125 0.96875 -15.328125 C 0.96875 -15.847656 1.140625 -16.3125 1.484375 -16.71875 C 1.835938 -17.132812 2.316406 -17.34375 2.921875 -17.34375 C 3.328125 -17.34375 3.691406 -17.242188 4.015625 -17.046875 C 4.335938 -16.859375 4.566406 -16.546875 4.703125 -16.109375 L 8.625 -5.484375 L 7.8125 -5.546875 L 10.765625 -13.546875 C 11.109375 -14.347656 11.703125 -14.75 12.546875 -14.75 C 13.023438 -14.75 13.382812 -14.644531 13.625 -14.4375 C 13.875 -14.238281 14.078125 -13.941406 14.234375 -13.546875 L 17.1875 -5.546875 L 16.203125 -5.421875 L 20.203125 -16.109375 C 20.460938 -16.929688 21.085938 -17.34375 22.078125 -17.34375 Z M 22.078125 -17.34375 "/></g></g><g style="fill:#3f3245;fill-opacity:1;"><g transform="translate(638.685095, 601.274232)"><path style="stroke:none" d="M 18.9375 -8.65625 C 18.9375 -6.882812 18.539062 -5.320312 17.75 -3.96875 C 16.957031 -2.613281 15.894531 -1.554688 14.5625 -0.796875 C 13.238281 -0.046875 11.753906 0.328125 10.109375 0.328125 C 8.472656 0.328125 6.988281 -0.046875 5.65625 -0.796875 C 4.320312 -1.554688 3.257812 -2.613281 2.46875 -3.96875 C 1.6875 -5.320312 1.296875 -6.882812 1.296875 -8.65625 C 1.296875 -10.425781 1.6875 -11.988281 2.46875 -13.34375 C 3.257812 -14.695312 4.320312 -15.753906 5.65625 -16.515625 C 6.988281 -17.285156 8.472656 -17.671875 10.109375 -17.671875 C 11.753906 -17.671875 13.238281 -17.285156 14.5625 -16.515625 C 15.894531 -15.753906 16.957031 -14.695312 17.75 -13.34375 C 18.539062 -11.988281 18.9375 -10.425781 18.9375 -8.65625 Z M 15.046875 -8.65625 C 15.046875 -9.757812 14.820312 -10.710938 14.375 -11.515625 C 13.9375 -12.328125 13.34375 -12.960938 12.59375 -13.421875 C 11.851562 -13.878906 11.023438 -14.109375 10.109375 -14.109375 C 9.203125 -14.109375 8.375 -13.878906 7.625 -13.421875 C 6.882812 -12.960938 6.289062 -12.328125 5.84375 -11.515625 C 5.40625 -10.710938 5.1875 -9.757812 5.1875 -8.65625 C 5.1875 -7.570312 5.40625 -6.625 5.84375 -5.8125 C 6.289062 -5.007812 6.882812 -4.378906 7.625 -3.921875 C 8.375 -3.460938 9.203125 -3.234375 10.109375 -3.234375 C 11.023438 -3.234375 11.851562 -3.460938 12.59375 -3.921875 C 13.34375 -4.378906 13.9375 -5.007812 14.375 -5.8125 C 14.820312 -6.625 15.046875 -7.570312 15.046875 -8.65625 Z M 15.046875 -8.65625 "/></g></g><g style="fill:#3f3245;fill-opacity:1;"><g transform="translate(680.063723, 601.274232)"><path style="stroke:none" d="M 4.046875 0 C 3.484375 0 3.019531 -0.1875 2.65625 -0.5625 C 2.289062 -0.945312 2.109375 -1.421875 2.109375 -1.984375 L 2.109375 -15.375 C 2.109375 -15.925781 2.289062 -16.390625 2.65625 -16.765625 C 3.019531 -17.148438 3.484375 -17.34375 4.046875 -17.34375 C 4.609375 -17.34375 5.070312 -17.148438 5.4375 -16.765625 C 5.8125 -16.390625 6 -15.925781 6 -15.375 L 6 -12.3125 L 5.765625 -14.5 C 6.003906 -15.007812 6.3125 -15.460938 6.6875 -15.859375 C 7.070312 -16.265625 7.5 -16.601562 7.96875 -16.875 C 8.445312 -17.144531 8.957031 -17.34375 9.5 -17.46875 C 10.039062 -17.601562 10.582031 -17.671875 11.125 -17.671875 C 11.769531 -17.671875 12.3125 -17.484375 12.75 -17.109375 C 13.195312 -16.742188 13.421875 -16.316406 13.421875 -15.828125 C 13.421875 -15.109375 13.234375 -14.59375 12.859375 -14.28125 C 12.492188 -13.96875 12.097656 -13.8125 11.671875 -13.8125 C 11.265625 -13.8125 10.890625 -13.882812 10.546875 -14.03125 C 10.210938 -14.1875 9.832031 -14.265625 9.40625 -14.265625 C 9.007812 -14.265625 8.613281 -14.171875 8.21875 -13.984375 C 7.820312 -13.804688 7.453125 -13.519531 7.109375 -13.125 C 6.773438 -12.738281 6.503906 -12.257812 6.296875 -11.6875 C 6.097656 -11.113281 6 -10.4375 6 -9.65625 L 6 -1.984375 C 6 -1.421875 5.8125 -0.945312 5.4375 -0.5625 C 5.070312 -0.1875 4.609375 0 4.046875 0 Z M 4.046875 0 "/></g></g><g style="fill:#3f3245;fill-opacity:1;"><g transform="translate(714.570404, 601.274232)"><path style="stroke:none" d="M 16.3125 -23.984375 C 16.875 -23.984375 17.335938 -23.800781 17.703125 -23.4375 C 18.066406 -23.070312 18.25 -22.597656 18.25 -22.015625 L 18.25 -1.984375 C 18.25 -1.421875 18.066406 -0.945312 17.703125 -0.5625 C 17.335938 -0.1875 16.875 0 16.3125 0 C 15.75 0 15.28125 -0.1875 14.90625 -0.5625 C 14.539062 -0.945312 14.359375 -1.421875 14.359375 -1.984375 L 14.359375 -3.5625 L 15.078125 -3.28125 C 15.078125 -3 14.925781 -2.65625 14.625 -2.25 C 14.320312 -1.851562 13.910156 -1.457031 13.390625 -1.0625 C 12.867188 -0.675781 12.253906 -0.347656 11.546875 -0.078125 C 10.847656 0.191406 10.085938 0.328125 9.265625 0.328125 C 7.773438 0.328125 6.425781 -0.0546875 5.21875 -0.828125 C 4.007812 -1.597656 3.050781 -2.65625 2.34375 -4 C 1.644531 -5.351562 1.296875 -6.90625 1.296875 -8.65625 C 1.296875 -10.425781 1.644531 -11.988281 2.34375 -13.34375 C 3.050781 -14.695312 4 -15.753906 5.1875 -16.515625 C 6.375 -17.285156 7.691406 -17.671875 9.140625 -17.671875 C 10.066406 -17.671875 10.921875 -17.53125 11.703125 -17.25 C 12.484375 -16.96875 13.160156 -16.609375 13.734375 -16.171875 C 14.304688 -15.742188 14.75 -15.304688 15.0625 -14.859375 C 15.375 -14.421875 15.53125 -14.050781 15.53125 -13.75 L 14.359375 -13.328125 L 14.359375 -22.015625 C 14.359375 -22.578125 14.539062 -23.046875 14.90625 -23.421875 C 15.28125 -23.796875 15.75 -23.984375 16.3125 -23.984375 Z M 9.765625 -3.234375 C 10.710938 -3.234375 11.539062 -3.472656 12.25 -3.953125 C 12.96875 -4.429688 13.523438 -5.078125 13.921875 -5.890625 C 14.328125 -6.710938 14.53125 -7.632812 14.53125 -8.65625 C 14.53125 -9.695312 14.328125 -10.625 13.921875 -11.4375 C 13.523438 -12.257812 12.96875 -12.910156 12.25 -13.390625 C 11.539062 -13.867188 10.710938 -14.109375 9.765625 -14.109375 C 8.828125 -14.109375 8 -13.867188 7.28125 -13.390625 C 6.570312 -12.910156 6.019531 -12.257812 5.625 -11.4375 C 5.226562 -10.625 5.03125 -9.695312 5.03125 -8.65625 C 5.03125 -7.632812 5.226562 -6.710938 5.625 -5.890625 C 6.019531 -5.078125 6.570312 -4.429688 7.28125 -3.953125 C 8 -3.472656 8.828125 -3.234375 9.765625 -3.234375 Z M 9.765625 -3.234375 "/></g></g><g style="fill:#3f3245;fill-opacity:1;"><g transform="translate(756.078807, 601.274232)"><path style="stroke:none" d="M 4.21875 -12.671875 C 3.59375 -12.671875 3.109375 -12.835938 2.765625 -13.171875 C 2.429688 -13.515625 2.265625 -14 2.265625 -14.625 L 2.265625 -15.171875 C 2.265625 -15.796875 2.429688 -16.273438 2.765625 -16.609375 C 3.109375 -16.953125 3.59375 -17.125 4.21875 -17.125 L 4.640625 -17.125 C 5.265625 -17.125 5.742188 -16.953125 6.078125 -16.609375 C 6.410156 -16.273438 6.578125 -15.796875 6.578125 -15.171875 L 6.578125 -14.625 C 6.578125 -14 6.410156 -13.515625 6.078125 -13.171875 C 5.742188 -12.835938 5.265625 -12.671875 4.640625 -12.671875 Z M 4.21875 0 C 3.59375 0 3.109375 -0.164062 2.765625 -0.5 C 2.429688 -0.832031 2.265625 -1.3125 2.265625 -1.9375 L 2.265625 -2.5 C 2.265625 -3.125 2.429688 -3.601562 2.765625 -3.9375 C 3.109375 -4.269531 3.59375 -4.4375 4.21875 -4.4375 L 4.640625 -4.4375 C 5.265625 -4.4375 5.742188 -4.269531 6.078125 -3.9375 C 6.410156 -3.601562 6.578125 -3.125 6.578125 -2.5 L 6.578125 -1.9375 C 6.578125 -1.3125 6.410156 -0.832031 6.078125 -0.5 C 5.742188 -0.164062 5.265625 0 4.640625 0 Z M 4.21875 0 "/></g></g></g></svg>