<svg xmlns="http://www.w3.org/2000/svg" xmlns:xlink="http://www.w3.org/1999/xlink" width="1366" zoomAndPan="magnify" viewBox="0 0 1024.5 576" height="768" preserveAspectRatio="xMidYMid meet" version="1.2"><defs><clipPath id="201e81572a"><path d="M 0 0.140625 L 1024 0.140625 L 1024 575.859375 L 0 575.859375 Z M 0 0.140625 "/></clipPath><filter x="0%" y="0%" width="100%" filterUnits="objectBoundingBox" id="d7fb95d972" height="100%"><feColorMatrix values="0 0 0 0 1 0 0 0 0 1 0 0 0 0 1 0 0 0 1 0" type="matrix" in="SourceGraphic"/></filter><clipPath id="aa9f93e0ec"><path d="M 0 0.140625 L 1024 0.140625 L 1024 575.859375 L 0 575.859375 Z M 0 0.140625 "/></clipPath><clipPath id="bc7cb6d0bb"><rect x="0" width="1024" y="0" height="576"/></clipPath><clipPath id="2234d8de7b"><path d="M 299.914062 259.320312 L 676.800781 259.320312 L 676.800781 316.679688 L 299.914062 316.679688 Z M 299.914062 259.320312 "/></clipPath><clipPath id="a58e790981"><path d="M 325.402344 259.320312 L 651.167969 259.320312 C 665.242188 259.320312 676.652344 270.730469 676.652344 284.804688 L 676.652344 291.195312 C 676.652344 305.269531 665.242188 316.679688 651.167969 316.679688 L 325.402344 316.679688 C 311.324219 316.679688 299.914062 305.269531 299.914062 291.195312 L 299.914062 284.804688 C 299.914062 270.730469 311.324219 259.320312 325.402344 259.320312 Z M 325.402344 259.320312 "/></clipPath><clipPath id="e7c328c275"><path d="M 731.601562 259.320312 L 789 259.320312 L 789 317 L 731.601562 317 Z M 731.601562 259.320312 "/></clipPath></defs><g id="f8a8e75bf9"><g clip-rule="nonzero" clip-path="url(#201e81572a)"><path style=" stroke:none;fill-rule:nonzero;fill:#ffffff;fill-opacity:1;" d="M 0 0.140625 L 1024 0.140625 L 1024 575.859375 L 0 575.859375 Z M 0 0.140625 "/><path style=" stroke:none;fill-rule:nonzero;fill:#ccb5c8;fill-opacity:1;" d="M 0 0.140625 L 1024 0.140625 L 1024 575.859375 L 0 575.859375 Z M 0 0.140625 "/><g mask="url(#7dab1a3748)" transform="matrix(1,0,0,1,0,-0.000000000000058398)"><g clip-path="url(#bc7cb6d0bb)"><g clip-rule="nonzero" clip-path="url(#aa9f93e0ec)"><path style=" stroke:none;fill-rule:nonzero;fill:#8d748d;fill-opacity:1;" d="M 1174.140625 -171.777344 L 1174.140625 -178 L 1104.269531 -178 L 1104.269531 -247.875 L 1098.046875 -247.875 L 1098.046875 -178 L 1025.808594 -178 L 1025.808594 -247.875 L 1019.589844 -247.875 L 1019.589844 -178 L 947.351562 -178 L 947.351562 -247.875 L 941.128906 -247.875 L 941.128906 -178 L 868.890625 -178 L 868.890625 -247.875 L 862.671875 -247.875 L 862.671875 -178 L 790.433594 -178 L 790.433594 -247.875 L 784.210938 -247.875 L 784.210938 -178 L 711.976562 -178 L 711.976562 -247.875 L 705.753906 -247.875 L 705.753906 -178 L 633.515625 -178 L 633.515625 -247.875 L 627.292969 -247.875 L 627.292969 -178 L 555.058594 -178 L 555.058594 -247.875 L 548.835938 -247.875 L 548.835938 -178 L 476.597656 -178 L 476.597656 -247.875 L 470.375 -247.875 L 470.375 -178 L 398.140625 -178 L 398.140625 -247.875 L 391.917969 -247.875 L 391.917969 -178 L 319.679688 -178 L 319.679688 -247.875 L 313.457031 -247.875 L 313.457031 -178 L 241.222656 -178 L 241.222656 -247.875 L 235 -247.875 L 235 -178 L 162.761719 -178 L 162.761719 -247.875 L 156.539062 -247.875 L 156.539062 -178 L 84.304688 -178 L 84.304688 -247.875 L 78.082031 -247.875 L 78.082031 -178 L 5.84375 -178 L 5.84375 -247.875 L -0.378906 -247.875 L -0.378906 -178 L -70.25 -178 L -70.25 -171.777344 L -0.378906 -171.777344 L -0.378906 -99.542969 L -70.25 -99.542969 L -70.25 -93.320312 L -0.378906 -93.320312 L -0.378906 -21.082031 L -70.25 -21.082031 L -70.25 -14.859375 L -0.378906 -14.859375 L -0.378906 57.375 L -70.25 57.375 L -70.25 63.597656 L -0.378906 63.597656 L -0.378906 135.835938 L -70.25 135.835938 L -70.25 142.058594 L -0.378906 142.058594 L -0.378906 214.292969 L -70.25 214.292969 L -70.25 220.515625 L -0.378906 220.515625 L -0.378906 292.753906 L -70.25 292.753906 L -70.25 298.976562 L -0.378906 298.976562 L -0.378906 371.210938 L -70.25 371.210938 L -70.25 377.433594 L -0.378906 377.433594 L -0.378906 449.671875 L -70.25 449.671875 L -70.25 455.894531 L -0.378906 455.894531 L -0.378906 528.128906 L -70.25 528.128906 L -70.25 534.351562 L -0.378906 534.351562 L -0.378906 606.589844 L -70.25 606.589844 L -70.25 612.8125 L -0.378906 612.8125 L -0.378906 685.046875 L -70.25 685.046875 L -70.25 691.269531 L -0.378906 691.269531 L -0.378906 763.507812 L -70.25 763.507812 L -70.25 769.730469 L -0.378906 769.730469 L -0.378906 841.964844 L -70.25 841.964844 L -70.25 848.1875 L -0.378906 848.1875 L -0.378906 920.425781 L -70.25 920.425781 L -70.25 926.648438 L -0.378906 926.648438 L -0.378906 996.519531 L 5.84375 996.519531 L 5.84375 926.648438 L 78.082031 926.648438 L 78.082031 996.519531 L 84.304688 996.519531 L 84.304688 926.648438 L 156.539062 926.648438 L 156.539062 996.519531 L 162.761719 996.519531 L 162.761719 926.648438 L 235 926.648438 L 235 996.519531 L 241.222656 996.519531 L 241.222656 926.648438 L 313.457031 926.648438 L 313.457031 996.519531 L 319.679688 996.519531 L 319.679688 926.648438 L 391.917969 926.648438 L 391.917969 996.519531 L 398.140625 996.519531 L 398.140625 926.648438 L 470.375 926.648438 L 470.375 996.519531 L 476.597656 996.519531 L 476.597656 926.648438 L 548.835938 926.648438 L 548.835938 996.519531 L 555.058594 996.519531 L 555.058594 926.648438 L 627.292969 926.648438 L 627.292969 996.519531 L 633.515625 996.519531 L 633.515625 926.648438 L 705.753906 926.648438 L 705.753906 996.519531 L 711.976562 996.519531 L 711.976562 926.648438 L 784.210938 926.648438 L 784.210938 996.519531 L 790.433594 996.519531 L 790.433594 926.648438 L 862.671875 926.648438 L 862.671875 996.519531 L 868.890625 996.519531 L 868.890625 926.648438 L 941.128906 926.648438 L 941.128906 996.519531 L 947.351562 996.519531 L 947.351562 926.648438 L 1019.589844 926.648438 L 1019.589844 996.519531 L 1025.808594 996.519531 L 1025.808594 926.648438 L 1098.046875 926.648438 L 1098.046875 996.519531 L 1104.269531 996.519531 L 1104.269531 926.648438 L 1174.140625 926.648438 L 1174.140625 920.425781 L 1104.269531 920.425781 L 1104.269531 848.1875 L 1174.140625 848.1875 L 1174.140625 841.964844 L 1104.269531 841.964844 L 1104.269531 769.730469 L 1174.140625 769.730469 L 1174.140625 763.507812 L 1104.269531 763.507812 L 1104.269531 691.269531 L 1174.140625 691.269531 L 1174.140625 685.046875 L 1104.269531 685.046875 L 1104.269531 612.8125 L 1174.140625 612.8125 L 1174.140625 606.589844 L 1104.269531 606.589844 L 1104.269531 534.351562 L 1174.140625 534.351562 L 1174.140625 528.128906 L 1104.269531 528.128906 L 1104.269531 455.894531 L 1174.140625 455.894531 L 1174.140625 449.671875 L 1104.269531 449.671875 L 1104.269531 377.433594 L 1174.140625 377.433594 L 1174.140625 371.210938 L 1104.269531 371.210938 L 1104.269531 298.976562 L 1174.140625 298.976562 L 1174.140625 292.753906 L 1104.269531 292.753906 L 1104.269531 220.515625 L 1174.140625 220.515625 L 1174.140625 214.292969 L 1104.269531 214.292969 L 1104.269531 142.058594 L 1174.140625 142.058594 L 1174.140625 135.835938 L 1104.269531 135.835938 L 1104.269531 63.597656 L 1174.140625 63.597656 L 1174.140625 57.375 L 1104.269531 57.375 L 1104.269531 -14.859375 L 1174.140625 -14.859375 L 1174.140625 -21.082031 L 1104.269531 -21.082031 L 1104.269531 -93.320312 L 1174.140625 -93.320312 L 1174.140625 -99.542969 L 1104.269531 -99.542969 L 1104.269531 -171.777344 Z M 1019.589844 -171.777344 L 1019.589844 -99.542969 L 947.351562 -99.542969 L 947.351562 -171.777344 Z M 548.835938 377.433594 L 548.835938 449.671875 L 476.597656 449.671875 L 476.597656 377.433594 Z M 476.597656 371.210938 L 476.597656 298.976562 L 548.835938 298.976562 L 548.835938 371.210938 Z M 555.058594 377.433594 L 627.292969 377.433594 L 627.292969 449.671875 L 555.058594 449.671875 Z M 555.058594 371.210938 L 555.058594 298.976562 L 627.292969 298.976562 L 627.292969 371.210938 Z M 555.058594 292.753906 L 555.058594 220.515625 L 627.292969 220.515625 L 627.292969 292.753906 Z M 548.835938 292.753906 L 476.597656 292.753906 L 476.597656 220.515625 L 548.835938 220.515625 Z M 470.375 292.753906 L 398.140625 292.753906 L 398.140625 220.515625 L 470.375 220.515625 Z M 470.375 298.976562 L 470.375 371.210938 L 398.140625 371.210938 L 398.140625 298.976562 Z M 470.375 377.433594 L 470.375 449.671875 L 398.140625 449.671875 L 398.140625 377.433594 Z M 470.375 455.894531 L 470.375 528.128906 L 398.140625 528.128906 L 398.140625 455.894531 Z M 476.597656 455.894531 L 548.835938 455.894531 L 548.835938 528.128906 L 476.597656 528.128906 Z M 555.058594 455.894531 L 627.292969 455.894531 L 627.292969 528.128906 L 555.058594 528.128906 Z M 633.515625 455.894531 L 705.753906 455.894531 L 705.753906 528.128906 L 633.515625 528.128906 Z M 633.515625 449.671875 L 633.515625 377.433594 L 705.753906 377.433594 L 705.753906 449.671875 Z M 633.515625 371.210938 L 633.515625 298.976562 L 705.753906 298.976562 L 705.753906 371.210938 Z M 633.515625 292.753906 L 633.515625 220.515625 L 705.753906 220.515625 L 705.753906 292.753906 Z M 633.515625 214.292969 L 633.515625 142.058594 L 705.753906 142.058594 L 705.753906 214.292969 Z M 627.292969 214.292969 L 555.058594 214.292969 L 555.058594 142.058594 L 627.292969 142.058594 Z M 548.835938 214.292969 L 476.597656 214.292969 L 476.597656 142.058594 L 548.835938 142.058594 Z M 470.375 214.292969 L 398.140625 214.292969 L 398.140625 142.058594 L 470.375 142.058594 Z M 391.917969 214.292969 L 319.679688 214.292969 L 319.679688 142.058594 L 391.917969 142.058594 Z M 391.917969 220.515625 L 391.917969 292.753906 L 319.679688 292.753906 L 319.679688 220.515625 Z M 391.917969 298.976562 L 391.917969 371.210938 L 319.679688 371.210938 L 319.679688 298.976562 Z M 391.917969 377.433594 L 391.917969 449.671875 L 319.679688 449.671875 L 319.679688 377.433594 Z M 391.917969 455.894531 L 391.917969 528.128906 L 319.679688 528.128906 L 319.679688 455.894531 Z M 391.917969 534.351562 L 391.917969 606.589844 L 319.679688 606.589844 L 319.679688 534.351562 Z M 398.140625 534.351562 L 470.375 534.351562 L 470.375 606.589844 L 398.140625 606.589844 Z M 476.597656 534.351562 L 548.835938 534.351562 L 548.835938 606.589844 L 476.597656 606.589844 Z M 555.058594 534.351562 L 627.292969 534.351562 L 627.292969 606.589844 L 555.058594 606.589844 Z M 633.515625 534.351562 L 705.753906 534.351562 L 705.753906 606.589844 L 633.515625 606.589844 Z M 711.976562 534.351562 L 784.210938 534.351562 L 784.210938 606.589844 L 711.976562 606.589844 Z M 711.976562 528.128906 L 711.976562 455.894531 L 784.210938 455.894531 L 784.210938 528.128906 Z M 711.976562 449.671875 L 711.976562 377.433594 L 784.210938 377.433594 L 784.210938 449.671875 Z M 711.976562 371.210938 L 711.976562 298.976562 L 784.210938 298.976562 L 784.210938 371.210938 Z M 711.976562 292.753906 L 711.976562 220.515625 L 784.210938 220.515625 L 784.210938 292.753906 Z M 711.976562 214.292969 L 711.976562 142.058594 L 784.210938 142.058594 L 784.210938 214.292969 Z M 711.976562 135.835938 L 711.976562 63.597656 L 784.210938 63.597656 L 784.210938 135.835938 Z M 705.753906 135.835938 L 633.515625 135.835938 L 633.515625 63.597656 L 705.753906 63.597656 Z M 627.292969 135.835938 L 555.058594 135.835938 L 555.058594 63.597656 L 627.292969 63.597656 Z M 548.835938 135.835938 L 476.597656 135.835938 L 476.597656 63.597656 L 548.835938 63.597656 Z M 470.375 135.835938 L 398.140625 135.835938 L 398.140625 63.597656 L 470.375 63.597656 Z M 391.917969 135.835938 L 319.679688 135.835938 L 319.679688 63.597656 L 391.917969 63.597656 Z M 313.457031 135.835938 L 241.222656 135.835938 L 241.222656 63.597656 L 313.457031 63.597656 Z M 313.457031 142.058594 L 313.457031 214.292969 L 241.222656 214.292969 L 241.222656 142.058594 Z M 313.457031 220.515625 L 313.457031 292.753906 L 241.222656 292.753906 L 241.222656 220.515625 Z M 313.457031 298.976562 L 313.457031 371.210938 L 241.222656 371.210938 L 241.222656 298.976562 Z M 313.457031 377.433594 L 313.457031 449.671875 L 241.222656 449.671875 L 241.222656 377.433594 Z M 313.457031 455.894531 L 313.457031 528.128906 L 241.222656 528.128906 L 241.222656 455.894531 Z M 313.457031 534.351562 L 313.457031 606.589844 L 241.222656 606.589844 L 241.222656 534.351562 Z M 313.457031 612.8125 L 313.457031 685.046875 L 241.222656 685.046875 L 241.222656 612.8125 Z M 319.679688 612.8125 L 391.917969 612.8125 L 391.917969 685.046875 L 319.679688 685.046875 Z M 398.140625 612.8125 L 470.375 612.8125 L 470.375 685.046875 L 398.140625 685.046875 Z M 476.597656 612.8125 L 548.835938 612.8125 L 548.835938 685.046875 L 476.597656 685.046875 Z M 555.058594 612.8125 L 627.292969 612.8125 L 627.292969 685.046875 L 555.058594 685.046875 Z M 633.515625 612.8125 L 705.753906 612.8125 L 705.753906 685.046875 L 633.515625 685.046875 Z M 711.976562 612.8125 L 784.210938 612.8125 L 784.210938 685.046875 L 711.976562 685.046875 Z M 790.433594 612.8125 L 862.671875 612.8125 L 862.671875 685.046875 L 790.433594 685.046875 Z M 790.433594 606.589844 L 790.433594 534.351562 L 862.671875 534.351562 L 862.671875 606.589844 Z M 790.433594 528.128906 L 790.433594 455.894531 L 862.671875 455.894531 L 862.671875 528.128906 Z M 790.433594 449.671875 L 790.433594 377.433594 L 862.671875 377.433594 L 862.671875 449.671875 Z M 790.433594 371.210938 L 790.433594 298.976562 L 862.671875 298.976562 L 862.671875 371.210938 Z M 790.433594 292.753906 L 790.433594 220.515625 L 862.671875 220.515625 L 862.671875 292.753906 Z M 790.433594 214.292969 L 790.433594 142.058594 L 862.671875 142.058594 L 862.671875 214.292969 Z M 790.433594 135.835938 L 790.433594 63.597656 L 862.671875 63.597656 L 862.671875 135.835938 Z M 790.433594 57.375 L 790.433594 -14.859375 L 862.671875 -14.859375 L 862.671875 57.375 Z M 784.210938 57.375 L 711.976562 57.375 L 711.976562 -14.859375 L 784.210938 -14.859375 Z M 705.753906 57.375 L 633.515625 57.375 L 633.515625 -14.859375 L 705.753906 -14.859375 Z M 627.292969 57.375 L 555.058594 57.375 L 555.058594 -14.859375 L 627.292969 -14.859375 Z M 548.835938 57.375 L 476.597656 57.375 L 476.597656 -14.859375 L 548.835938 -14.859375 Z M 470.375 57.375 L 398.140625 57.375 L 398.140625 -14.859375 L 470.375 -14.859375 Z M 391.917969 57.375 L 319.679688 57.375 L 319.679688 -14.859375 L 391.917969 -14.859375 Z M 313.457031 57.375 L 241.222656 57.375 L 241.222656 -14.859375 L 313.457031 -14.859375 Z M 235 57.375 L 162.761719 57.375 L 162.761719 -14.859375 L 235 -14.859375 Z M 235 63.597656 L 235 135.835938 L 162.761719 135.835938 L 162.761719 63.597656 Z M 235 142.058594 L 235 214.292969 L 162.761719 214.292969 L 162.761719 142.058594 Z M 235 220.515625 L 235 292.753906 L 162.761719 292.753906 L 162.761719 220.515625 Z M 235 298.976562 L 235 371.210938 L 162.761719 371.210938 L 162.761719 298.976562 Z M 235 377.433594 L 235 449.671875 L 162.761719 449.671875 L 162.761719 377.433594 Z M 235 455.894531 L 235 528.128906 L 162.761719 528.128906 L 162.761719 455.894531 Z M 235 534.351562 L 235 606.589844 L 162.761719 606.589844 L 162.761719 534.351562 Z M 235 612.8125 L 235 685.046875 L 162.761719 685.046875 L 162.761719 612.8125 Z M 235 691.269531 L 235 763.507812 L 162.761719 763.507812 L 162.761719 691.269531 Z M 241.222656 691.269531 L 313.457031 691.269531 L 313.457031 763.507812 L 241.222656 763.507812 Z M 319.679688 691.269531 L 391.917969 691.269531 L 391.917969 763.507812 L 319.679688 763.507812 Z M 398.140625 691.269531 L 470.375 691.269531 L 470.375 763.507812 L 398.140625 763.507812 Z M 476.597656 691.269531 L 548.835938 691.269531 L 548.835938 763.507812 L 476.597656 763.507812 Z M 555.058594 691.269531 L 627.292969 691.269531 L 627.292969 763.507812 L 555.058594 763.507812 Z M 633.515625 691.269531 L 705.753906 691.269531 L 705.753906 763.507812 L 633.515625 763.507812 Z M 711.976562 691.269531 L 784.210938 691.269531 L 784.210938 763.507812 L 711.976562 763.507812 Z M 790.433594 691.269531 L 862.671875 691.269531 L 862.671875 763.507812 L 790.433594 763.507812 Z M 868.890625 691.269531 L 941.128906 691.269531 L 941.128906 763.507812 L 868.890625 763.507812 Z M 868.890625 685.046875 L 868.890625 612.8125 L 941.128906 612.8125 L 941.128906 685.046875 Z M 868.890625 606.589844 L 868.890625 534.351562 L 941.128906 534.351562 L 941.128906 606.589844 Z M 868.890625 528.128906 L 868.890625 455.894531 L 941.128906 455.894531 L 941.128906 528.128906 Z M 868.890625 449.671875 L 868.890625 377.433594 L 941.128906 377.433594 L 941.128906 449.671875 Z M 868.890625 371.210938 L 868.890625 298.976562 L 941.128906 298.976562 L 941.128906 371.210938 Z M 868.890625 292.753906 L 868.890625 220.515625 L 941.128906 220.515625 L 941.128906 292.753906 Z M 868.890625 214.292969 L 868.890625 142.058594 L 941.128906 142.058594 L 941.128906 214.292969 Z M 868.890625 135.835938 L 868.890625 63.597656 L 941.128906 63.597656 L 941.128906 135.835938 Z M 868.890625 57.375 L 868.890625 -14.859375 L 941.128906 -14.859375 L 941.128906 57.375 Z M 868.890625 -21.082031 L 868.890625 -93.320312 L 941.128906 -93.320312 L 941.128906 -21.082031 Z M 862.671875 -21.082031 L 790.433594 -21.082031 L 790.433594 -93.320312 L 862.671875 -93.320312 Z M 784.210938 -21.082031 L 711.976562 -21.082031 L 711.976562 -93.320312 L 784.210938 -93.320312 Z M 705.753906 -21.082031 L 633.515625 -21.082031 L 633.515625 -93.320312 L 705.753906 -93.320312 Z M 627.292969 -21.082031 L 555.058594 -21.082031 L 555.058594 -93.320312 L 627.292969 -93.320312 Z M 548.835938 -21.082031 L 476.597656 -21.082031 L 476.597656 -93.320312 L 548.835938 -93.320312 Z M 470.375 -21.082031 L 398.140625 -21.082031 L 398.140625 -93.320312 L 470.375 -93.320312 Z M 391.917969 -21.082031 L 319.679688 -21.082031 L 319.679688 -93.320312 L 391.917969 -93.320312 Z M 313.457031 -21.082031 L 241.222656 -21.082031 L 241.222656 -93.320312 L 313.457031 -93.320312 Z M 235 -21.082031 L 162.761719 -21.082031 L 162.761719 -93.320312 L 235 -93.320312 Z M 156.539062 -21.082031 L 84.304688 -21.082031 L 84.304688 -93.320312 L 156.539062 -93.320312 Z M 156.539062 -14.859375 L 156.539062 57.375 L 84.304688 57.375 L 84.304688 -14.859375 Z M 156.539062 63.597656 L 156.539062 135.835938 L 84.304688 135.835938 L 84.304688 63.597656 Z M 156.539062 142.058594 L 156.539062 214.292969 L 84.304688 214.292969 L 84.304688 142.058594 Z M 156.539062 220.515625 L 156.539062 292.753906 L 84.304688 292.753906 L 84.304688 220.515625 Z M 156.539062 298.976562 L 156.539062 371.210938 L 84.304688 371.210938 L 84.304688 298.976562 Z M 156.539062 377.433594 L 156.539062 449.671875 L 84.304688 449.671875 L 84.304688 377.433594 Z M 156.539062 455.894531 L 156.539062 528.128906 L 84.304688 528.128906 L 84.304688 455.894531 Z M 156.539062 534.351562 L 156.539062 606.589844 L 84.304688 606.589844 L 84.304688 534.351562 Z M 156.539062 612.8125 L 156.539062 685.046875 L 84.304688 685.046875 L 84.304688 612.8125 Z M 156.539062 691.269531 L 156.539062 763.507812 L 84.304688 763.507812 L 84.304688 691.269531 Z M 156.539062 769.730469 L 156.539062 841.964844 L 84.304688 841.964844 L 84.304688 769.730469 Z M 162.761719 769.730469 L 235 769.730469 L 235 841.964844 L 162.761719 841.964844 Z M 241.222656 769.730469 L 313.457031 769.730469 L 313.457031 841.964844 L 241.222656 841.964844 Z M 319.679688 769.730469 L 391.917969 769.730469 L 391.917969 841.964844 L 319.679688 841.964844 Z M 398.140625 769.730469 L 470.375 769.730469 L 470.375 841.964844 L 398.140625 841.964844 Z M 476.597656 769.730469 L 548.835938 769.730469 L 548.835938 841.964844 L 476.597656 841.964844 Z M 555.058594 769.730469 L 627.292969 769.730469 L 627.292969 841.964844 L 555.058594 841.964844 Z M 633.515625 769.730469 L 705.753906 769.730469 L 705.753906 841.964844 L 633.515625 841.964844 Z M 711.976562 769.730469 L 784.210938 769.730469 L 784.210938 841.964844 L 711.976562 841.964844 Z M 790.433594 769.730469 L 862.671875 769.730469 L 862.671875 841.964844 L 790.433594 841.964844 Z M 868.890625 769.730469 L 941.128906 769.730469 L 941.128906 841.964844 L 868.890625 841.964844 Z M 947.351562 769.730469 L 1019.589844 769.730469 L 1019.589844 841.964844 L 947.351562 841.964844 Z M 947.351562 763.507812 L 947.351562 691.269531 L 1019.589844 691.269531 L 1019.589844 763.507812 Z M 947.351562 685.046875 L 947.351562 612.8125 L 1019.589844 612.8125 L 1019.589844 685.046875 Z M 947.351562 606.589844 L 947.351562 534.351562 L 1019.589844 534.351562 L 1019.589844 606.589844 Z M 947.351562 528.128906 L 947.351562 455.894531 L 1019.589844 455.894531 L 1019.589844 528.128906 Z M 947.351562 449.671875 L 947.351562 377.433594 L 1019.589844 377.433594 L 1019.589844 449.671875 Z M 947.351562 371.210938 L 947.351562 298.976562 L 1019.589844 298.976562 L 1019.589844 371.210938 Z M 947.351562 292.753906 L 947.351562 220.515625 L 1019.589844 220.515625 L 1019.589844 292.753906 Z M 947.351562 214.292969 L 947.351562 142.058594 L 1019.589844 142.058594 L 1019.589844 214.292969 Z M 947.351562 135.835938 L 947.351562 63.597656 L 1019.589844 63.597656 L 1019.589844 135.835938 Z M 947.351562 57.375 L 947.351562 -14.859375 L 1019.589844 -14.859375 L 1019.589844 57.375 Z M 947.351562 -21.082031 L 947.351562 -93.320312 L 1019.589844 -93.320312 L 1019.589844 -21.082031 Z M 941.128906 -171.777344 L 941.128906 -99.542969 L 868.890625 -99.542969 L 868.890625 -171.777344 Z M 862.671875 -171.777344 L 862.671875 -99.542969 L 790.433594 -99.542969 L 790.433594 -171.777344 Z M 784.210938 -171.777344 L 784.210938 -99.542969 L 711.976562 -99.542969 L 711.976562 -171.777344 Z M 705.753906 -171.777344 L 705.753906 -99.542969 L 633.515625 -99.542969 L 633.515625 -171.777344 Z M 627.292969 -171.777344 L 627.292969 -99.542969 L 555.058594 -99.542969 L 555.058594 -171.777344 Z M 548.835938 -171.777344 L 548.835938 -99.542969 L 476.597656 -99.542969 L 476.597656 -171.777344 Z M 470.375 -171.777344 L 470.375 -99.542969 L 398.140625 -99.542969 L 398.140625 -171.777344 Z M 391.917969 -171.777344 L 391.917969 -99.542969 L 319.679688 -99.542969 L 319.679688 -171.777344 Z M 313.457031 -171.777344 L 313.457031 -99.542969 L 241.222656 -99.542969 L 241.222656 -171.777344 Z M 235 -171.777344 L 235 -99.542969 L 162.761719 -99.542969 L 162.761719 -171.777344 Z M 156.539062 -171.777344 L 156.539062 -99.542969 L 84.304688 -99.542969 L 84.304688 -171.777344 Z M 5.84375 -171.777344 L 78.082031 -171.777344 L 78.082031 -99.542969 L 5.84375 -99.542969 Z M 5.84375 -93.320312 L 78.082031 -93.320312 L 78.082031 -21.082031 L 5.84375 -21.082031 Z M 5.84375 -14.859375 L 78.082031 -14.859375 L 78.082031 57.375 L 5.84375 57.375 Z M 5.84375 63.597656 L 78.082031 63.597656 L 78.082031 135.835938 L 5.84375 135.835938 Z M 5.84375 142.058594 L 78.082031 142.058594 L 78.082031 214.292969 L 5.84375 214.292969 Z M 5.84375 220.515625 L 78.082031 220.515625 L 78.082031 292.753906 L 5.84375 292.753906 Z M 5.84375 298.976562 L 78.082031 298.976562 L 78.082031 371.210938 L 5.84375 371.210938 Z M 5.84375 377.433594 L 78.082031 377.433594 L 78.082031 449.671875 L 5.84375 449.671875 Z M 5.84375 455.894531 L 78.082031 455.894531 L 78.082031 528.128906 L 5.84375 528.128906 Z M 5.84375 534.351562 L 78.082031 534.351562 L 78.082031 606.589844 L 5.84375 606.589844 Z M 5.84375 612.8125 L 78.082031 612.8125 L 78.082031 685.046875 L 5.84375 685.046875 Z M 5.84375 691.269531 L 78.082031 691.269531 L 78.082031 763.507812 L 5.84375 763.507812 Z M 5.84375 769.730469 L 78.082031 769.730469 L 78.082031 841.964844 L 5.84375 841.964844 Z M 5.84375 920.425781 L 5.84375 848.1875 L 78.082031 848.1875 L 78.082031 920.425781 Z M 84.304688 920.425781 L 84.304688 848.1875 L 156.539062 848.1875 L 156.539062 920.425781 Z M 162.761719 920.425781 L 162.761719 848.1875 L 235 848.1875 L 235 920.425781 Z M 241.222656 920.425781 L 241.222656 848.1875 L 313.457031 848.1875 L 313.457031 920.425781 Z M 319.679688 920.425781 L 319.679688 848.1875 L 391.917969 848.1875 L 391.917969 920.425781 Z M 398.140625 920.425781 L 398.140625 848.1875 L 470.375 848.1875 L 470.375 920.425781 Z M 476.597656 920.425781 L 476.597656 848.1875 L 548.835938 848.1875 L 548.835938 920.425781 Z M 555.058594 920.425781 L 555.058594 848.1875 L 627.292969 848.1875 L 627.292969 920.425781 Z M 633.515625 920.425781 L 633.515625 848.1875 L 705.753906 848.1875 L 705.753906 920.425781 Z M 711.976562 920.425781 L 711.976562 848.1875 L 784.210938 848.1875 L 784.210938 920.425781 Z M 790.433594 920.425781 L 790.433594 848.1875 L 862.671875 848.1875 L 862.671875 920.425781 Z M 868.890625 920.425781 L 868.890625 848.1875 L 941.128906 848.1875 L 941.128906 920.425781 Z M 947.351562 920.425781 L 947.351562 848.1875 L 1019.589844 848.1875 L 1019.589844 920.425781 Z M 1098.046875 920.425781 L 1025.808594 920.425781 L 1025.808594 848.1875 L 1098.046875 848.1875 Z M 1098.046875 841.964844 L 1025.808594 841.964844 L 1025.808594 769.730469 L 1098.046875 769.730469 Z M 1098.046875 763.507812 L 1025.808594 763.507812 L 1025.808594 691.269531 L 1098.046875 691.269531 Z M 1098.046875 685.046875 L 1025.808594 685.046875 L 1025.808594 612.8125 L 1098.046875 612.8125 Z M 1098.046875 606.589844 L 1025.808594 606.589844 L 1025.808594 534.351562 L 1098.046875 534.351562 Z M 1098.046875 528.128906 L 1025.808594 528.128906 L 1025.808594 455.894531 L 1098.046875 455.894531 Z M 1098.046875 449.671875 L 1025.808594 449.671875 L 1025.808594 377.433594 L 1098.046875 377.433594 Z M 1098.046875 371.210938 L 1025.808594 371.210938 L 1025.808594 298.976562 L 1098.046875 298.976562 Z M 1098.046875 292.753906 L 1025.808594 292.753906 L 1025.808594 220.515625 L 1098.046875 220.515625 Z M 1098.046875 214.292969 L 1025.808594 214.292969 L 1025.808594 142.058594 L 1098.046875 142.058594 Z M 1098.046875 135.835938 L 1025.808594 135.835938 L 1025.808594 63.597656 L 1098.046875 63.597656 Z M 1098.046875 57.375 L 1025.808594 57.375 L 1025.808594 -14.859375 L 1098.046875 -14.859375 Z M 1098.046875 -21.082031 L 1025.808594 -21.082031 L 1025.808594 -93.320312 L 1098.046875 -93.320312 Z M 1098.046875 -99.542969 L 1025.808594 -99.542969 L 1025.808594 -171.777344 L 1098.046875 -171.777344 Z M 1098.046875 -99.542969 "/></g></g><mask id="7dab1a3748"><g filter="url(#d7fb95d972)"><rect x="0" width="1024.5" y="0" height="576" style="fill:#000000;fill-opacity:0.1;stroke:none;"/></g></mask></g></g><g clip-rule="nonzero" clip-path="url(#2234d8de7b)"><g clip-rule="nonzero" clip-path="url(#a58e790981)"><path style=" stroke:none;fill-rule:nonzero;fill:#f0e5f5;fill-opacity:1;" d="M 299.914062 259.320312 L 676.574219 259.320312 L 676.574219 316.679688 L 299.914062 316.679688 Z M 299.914062 259.320312 "/></g></g><g clip-rule="nonzero" clip-path="url(#e7c328c275)"><path style=" stroke:none;fill-rule:nonzero;fill:#8d748d;fill-opacity:1;" d="M 760.28125 316.679688 C 744.441406 316.679688 731.601562 303.835938 731.601562 288 C 731.601562 272.160156 744.441406 259.320312 760.28125 259.320312 C 776.121094 259.320312 788.960938 272.160156 788.960938 288 C 788.960938 303.835938 776.121094 316.679688 760.28125 316.679688 Z M 760.28125 316.679688 "/></g><path style=" stroke:none;fill-rule:nonzero;fill:#f4f4f4;fill-opacity:1;" d="M 756.011719 302.832031 L 754.445312 301.261719 L 767.707031 288 L 754.445312 274.734375 L 756.011719 273.167969 L 770.84375 288 Z M 756.011719 302.832031 "/><g style="fill:#3f3245;fill-opacity:1;"><g transform="translate(282.831886, 229.164666)"><path style="stroke:none" d="M 5.875 0.1875 C 4.820312 0.1875 3.910156 -0.03125 3.140625 -0.46875 C 2.367188 -0.90625 1.773438 -1.5 1.359375 -2.25 C 0.941406 -3.007812 0.734375 -3.863281 0.734375 -4.8125 C 0.734375 -5.925781 0.957031 -6.875 1.40625 -7.65625 C 1.863281 -8.4375 2.457031 -9.035156 3.1875 -9.453125 C 3.914062 -9.878906 4.6875 -10.09375 5.5 -10.09375 C 6.125 -10.09375 6.71875 -9.960938 7.28125 -9.703125 C 7.84375 -9.441406 8.335938 -9.085938 8.765625 -8.640625 C 9.203125 -8.191406 9.546875 -7.671875 9.796875 -7.078125 C 10.054688 -6.484375 10.1875 -5.851562 10.1875 -5.1875 C 10.175781 -4.882812 10.054688 -4.640625 9.828125 -4.453125 C 9.609375 -4.273438 9.347656 -4.1875 9.046875 -4.1875 L 1.984375 -4.1875 L 1.421875 -6.03125 L 8.21875 -6.03125 L 7.8125 -5.671875 L 7.8125 -6.171875 C 7.789062 -6.523438 7.664062 -6.84375 7.4375 -7.125 C 7.207031 -7.40625 6.921875 -7.628906 6.578125 -7.796875 C 6.242188 -7.960938 5.882812 -8.046875 5.5 -8.046875 C 5.125 -8.046875 4.773438 -8 4.453125 -7.90625 C 4.140625 -7.8125 3.863281 -7.644531 3.625 -7.40625 C 3.394531 -7.164062 3.210938 -6.847656 3.078125 -6.453125 C 2.941406 -6.066406 2.875 -5.570312 2.875 -4.96875 C 2.875 -4.300781 3.007812 -3.734375 3.28125 -3.265625 C 3.5625 -2.804688 3.921875 -2.453125 4.359375 -2.203125 C 4.796875 -1.960938 5.265625 -1.84375 5.765625 -1.84375 C 6.210938 -1.84375 6.570312 -1.878906 6.84375 -1.953125 C 7.125 -2.035156 7.347656 -2.128906 7.515625 -2.234375 C 7.679688 -2.335938 7.832031 -2.425781 7.96875 -2.5 C 8.1875 -2.613281 8.394531 -2.671875 8.59375 -2.671875 C 8.863281 -2.671875 9.085938 -2.578125 9.265625 -2.390625 C 9.441406 -2.203125 9.53125 -1.984375 9.53125 -1.734375 C 9.53125 -1.398438 9.359375 -1.097656 9.015625 -0.828125 C 8.691406 -0.554688 8.238281 -0.316406 7.65625 -0.109375 C 7.082031 0.0859375 6.488281 0.1875 5.875 0.1875 Z M 5.875 0.1875 "/></g></g><g style="fill:#3f3245;fill-opacity:1;"><g transform="translate(305.81972, 229.164666)"><path style="stroke:none" d="M 6.5 -10.09375 C 7.414062 -10.09375 8.109375 -9.898438 8.578125 -9.515625 C 9.054688 -9.128906 9.382812 -8.617188 9.5625 -7.984375 C 9.738281 -7.347656 9.828125 -6.644531 9.828125 -5.875 L 9.828125 -1.125 C 9.828125 -0.800781 9.722656 -0.53125 9.515625 -0.3125 C 9.304688 -0.101562 9.039062 0 8.71875 0 C 8.394531 0 8.128906 -0.101562 7.921875 -0.3125 C 7.710938 -0.53125 7.609375 -0.800781 7.609375 -1.125 L 7.609375 -5.875 C 7.609375 -6.28125 7.554688 -6.644531 7.453125 -6.96875 C 7.347656 -7.300781 7.160156 -7.5625 6.890625 -7.75 C 6.617188 -7.945312 6.226562 -8.046875 5.71875 -8.046875 C 5.226562 -8.046875 4.8125 -7.945312 4.46875 -7.75 C 4.132812 -7.5625 3.875 -7.300781 3.6875 -6.96875 C 3.507812 -6.644531 3.421875 -6.28125 3.421875 -5.875 L 3.421875 -1.125 C 3.421875 -0.800781 3.316406 -0.53125 3.109375 -0.3125 C 2.898438 -0.101562 2.632812 0 2.3125 0 C 1.988281 0 1.722656 -0.101562 1.515625 -0.3125 C 1.304688 -0.53125 1.203125 -0.800781 1.203125 -1.125 L 1.203125 -8.78125 C 1.203125 -9.09375 1.304688 -9.359375 1.515625 -9.578125 C 1.722656 -9.796875 1.988281 -9.90625 2.3125 -9.90625 C 2.632812 -9.90625 2.898438 -9.796875 3.109375 -9.578125 C 3.316406 -9.359375 3.421875 -9.09375 3.421875 -8.78125 L 3.421875 -7.984375 L 3.140625 -8.03125 C 3.253906 -8.238281 3.414062 -8.460938 3.625 -8.703125 C 3.832031 -8.953125 4.078125 -9.179688 4.359375 -9.390625 C 4.648438 -9.597656 4.972656 -9.765625 5.328125 -9.890625 C 5.691406 -10.023438 6.082031 -10.09375 6.5 -10.09375 Z M 6.5 -10.09375 "/></g></g><g style="fill:#3f3245;fill-opacity:1;"><g transform="translate(328.918587, 229.164666)"><path style="stroke:none" d="M 1.3125 -9.71875 L 5.703125 -9.71875 C 5.992188 -9.71875 6.238281 -9.617188 6.4375 -9.421875 C 6.632812 -9.222656 6.734375 -8.976562 6.734375 -8.6875 C 6.734375 -8.40625 6.632812 -8.164062 6.4375 -7.96875 C 6.238281 -7.78125 5.992188 -7.6875 5.703125 -7.6875 L 1.3125 -7.6875 C 1.019531 -7.6875 0.773438 -7.785156 0.578125 -7.984375 C 0.378906 -8.179688 0.28125 -8.425781 0.28125 -8.71875 C 0.28125 -9 0.378906 -9.234375 0.578125 -9.421875 C 0.773438 -9.617188 1.019531 -9.71875 1.3125 -9.71875 Z M 3.296875 -12.03125 C 3.617188 -12.03125 3.878906 -11.921875 4.078125 -11.703125 C 4.285156 -11.492188 4.390625 -11.226562 4.390625 -10.90625 L 4.390625 -2.671875 C 4.390625 -2.492188 4.421875 -2.347656 4.484375 -2.234375 C 4.554688 -2.128906 4.648438 -2.050781 4.765625 -2 C 4.878906 -1.945312 5.003906 -1.921875 5.140625 -1.921875 C 5.296875 -1.921875 5.429688 -1.945312 5.546875 -2 C 5.671875 -2.0625 5.816406 -2.09375 5.984375 -2.09375 C 6.148438 -2.09375 6.304688 -2.007812 6.453125 -1.84375 C 6.597656 -1.6875 6.671875 -1.46875 6.671875 -1.1875 C 6.671875 -0.84375 6.476562 -0.554688 6.09375 -0.328125 C 5.71875 -0.109375 5.316406 0 4.890625 0 C 4.628906 0 4.34375 -0.0195312 4.03125 -0.0625 C 3.71875 -0.101562 3.421875 -0.207031 3.140625 -0.375 C 2.859375 -0.539062 2.625 -0.796875 2.4375 -1.140625 C 2.257812 -1.492188 2.171875 -1.972656 2.171875 -2.578125 L 2.171875 -10.90625 C 2.171875 -11.226562 2.273438 -11.492188 2.484375 -11.703125 C 2.703125 -11.921875 2.972656 -12.03125 3.296875 -12.03125 Z M 3.296875 -12.03125 "/></g></g><g style="fill:#3f3245;fill-opacity:1;"><g transform="translate(348.464185, 229.164666)"><path style="stroke:none" d="M 5.875 0.1875 C 4.820312 0.1875 3.910156 -0.03125 3.140625 -0.46875 C 2.367188 -0.90625 1.773438 -1.5 1.359375 -2.25 C 0.941406 -3.007812 0.734375 -3.863281 0.734375 -4.8125 C 0.734375 -5.925781 0.957031 -6.875 1.40625 -7.65625 C 1.863281 -8.4375 2.457031 -9.035156 3.1875 -9.453125 C 3.914062 -9.878906 4.6875 -10.09375 5.5 -10.09375 C 6.125 -10.09375 6.71875 -9.960938 7.28125 -9.703125 C 7.84375 -9.441406 8.335938 -9.085938 8.765625 -8.640625 C 9.203125 -8.191406 9.546875 -7.671875 9.796875 -7.078125 C 10.054688 -6.484375 10.1875 -5.851562 10.1875 -5.1875 C 10.175781 -4.882812 10.054688 -4.640625 9.828125 -4.453125 C 9.609375 -4.273438 9.347656 -4.1875 9.046875 -4.1875 L 1.984375 -4.1875 L 1.421875 -6.03125 L 8.21875 -6.03125 L 7.8125 -5.671875 L 7.8125 -6.171875 C 7.789062 -6.523438 7.664062 -6.84375 7.4375 -7.125 C 7.207031 -7.40625 6.921875 -7.628906 6.578125 -7.796875 C 6.242188 -7.960938 5.882812 -8.046875 5.5 -8.046875 C 5.125 -8.046875 4.773438 -8 4.453125 -7.90625 C 4.140625 -7.8125 3.863281 -7.644531 3.625 -7.40625 C 3.394531 -7.164062 3.210938 -6.847656 3.078125 -6.453125 C 2.941406 -6.066406 2.875 -5.570312 2.875 -4.96875 C 2.875 -4.300781 3.007812 -3.734375 3.28125 -3.265625 C 3.5625 -2.804688 3.921875 -2.453125 4.359375 -2.203125 C 4.796875 -1.960938 5.265625 -1.84375 5.765625 -1.84375 C 6.210938 -1.84375 6.570312 -1.878906 6.84375 -1.953125 C 7.125 -2.035156 7.347656 -2.128906 7.515625 -2.234375 C 7.679688 -2.335938 7.832031 -2.425781 7.96875 -2.5 C 8.1875 -2.613281 8.394531 -2.671875 8.59375 -2.671875 C 8.863281 -2.671875 9.085938 -2.578125 9.265625 -2.390625 C 9.441406 -2.203125 9.53125 -1.984375 9.53125 -1.734375 C 9.53125 -1.398438 9.359375 -1.097656 9.015625 -0.828125 C 8.691406 -0.554688 8.238281 -0.316406 7.65625 -0.109375 C 7.082031 0.0859375 6.488281 0.1875 5.875 0.1875 Z M 5.875 0.1875 "/></g></g><g style="fill:#3f3245;fill-opacity:1;"><g transform="translate(371.452019, 229.164666)"><path style="stroke:none" d="M 2.3125 0 C 1.988281 0 1.722656 -0.101562 1.515625 -0.3125 C 1.304688 -0.53125 1.203125 -0.800781 1.203125 -1.125 L 1.203125 -8.78125 C 1.203125 -9.09375 1.304688 -9.359375 1.515625 -9.578125 C 1.722656 -9.796875 1.988281 -9.90625 2.3125 -9.90625 C 2.632812 -9.90625 2.898438 -9.796875 3.109375 -9.578125 C 3.316406 -9.359375 3.421875 -9.09375 3.421875 -8.78125 L 3.421875 -7.03125 L 3.296875 -8.28125 C 3.429688 -8.570312 3.601562 -8.832031 3.8125 -9.0625 C 4.03125 -9.289062 4.273438 -9.484375 4.546875 -9.640625 C 4.828125 -9.796875 5.117188 -9.910156 5.421875 -9.984375 C 5.734375 -10.054688 6.039062 -10.09375 6.34375 -10.09375 C 6.71875 -10.09375 7.03125 -9.988281 7.28125 -9.78125 C 7.539062 -9.570312 7.671875 -9.320312 7.671875 -9.03125 C 7.671875 -8.625 7.5625 -8.332031 7.34375 -8.15625 C 7.132812 -7.976562 6.910156 -7.890625 6.671875 -7.890625 C 6.429688 -7.890625 6.210938 -7.929688 6.015625 -8.015625 C 5.828125 -8.097656 5.613281 -8.140625 5.375 -8.140625 C 5.144531 -8.140625 4.914062 -8.085938 4.6875 -7.984375 C 4.457031 -7.878906 4.25 -7.71875 4.0625 -7.5 C 3.875 -7.28125 3.71875 -7.003906 3.59375 -6.671875 C 3.476562 -6.347656 3.421875 -5.960938 3.421875 -5.515625 L 3.421875 -1.125 C 3.421875 -0.800781 3.316406 -0.53125 3.109375 -0.3125 C 2.898438 -0.101562 2.632812 0 2.3125 0 Z M 2.3125 0 "/></g></g><g style="fill:#3f3245;fill-opacity:1;"><g transform="translate(391.552819, 229.164666)"><path style="stroke:none" d=""/></g></g><g style="fill:#3f3245;fill-opacity:1;"><g transform="translate(408.8036, 229.164666)"><path style="stroke:none" d="M 0.625 -1.53125 C 0.5 -1.707031 0.441406 -1.929688 0.453125 -2.203125 C 0.472656 -2.472656 0.632812 -2.707031 0.9375 -2.90625 C 1.132812 -3.03125 1.34375 -3.082031 1.5625 -3.0625 C 1.789062 -3.039062 2.007812 -2.925781 2.21875 -2.71875 C 2.582031 -2.363281 2.957031 -2.085938 3.34375 -1.890625 C 3.738281 -1.691406 4.234375 -1.59375 4.828125 -1.59375 C 5.015625 -1.601562 5.21875 -1.628906 5.4375 -1.671875 C 5.664062 -1.710938 5.863281 -1.8125 6.03125 -1.96875 C 6.195312 -2.125 6.28125 -2.363281 6.28125 -2.6875 C 6.28125 -2.957031 6.1875 -3.171875 6 -3.328125 C 5.8125 -3.492188 5.566406 -3.628906 5.265625 -3.734375 C 4.960938 -3.847656 4.628906 -3.957031 4.265625 -4.0625 C 3.878906 -4.164062 3.484375 -4.285156 3.078125 -4.421875 C 2.679688 -4.554688 2.316406 -4.734375 1.984375 -4.953125 C 1.648438 -5.171875 1.378906 -5.457031 1.171875 -5.8125 C 0.960938 -6.164062 0.859375 -6.617188 0.859375 -7.171875 C 0.859375 -7.785156 1.03125 -8.304688 1.375 -8.734375 C 1.71875 -9.171875 2.160156 -9.503906 2.703125 -9.734375 C 3.253906 -9.972656 3.832031 -10.09375 4.4375 -10.09375 C 4.820312 -10.09375 5.222656 -10.046875 5.640625 -9.953125 C 6.066406 -9.859375 6.46875 -9.707031 6.84375 -9.5 C 7.226562 -9.300781 7.550781 -9.035156 7.8125 -8.703125 C 7.945312 -8.515625 8.023438 -8.289062 8.046875 -8.03125 C 8.078125 -7.769531 7.960938 -7.535156 7.703125 -7.328125 C 7.515625 -7.179688 7.296875 -7.117188 7.046875 -7.140625 C 6.804688 -7.160156 6.601562 -7.242188 6.4375 -7.390625 C 6.226562 -7.660156 5.945312 -7.875 5.59375 -8.03125 C 5.25 -8.195312 4.847656 -8.28125 4.390625 -8.28125 C 4.203125 -8.28125 4 -8.253906 3.78125 -8.203125 C 3.570312 -8.160156 3.382812 -8.066406 3.21875 -7.921875 C 3.0625 -7.785156 2.984375 -7.566406 2.984375 -7.265625 C 2.984375 -6.972656 3.070312 -6.742188 3.25 -6.578125 C 3.4375 -6.410156 3.6875 -6.273438 4 -6.171875 C 4.320312 -6.066406 4.660156 -5.96875 5.015625 -5.875 C 5.390625 -5.769531 5.765625 -5.648438 6.140625 -5.515625 C 6.523438 -5.378906 6.878906 -5.195312 7.203125 -4.96875 C 7.523438 -4.75 7.785156 -4.460938 7.984375 -4.109375 C 8.179688 -3.765625 8.28125 -3.320312 8.28125 -2.78125 C 8.28125 -2.144531 8.09375 -1.601562 7.71875 -1.15625 C 7.351562 -0.71875 6.890625 -0.382812 6.328125 -0.15625 C 5.773438 0.0703125 5.207031 0.1875 4.625 0.1875 C 3.894531 0.1875 3.164062 0.0625 2.4375 -0.1875 C 1.71875 -0.445312 1.113281 -0.894531 0.625 -1.53125 Z M 0.625 -1.53125 "/></g></g><g style="fill:#3f3245;fill-opacity:1;"><g transform="translate(429.792715, 229.164666)"><path style="stroke:none" d="M 3.296875 -1.125 C 3.296875 -0.800781 3.191406 -0.53125 2.984375 -0.3125 C 2.773438 -0.101562 2.507812 0 2.1875 0 C 1.863281 0 1.597656 -0.101562 1.390625 -0.3125 C 1.179688 -0.53125 1.078125 -0.800781 1.078125 -1.125 L 1.078125 -8.78125 C 1.078125 -9.09375 1.179688 -9.359375 1.390625 -9.578125 C 1.597656 -9.796875 1.863281 -9.90625 2.1875 -9.90625 C 2.507812 -9.90625 2.773438 -9.796875 2.984375 -9.578125 C 3.191406 -9.359375 3.296875 -9.09375 3.296875 -8.78125 Z M 2.171875 -11.109375 C 1.742188 -11.109375 1.441406 -11.175781 1.265625 -11.3125 C 1.097656 -11.445312 1.015625 -11.6875 1.015625 -12.03125 L 1.015625 -12.390625 C 1.015625 -12.742188 1.109375 -12.984375 1.296875 -13.109375 C 1.492188 -13.242188 1.789062 -13.3125 2.1875 -13.3125 C 2.613281 -13.3125 2.914062 -13.242188 3.09375 -13.109375 C 3.269531 -12.972656 3.359375 -12.734375 3.359375 -12.390625 L 3.359375 -12.03125 C 3.359375 -11.675781 3.265625 -11.429688 3.078125 -11.296875 C 2.890625 -11.171875 2.585938 -11.109375 2.171875 -11.109375 Z M 2.171875 -11.109375 "/></g></g><g style="fill:#3f3245;fill-opacity:1;"><g transform="translate(446.229212, 229.164666)"><path style="stroke:none" d="M 1.3125 -9.71875 L 5.703125 -9.71875 C 5.992188 -9.71875 6.238281 -9.617188 6.4375 -9.421875 C 6.632812 -9.222656 6.734375 -8.976562 6.734375 -8.6875 C 6.734375 -8.40625 6.632812 -8.164062 6.4375 -7.96875 C 6.238281 -7.78125 5.992188 -7.6875 5.703125 -7.6875 L 1.3125 -7.6875 C 1.019531 -7.6875 0.773438 -7.785156 0.578125 -7.984375 C 0.378906 -8.179688 0.28125 -8.425781 0.28125 -8.71875 C 0.28125 -9 0.378906 -9.234375 0.578125 -9.421875 C 0.773438 -9.617188 1.019531 -9.71875 1.3125 -9.71875 Z M 3.296875 -12.03125 C 3.617188 -12.03125 3.878906 -11.921875 4.078125 -11.703125 C 4.285156 -11.492188 4.390625 -11.226562 4.390625 -10.90625 L 4.390625 -2.671875 C 4.390625 -2.492188 4.421875 -2.347656 4.484375 -2.234375 C 4.554688 -2.128906 4.648438 -2.050781 4.765625 -2 C 4.878906 -1.945312 5.003906 -1.921875 5.140625 -1.921875 C 5.296875 -1.921875 5.429688 -1.945312 5.546875 -2 C 5.671875 -2.0625 5.816406 -2.09375 5.984375 -2.09375 C 6.148438 -2.09375 6.304688 -2.007812 6.453125 -1.84375 C 6.597656 -1.6875 6.671875 -1.46875 6.671875 -1.1875 C 6.671875 -0.84375 6.476562 -0.554688 6.09375 -0.328125 C 5.71875 -0.109375 5.316406 0 4.890625 0 C 4.628906 0 4.34375 -0.0195312 4.03125 -0.0625 C 3.71875 -0.101562 3.421875 -0.207031 3.140625 -0.375 C 2.859375 -0.539062 2.625 -0.796875 2.4375 -1.140625 C 2.257812 -1.492188 2.171875 -1.972656 2.171875 -2.578125 L 2.171875 -10.90625 C 2.171875 -11.226562 2.273438 -11.492188 2.484375 -11.703125 C 2.703125 -11.921875 2.972656 -12.03125 3.296875 -12.03125 Z M 3.296875 -12.03125 "/></g></g><g style="fill:#3f3245;fill-opacity:1;"><g transform="translate(465.774809, 229.164666)"><path style="stroke:none" d="M 5.875 0.1875 C 4.820312 0.1875 3.910156 -0.03125 3.140625 -0.46875 C 2.367188 -0.90625 1.773438 -1.5 1.359375 -2.25 C 0.941406 -3.007812 0.734375 -3.863281 0.734375 -4.8125 C 0.734375 -5.925781 0.957031 -6.875 1.40625 -7.65625 C 1.863281 -8.4375 2.457031 -9.035156 3.1875 -9.453125 C 3.914062 -9.878906 4.6875 -10.09375 5.5 -10.09375 C 6.125 -10.09375 6.71875 -9.960938 7.28125 -9.703125 C 7.84375 -9.441406 8.335938 -9.085938 8.765625 -8.640625 C 9.203125 -8.191406 9.546875 -7.671875 9.796875 -7.078125 C 10.054688 -6.484375 10.1875 -5.851562 10.1875 -5.1875 C 10.175781 -4.882812 10.054688 -4.640625 9.828125 -4.453125 C 9.609375 -4.273438 9.347656 -4.1875 9.046875 -4.1875 L 1.984375 -4.1875 L 1.421875 -6.03125 L 8.21875 -6.03125 L 7.8125 -5.671875 L 7.8125 -6.171875 C 7.789062 -6.523438 7.664062 -6.84375 7.4375 -7.125 C 7.207031 -7.40625 6.921875 -7.628906 6.578125 -7.796875 C 6.242188 -7.960938 5.882812 -8.046875 5.5 -8.046875 C 5.125 -8.046875 4.773438 -8 4.453125 -7.90625 C 4.140625 -7.8125 3.863281 -7.644531 3.625 -7.40625 C 3.394531 -7.164062 3.210938 -6.847656 3.078125 -6.453125 C 2.941406 -6.066406 2.875 -5.570312 2.875 -4.96875 C 2.875 -4.300781 3.007812 -3.734375 3.28125 -3.265625 C 3.5625 -2.804688 3.921875 -2.453125 4.359375 -2.203125 C 4.796875 -1.960938 5.265625 -1.84375 5.765625 -1.84375 C 6.210938 -1.84375 6.570312 -1.878906 6.84375 -1.953125 C 7.125 -2.035156 7.347656 -2.128906 7.515625 -2.234375 C 7.679688 -2.335938 7.832031 -2.425781 7.96875 -2.5 C 8.1875 -2.613281 8.394531 -2.671875 8.59375 -2.671875 C 8.863281 -2.671875 9.085938 -2.578125 9.265625 -2.390625 C 9.441406 -2.203125 9.53125 -1.984375 9.53125 -1.734375 C 9.53125 -1.398438 9.359375 -1.097656 9.015625 -0.828125 C 8.691406 -0.554688 8.238281 -0.316406 7.65625 -0.109375 C 7.082031 0.0859375 6.488281 0.1875 5.875 0.1875 Z M 5.875 0.1875 "/></g></g><g style="fill:#3f3245;fill-opacity:1;"><g transform="translate(488.762655, 229.164666)"><path style="stroke:none" d=""/></g></g><g style="fill:#3f3245;fill-opacity:1;"><g transform="translate(506.013436, 229.164666)"><path style="stroke:none" d="M 6.328125 -10.09375 C 7.191406 -10.09375 7.96875 -9.875 8.65625 -9.4375 C 9.34375 -9 9.882812 -8.394531 10.28125 -7.625 C 10.6875 -6.863281 10.890625 -5.976562 10.890625 -4.96875 C 10.890625 -3.945312 10.6875 -3.050781 10.28125 -2.28125 C 9.882812 -1.507812 9.347656 -0.90625 8.671875 -0.46875 C 8.003906 -0.03125 7.25 0.1875 6.40625 0.1875 C 5.914062 0.1875 5.453125 0.109375 5.015625 -0.046875 C 4.585938 -0.210938 4.207031 -0.414062 3.875 -0.65625 C 3.550781 -0.90625 3.296875 -1.15625 3.109375 -1.40625 C 2.929688 -1.664062 2.84375 -1.882812 2.84375 -2.0625 L 3.421875 -2.296875 L 3.421875 2.578125 C 3.421875 2.898438 3.316406 3.164062 3.109375 3.375 C 2.898438 3.59375 2.632812 3.703125 2.3125 3.703125 C 1.988281 3.703125 1.722656 3.597656 1.515625 3.390625 C 1.304688 3.179688 1.203125 2.910156 1.203125 2.578125 L 1.203125 -8.78125 C 1.203125 -9.09375 1.304688 -9.359375 1.515625 -9.578125 C 1.722656 -9.796875 1.988281 -9.90625 2.3125 -9.90625 C 2.632812 -9.90625 2.898438 -9.796875 3.109375 -9.578125 C 3.316406 -9.359375 3.421875 -9.09375 3.421875 -8.78125 L 3.421875 -7.875 L 3.109375 -8.03125 C 3.109375 -8.195312 3.191406 -8.394531 3.359375 -8.625 C 3.535156 -8.851562 3.769531 -9.078125 4.0625 -9.296875 C 4.363281 -9.523438 4.707031 -9.710938 5.09375 -9.859375 C 5.488281 -10.015625 5.898438 -10.09375 6.328125 -10.09375 Z M 6.046875 -8.046875 C 5.503906 -8.046875 5.03125 -7.910156 4.625 -7.640625 C 4.21875 -7.367188 3.898438 -7 3.671875 -6.53125 C 3.441406 -6.070312 3.328125 -5.550781 3.328125 -4.96875 C 3.328125 -4.382812 3.441406 -3.851562 3.671875 -3.375 C 3.898438 -2.90625 4.21875 -2.53125 4.625 -2.25 C 5.03125 -1.976562 5.503906 -1.84375 6.046875 -1.84375 C 6.597656 -1.84375 7.070312 -1.976562 7.46875 -2.25 C 7.875 -2.53125 8.191406 -2.90625 8.421875 -3.375 C 8.648438 -3.851562 8.765625 -4.382812 8.765625 -4.96875 C 8.765625 -5.550781 8.648438 -6.070312 8.421875 -6.53125 C 8.191406 -7 7.875 -7.367188 7.46875 -7.640625 C 7.070312 -7.910156 6.597656 -8.046875 6.046875 -8.046875 Z M 6.046875 -8.046875 "/></g></g><g style="fill:#3f3245;fill-opacity:1;"><g transform="translate(529.70451, 229.164666)"><path style="stroke:none" d="M 9.3125 -10.09375 C 9.632812 -10.09375 9.898438 -9.988281 10.109375 -9.78125 C 10.316406 -9.570312 10.421875 -9.300781 10.421875 -8.96875 L 10.421875 -1.125 C 10.421875 -0.800781 10.316406 -0.53125 10.109375 -0.3125 C 9.898438 -0.101562 9.632812 0 9.3125 0 C 8.988281 0 8.722656 -0.101562 8.515625 -0.3125 C 8.304688 -0.53125 8.203125 -0.800781 8.203125 -1.125 L 8.203125 -2.03125 L 8.609375 -1.875 C 8.609375 -1.707031 8.519531 -1.507812 8.34375 -1.28125 C 8.175781 -1.050781 7.941406 -0.828125 7.640625 -0.609375 C 7.347656 -0.390625 7 -0.203125 6.59375 -0.046875 C 6.195312 0.109375 5.765625 0.1875 5.296875 0.1875 C 4.441406 0.1875 3.664062 -0.03125 2.96875 -0.46875 C 2.28125 -0.90625 1.734375 -1.507812 1.328125 -2.28125 C 0.929688 -3.050781 0.734375 -3.9375 0.734375 -4.9375 C 0.734375 -5.957031 0.929688 -6.851562 1.328125 -7.625 C 1.734375 -8.394531 2.273438 -9 2.953125 -9.4375 C 3.640625 -9.875 4.394531 -10.09375 5.21875 -10.09375 C 5.75 -10.09375 6.234375 -10.007812 6.671875 -9.84375 C 7.117188 -9.6875 7.503906 -9.484375 7.828125 -9.234375 C 8.160156 -8.992188 8.414062 -8.742188 8.59375 -8.484375 C 8.78125 -8.234375 8.875 -8.019531 8.875 -7.84375 L 8.203125 -7.609375 L 8.203125 -8.96875 C 8.203125 -9.28125 8.304688 -9.546875 8.515625 -9.765625 C 8.722656 -9.984375 8.988281 -10.09375 9.3125 -10.09375 Z M 5.578125 -1.84375 C 6.117188 -1.84375 6.59375 -1.976562 7 -2.25 C 7.40625 -2.53125 7.722656 -2.90625 7.953125 -3.375 C 8.179688 -3.84375 8.296875 -4.363281 8.296875 -4.9375 C 8.296875 -5.53125 8.179688 -6.0625 7.953125 -6.53125 C 7.722656 -7 7.40625 -7.367188 7 -7.640625 C 6.59375 -7.910156 6.117188 -8.046875 5.578125 -8.046875 C 5.046875 -8.046875 4.578125 -7.910156 4.171875 -7.640625 C 3.765625 -7.367188 3.445312 -7 3.21875 -6.53125 C 2.988281 -6.0625 2.875 -5.53125 2.875 -4.9375 C 2.875 -4.363281 2.988281 -3.84375 3.21875 -3.375 C 3.445312 -2.90625 3.765625 -2.53125 4.171875 -2.25 C 4.578125 -1.976562 5.046875 -1.84375 5.578125 -1.84375 Z M 5.578125 -1.84375 "/></g></g><g style="fill:#3f3245;fill-opacity:1;"><g transform="translate(553.395584, 229.164666)"><path style="stroke:none" d="M 0.625 -1.53125 C 0.5 -1.707031 0.441406 -1.929688 0.453125 -2.203125 C 0.472656 -2.472656 0.632812 -2.707031 0.9375 -2.90625 C 1.132812 -3.03125 1.34375 -3.082031 1.5625 -3.0625 C 1.789062 -3.039062 2.007812 -2.925781 2.21875 -2.71875 C 2.582031 -2.363281 2.957031 -2.085938 3.34375 -1.890625 C 3.738281 -1.691406 4.234375 -1.59375 4.828125 -1.59375 C 5.015625 -1.601562 5.21875 -1.628906 5.4375 -1.671875 C 5.664062 -1.710938 5.863281 -1.8125 6.03125 -1.96875 C 6.195312 -2.125 6.28125 -2.363281 6.28125 -2.6875 C 6.28125 -2.957031 6.1875 -3.171875 6 -3.328125 C 5.8125 -3.492188 5.566406 -3.628906 5.265625 -3.734375 C 4.960938 -3.847656 4.628906 -3.957031 4.265625 -4.0625 C 3.878906 -4.164062 3.484375 -4.285156 3.078125 -4.421875 C 2.679688 -4.554688 2.316406 -4.734375 1.984375 -4.953125 C 1.648438 -5.171875 1.378906 -5.457031 1.171875 -5.8125 C 0.960938 -6.164062 0.859375 -6.617188 0.859375 -7.171875 C 0.859375 -7.785156 1.03125 -8.304688 1.375 -8.734375 C 1.71875 -9.171875 2.160156 -9.503906 2.703125 -9.734375 C 3.253906 -9.972656 3.832031 -10.09375 4.4375 -10.09375 C 4.820312 -10.09375 5.222656 -10.046875 5.640625 -9.953125 C 6.066406 -9.859375 6.46875 -9.707031 6.84375 -9.5 C 7.226562 -9.300781 7.550781 -9.035156 7.8125 -8.703125 C 7.945312 -8.515625 8.023438 -8.289062 8.046875 -8.03125 C 8.078125 -7.769531 7.960938 -7.535156 7.703125 -7.328125 C 7.515625 -7.179688 7.296875 -7.117188 7.046875 -7.140625 C 6.804688 -7.160156 6.601562 -7.242188 6.4375 -7.390625 C 6.226562 -7.660156 5.945312 -7.875 5.59375 -8.03125 C 5.25 -8.195312 4.847656 -8.28125 4.390625 -8.28125 C 4.203125 -8.28125 4 -8.253906 3.78125 -8.203125 C 3.570312 -8.160156 3.382812 -8.066406 3.21875 -7.921875 C 3.0625 -7.785156 2.984375 -7.566406 2.984375 -7.265625 C 2.984375 -6.972656 3.070312 -6.742188 3.25 -6.578125 C 3.4375 -6.410156 3.6875 -6.273438 4 -6.171875 C 4.320312 -6.066406 4.660156 -5.96875 5.015625 -5.875 C 5.390625 -5.769531 5.765625 -5.648438 6.140625 -5.515625 C 6.523438 -5.378906 6.878906 -5.195312 7.203125 -4.96875 C 7.523438 -4.75 7.785156 -4.460938 7.984375 -4.109375 C 8.179688 -3.765625 8.28125 -3.320312 8.28125 -2.78125 C 8.28125 -2.144531 8.09375 -1.601562 7.71875 -1.15625 C 7.351562 -0.71875 6.890625 -0.382812 6.328125 -0.15625 C 5.773438 0.0703125 5.207031 0.1875 4.625 0.1875 C 3.894531 0.1875 3.164062 0.0625 2.4375 -0.1875 C 1.71875 -0.445312 1.113281 -0.894531 0.625 -1.53125 Z M 0.625 -1.53125 "/></g></g><g style="fill:#3f3245;fill-opacity:1;"><g transform="translate(574.384699, 229.164666)"><path style="stroke:none" d="M 0.625 -1.53125 C 0.5 -1.707031 0.441406 -1.929688 0.453125 -2.203125 C 0.472656 -2.472656 0.632812 -2.707031 0.9375 -2.90625 C 1.132812 -3.03125 1.34375 -3.082031 1.5625 -3.0625 C 1.789062 -3.039062 2.007812 -2.925781 2.21875 -2.71875 C 2.582031 -2.363281 2.957031 -2.085938 3.34375 -1.890625 C 3.738281 -1.691406 4.234375 -1.59375 4.828125 -1.59375 C 5.015625 -1.601562 5.21875 -1.628906 5.4375 -1.671875 C 5.664062 -1.710938 5.863281 -1.8125 6.03125 -1.96875 C 6.195312 -2.125 6.28125 -2.363281 6.28125 -2.6875 C 6.28125 -2.957031 6.1875 -3.171875 6 -3.328125 C 5.8125 -3.492188 5.566406 -3.628906 5.265625 -3.734375 C 4.960938 -3.847656 4.628906 -3.957031 4.265625 -4.0625 C 3.878906 -4.164062 3.484375 -4.285156 3.078125 -4.421875 C 2.679688 -4.554688 2.316406 -4.734375 1.984375 -4.953125 C 1.648438 -5.171875 1.378906 -5.457031 1.171875 -5.8125 C 0.960938 -6.164062 0.859375 -6.617188 0.859375 -7.171875 C 0.859375 -7.785156 1.03125 -8.304688 1.375 -8.734375 C 1.71875 -9.171875 2.160156 -9.503906 2.703125 -9.734375 C 3.253906 -9.972656 3.832031 -10.09375 4.4375 -10.09375 C 4.820312 -10.09375 5.222656 -10.046875 5.640625 -9.953125 C 6.066406 -9.859375 6.46875 -9.707031 6.84375 -9.5 C 7.226562 -9.300781 7.550781 -9.035156 7.8125 -8.703125 C 7.945312 -8.515625 8.023438 -8.289062 8.046875 -8.03125 C 8.078125 -7.769531 7.960938 -7.535156 7.703125 -7.328125 C 7.515625 -7.179688 7.296875 -7.117188 7.046875 -7.140625 C 6.804688 -7.160156 6.601562 -7.242188 6.4375 -7.390625 C 6.226562 -7.660156 5.945312 -7.875 5.59375 -8.03125 C 5.25 -8.195312 4.847656 -8.28125 4.390625 -8.28125 C 4.203125 -8.28125 4 -8.253906 3.78125 -8.203125 C 3.570312 -8.160156 3.382812 -8.066406 3.21875 -7.921875 C 3.0625 -7.785156 2.984375 -7.566406 2.984375 -7.265625 C 2.984375 -6.972656 3.070312 -6.742188 3.25 -6.578125 C 3.4375 -6.410156 3.6875 -6.273438 4 -6.171875 C 4.320312 -6.066406 4.660156 -5.96875 5.015625 -5.875 C 5.390625 -5.769531 5.765625 -5.648438 6.140625 -5.515625 C 6.523438 -5.378906 6.878906 -5.195312 7.203125 -4.96875 C 7.523438 -4.75 7.785156 -4.460938 7.984375 -4.109375 C 8.179688 -3.765625 8.28125 -3.320312 8.28125 -2.78125 C 8.28125 -2.144531 8.09375 -1.601562 7.71875 -1.15625 C 7.351562 -0.71875 6.890625 -0.382812 6.328125 -0.15625 C 5.773438 0.0703125 5.207031 0.1875 4.625 0.1875 C 3.894531 0.1875 3.164062 0.0625 2.4375 -0.1875 C 1.71875 -0.445312 1.113281 -0.894531 0.625 -1.53125 Z M 0.625 -1.53125 "/></g></g><g style="fill:#3f3245;fill-opacity:1;"><g transform="translate(595.373814, 229.164666)"><path style="stroke:none" d="M 12.609375 -9.90625 C 12.890625 -9.90625 13.132812 -9.796875 13.34375 -9.578125 C 13.5625 -9.359375 13.671875 -9.085938 13.671875 -8.765625 C 13.671875 -8.671875 13.660156 -8.585938 13.640625 -8.515625 C 13.628906 -8.453125 13.613281 -8.390625 13.59375 -8.328125 L 10.75 -0.703125 C 10.664062 -0.453125 10.515625 -0.257812 10.296875 -0.125 C 10.078125 0 9.84375 0.0390625 9.59375 0 C 9.175781 -0.0195312 8.859375 -0.253906 8.640625 -0.703125 L 6.8125 -5.984375 L 7.296875 -5.96875 L 5.578125 -0.703125 C 5.367188 -0.253906 5.050781 -0.0195312 4.625 0 C 4.394531 0.0390625 4.164062 0 3.9375 -0.125 C 3.707031 -0.257812 3.550781 -0.453125 3.46875 -0.703125 L 0.625 -8.328125 C 0.582031 -8.460938 0.5625 -8.609375 0.5625 -8.765625 C 0.5625 -9.054688 0.65625 -9.316406 0.84375 -9.546875 C 1.039062 -9.785156 1.316406 -9.90625 1.671875 -9.90625 C 1.898438 -9.90625 2.109375 -9.847656 2.296875 -9.734375 C 2.484375 -9.628906 2.613281 -9.453125 2.6875 -9.203125 L 4.921875 -3.125 L 4.46875 -3.171875 L 6.140625 -7.734375 C 6.335938 -8.191406 6.679688 -8.421875 7.171875 -8.421875 C 7.441406 -8.421875 7.644531 -8.363281 7.78125 -8.25 C 7.925781 -8.132812 8.039062 -7.960938 8.125 -7.734375 L 9.8125 -3.171875 L 9.25 -3.09375 L 11.53125 -9.203125 C 11.675781 -9.671875 12.035156 -9.90625 12.609375 -9.90625 Z M 12.609375 -9.90625 "/></g></g><g style="fill:#3f3245;fill-opacity:1;"><g transform="translate(621.655847, 229.164666)"><path style="stroke:none" d="M 10.8125 -4.9375 C 10.8125 -3.925781 10.585938 -3.035156 10.140625 -2.265625 C 9.691406 -1.492188 9.085938 -0.890625 8.328125 -0.453125 C 7.566406 -0.0234375 6.71875 0.1875 5.78125 0.1875 C 4.84375 0.1875 3.992188 -0.0234375 3.234375 -0.453125 C 2.472656 -0.890625 1.863281 -1.492188 1.40625 -2.265625 C 0.957031 -3.035156 0.734375 -3.925781 0.734375 -4.9375 C 0.734375 -5.957031 0.957031 -6.851562 1.40625 -7.625 C 1.863281 -8.394531 2.472656 -9 3.234375 -9.4375 C 3.992188 -9.875 4.84375 -10.09375 5.78125 -10.09375 C 6.71875 -10.09375 7.566406 -9.875 8.328125 -9.4375 C 9.085938 -9 9.691406 -8.394531 10.140625 -7.625 C 10.585938 -6.851562 10.8125 -5.957031 10.8125 -4.9375 Z M 8.59375 -4.9375 C 8.59375 -5.570312 8.460938 -6.117188 8.203125 -6.578125 C 7.953125 -7.046875 7.613281 -7.40625 7.1875 -7.65625 C 6.757812 -7.914062 6.289062 -8.046875 5.78125 -8.046875 C 5.257812 -8.046875 4.785156 -7.914062 4.359375 -7.65625 C 3.929688 -7.40625 3.59375 -7.046875 3.34375 -6.578125 C 3.09375 -6.117188 2.96875 -5.570312 2.96875 -4.9375 C 2.96875 -4.320312 3.09375 -3.78125 3.34375 -3.3125 C 3.59375 -2.851562 3.929688 -2.492188 4.359375 -2.234375 C 4.785156 -1.972656 5.257812 -1.84375 5.78125 -1.84375 C 6.289062 -1.84375 6.757812 -1.972656 7.1875 -2.234375 C 7.613281 -2.492188 7.953125 -2.851562 8.203125 -3.3125 C 8.460938 -3.78125 8.59375 -4.320312 8.59375 -4.9375 Z M 8.59375 -4.9375 "/></g></g><g style="fill:#3f3245;fill-opacity:1;"><g transform="translate(645.27289, 229.164666)"><path style="stroke:none" d="M 2.3125 0 C 1.988281 0 1.722656 -0.101562 1.515625 -0.3125 C 1.304688 -0.53125 1.203125 -0.800781 1.203125 -1.125 L 1.203125 -8.78125 C 1.203125 -9.09375 1.304688 -9.359375 1.515625 -9.578125 C 1.722656 -9.796875 1.988281 -9.90625 2.3125 -9.90625 C 2.632812 -9.90625 2.898438 -9.796875 3.109375 -9.578125 C 3.316406 -9.359375 3.421875 -9.09375 3.421875 -8.78125 L 3.421875 -7.03125 L 3.296875 -8.28125 C 3.429688 -8.570312 3.601562 -8.832031 3.8125 -9.0625 C 4.03125 -9.289062 4.273438 -9.484375 4.546875 -9.640625 C 4.828125 -9.796875 5.117188 -9.910156 5.421875 -9.984375 C 5.734375 -10.054688 6.039062 -10.09375 6.34375 -10.09375 C 6.71875 -10.09375 7.03125 -9.988281 7.28125 -9.78125 C 7.539062 -9.570312 7.671875 -9.320312 7.671875 -9.03125 C 7.671875 -8.625 7.5625 -8.332031 7.34375 -8.15625 C 7.132812 -7.976562 6.910156 -7.890625 6.671875 -7.890625 C 6.429688 -7.890625 6.210938 -7.929688 6.015625 -8.015625 C 5.828125 -8.097656 5.613281 -8.140625 5.375 -8.140625 C 5.144531 -8.140625 4.914062 -8.085938 4.6875 -7.984375 C 4.457031 -7.878906 4.25 -7.71875 4.0625 -7.5 C 3.875 -7.28125 3.71875 -7.003906 3.59375 -6.671875 C 3.476562 -6.347656 3.421875 -5.960938 3.421875 -5.515625 L 3.421875 -1.125 C 3.421875 -0.800781 3.316406 -0.53125 3.109375 -0.3125 C 2.898438 -0.101562 2.632812 0 2.3125 0 Z M 2.3125 0 "/></g></g><g style="fill:#3f3245;fill-opacity:1;"><g transform="translate(664.966503, 229.164666)"><path style="stroke:none" d="M 9.3125 -13.703125 C 9.632812 -13.703125 9.898438 -13.597656 10.109375 -13.390625 C 10.316406 -13.179688 10.421875 -12.910156 10.421875 -12.578125 L 10.421875 -1.125 C 10.421875 -0.800781 10.316406 -0.53125 10.109375 -0.3125 C 9.898438 -0.101562 9.632812 0 9.3125 0 C 8.988281 0 8.722656 -0.101562 8.515625 -0.3125 C 8.304688 -0.53125 8.203125 -0.800781 8.203125 -1.125 L 8.203125 -2.03125 L 8.609375 -1.875 C 8.609375 -1.707031 8.519531 -1.507812 8.34375 -1.28125 C 8.175781 -1.050781 7.941406 -0.828125 7.640625 -0.609375 C 7.347656 -0.390625 7 -0.203125 6.59375 -0.046875 C 6.195312 0.109375 5.765625 0.1875 5.296875 0.1875 C 4.441406 0.1875 3.664062 -0.03125 2.96875 -0.46875 C 2.28125 -0.90625 1.734375 -1.507812 1.328125 -2.28125 C 0.929688 -3.050781 0.734375 -3.9375 0.734375 -4.9375 C 0.734375 -5.957031 0.929688 -6.851562 1.328125 -7.625 C 1.734375 -8.394531 2.273438 -9 2.953125 -9.4375 C 3.640625 -9.875 4.394531 -10.09375 5.21875 -10.09375 C 5.75 -10.09375 6.234375 -10.007812 6.671875 -9.84375 C 7.117188 -9.6875 7.503906 -9.484375 7.828125 -9.234375 C 8.160156 -8.992188 8.414062 -8.742188 8.59375 -8.484375 C 8.78125 -8.234375 8.875 -8.019531 8.875 -7.84375 L 8.203125 -7.609375 L 8.203125 -12.578125 C 8.203125 -12.890625 8.304688 -13.15625 8.515625 -13.375 C 8.722656 -13.59375 8.988281 -13.703125 9.3125 -13.703125 Z M 5.578125 -1.84375 C 6.117188 -1.84375 6.59375 -1.976562 7 -2.25 C 7.40625 -2.53125 7.722656 -2.90625 7.953125 -3.375 C 8.179688 -3.84375 8.296875 -4.363281 8.296875 -4.9375 C 8.296875 -5.53125 8.179688 -6.0625 7.953125 -6.53125 C 7.722656 -7 7.40625 -7.367188 7 -7.640625 C 6.59375 -7.910156 6.117188 -8.046875 5.578125 -8.046875 C 5.046875 -8.046875 4.578125 -7.910156 4.171875 -7.640625 C 3.765625 -7.367188 3.445312 -7 3.21875 -6.53125 C 2.988281 -6.0625 2.875 -5.53125 2.875 -4.9375 C 2.875 -4.363281 2.988281 -3.84375 3.21875 -3.375 C 3.445312 -2.90625 3.765625 -2.53125 4.171875 -2.25 C 4.578125 -1.976562 5.046875 -1.84375 5.578125 -1.84375 Z M 5.578125 -1.84375 "/></g></g><g style="fill:#3f3245;fill-opacity:1;"><g transform="translate(688.657599, 229.164666)"><path style="stroke:none" d="M 2.40625 -7.234375 C 2.050781 -7.234375 1.773438 -7.328125 1.578125 -7.515625 C 1.390625 -7.710938 1.296875 -7.988281 1.296875 -8.34375 L 1.296875 -8.671875 C 1.296875 -9.023438 1.390625 -9.296875 1.578125 -9.484375 C 1.773438 -9.679688 2.050781 -9.78125 2.40625 -9.78125 L 2.640625 -9.78125 C 3.003906 -9.78125 3.28125 -9.679688 3.46875 -9.484375 C 3.664062 -9.296875 3.765625 -9.023438 3.765625 -8.671875 L 3.765625 -8.34375 C 3.765625 -7.988281 3.664062 -7.710938 3.46875 -7.515625 C 3.28125 -7.328125 3.003906 -7.234375 2.640625 -7.234375 Z M 2.40625 0 C 2.050781 0 1.773438 -0.09375 1.578125 -0.28125 C 1.390625 -0.476562 1.296875 -0.753906 1.296875 -1.109375 L 1.296875 -1.421875 C 1.296875 -1.785156 1.390625 -2.0625 1.578125 -2.25 C 1.773438 -2.4375 2.050781 -2.53125 2.40625 -2.53125 L 2.640625 -2.53125 C 3.003906 -2.53125 3.28125 -2.4375 3.46875 -2.25 C 3.664062 -2.0625 3.765625 -1.785156 3.765625 -1.421875 L 3.765625 -1.109375 C 3.765625 -0.753906 3.664062 -0.476562 3.46875 -0.28125 C 3.28125 -0.09375 3.003906 0 2.640625 0 Z M 2.40625 0 "/></g></g></g></svg>